<svg xmlns="http://www.w3.org/2000/svg" viewBox="0 0 290.84 155.18"><defs><style>.cls-1{fill:#fefefe;}.cls-2{fill:#0b090a;}.cls-3{fill:#fefdfa;}.cls-4{fill:#4f4d4e;}.cls-5{fill:#060304;}.cls-6{fill:#545253;}.cls-7{fill:#231f20;}.cls-8{fill:#f5921d;}.cls-9{fill:#f6911d;}.cls-10{fill:#ef9121;}.cls-11{fill:#f6911b;}.cls-12{fill:#f5921c;}.cls-13{fill:#f3921b;}.cls-14{fill:#f29222;}.cls-15{fill:#d88629;}.cls-16{fill:#f5921e;}.cls-17{fill:#f7911a;}.cls-18{fill:#f8911e;}.cls-19{fill:#f5911d;}.cls-20{fill:#100e0f;}.cls-21{fill:#211d1e;}.cls-22{fill:#f5911c;}.cls-23{fill:#211c1d;}.cls-24{fill:#141112;}.cls-25{fill:#e08520;}.cls-26{fill:#040102;}.cls-27{fill:#020101;}.cls-28{fill:#f2911d;}.cls-29{fill:#f69120;}.cls-30{fill:#f29320;}.cls-31{fill:#f2921b;}.cls-32{fill:#f3921f;}.cls-33{fill:#1e1a1b;}.cls-34{fill:#f1901a;}.cls-35{fill:#ed9326;}.cls-36{fill:#f49120;}.cls-37{fill:#d6882a;}.cls-38{fill:#f2921d;}.cls-39{fill:#d88627;}.cls-40{fill:#f2931c;}.cls-41{fill:#0b0809;}.cls-42{fill:#020000;}.cls-43{fill:#f4901a;}.cls-44{fill:#d98724;}.cls-45{fill:#f78f1c;}.cls-46{fill:#f59122;}.cls-47{fill:#f59016;}.cls-48{fill:#f49422;}.cls-49{fill:#1b1a1a;}.cls-50{fill:#f3911e;}.cls-51{fill:#f4921f;}.cls-52{fill:#f5901f;}.cls-53{fill:#f08f1d;}.cls-54{fill:#161213;}.cls-55{fill:#e78a19;}.cls-56{fill:#ee901f;}.cls-57{fill:#f4921b;}.cls-58{fill:#f58d18;}.cls-59{fill:#e39234;}.cls-60{fill:#ed9124;}.cls-61{fill:#e98a15;}.cls-62{fill:#1d1a1b;}.cls-63{fill:#f18f1e;}.cls-64{fill:#dd8927;}.cls-65{fill:#0a0809;}.cls-66{fill:#f09320;}.cls-67{fill:#070405;}.cls-68{fill:#f79025;}.cls-69{fill:#110f10;}.cls-70{fill:#161415;}.cls-71{fill:#0d090a;}.cls-72{fill:#030203;}.cls-73{fill:#030202;}.cls-74{fill:#f09119;}.cls-75{fill:#121011;}.cls-76{fill:#070506;}.cls-77{fill:#0f0c0d;}.cls-78{fill:#e18c20;}.cls-79{fill:#ef932d;}.cls-80{fill:#090708;}.cls-81{fill:#050304;}.cls-82{fill:#020102;}.cls-83{fill:#1a1819;}.cls-84{fill:#f2911c;}.cls-85{fill:#040101;}.cls-86{fill:#040202;}.cls-87{fill:#fd8e1a;}.cls-88{fill:#0d0b0c;}.cls-89{fill:#030102;}.cls-90{fill:#0c090a;}.cls-91{fill:#060405;}.cls-92{fill:#f09527;}.cls-93{fill:#da851e;}.cls-94{fill:#f69127;}.cls-95{fill:#131212;}.cls-96{fill:#151314;}.cls-97{fill:#161516;}.cls-98{fill:#090607;}.cls-99{fill:#040303;}.cls-100{fill:#060303;}.cls-101{fill:#100d0e;}.cls-102{fill:#131011;}.cls-103{fill:#0a0909;}.cls-104{fill:#191617;}.cls-105{fill:#ed911c;}.cls-106{fill:#131112;}.cls-107{fill:#221e1f;}.cls-108{fill:#100c0d;}.cls-109{fill:#171516;}.cls-110{fill:#0c0a0b;}.cls-111{fill:#020001;}.cls-112{fill:#060203;}.cls-113{fill:#fdc979;}.cls-114{fill:#0c0c0c;}.cls-115{fill:#ed8913;}.cls-116{fill:#e99121;}.cls-117{fill:#d2892b;}.cls-118{fill:#ef972c;}.cls-119{fill:#da7d1d;}.cls-120{fill:#ee9328;}.cls-121{fill:#e3891c;}.cls-122{fill:#050203;}.cls-123{fill:#da8624;}.cls-124{fill:#e58716;}.cls-125{fill:#040203;}.cls-126{fill:#f88c10;}.cls-127{fill:#da8625;}.cls-128{fill:#d08827;}.cls-129{fill:#de8122;}.cls-130{fill:#070304;}.cls-131{fill:#f9f9f9;}.cls-132{fill:#120e0f;}.cls-133{fill:#181415;}.cls-134{fill:#232021;}.cls-135{fill:#f89218;}.cls-136{fill:#f1941b;}.cls-137{fill:#f68e0e;}.cls-138{fill:#f58b0d;}.cls-139{fill:#f29223;}.cls-140{fill:#fa901b;}.cls-141{fill:#f39320;}.cls-142{fill:#fa9114;}.cls-143{fill:#f79120;}.cls-144{fill:#fa8f11;}.cls-145{fill:#f6921c;}.cls-146{fill:#f9911c;}.cls-147{fill:#f4911a;}.cls-148{fill:#f99020;}.cls-149{fill:#f3931c;}.cls-150{fill:#fb8e16;}.cls-151{fill:#f79316;}.cls-152{fill:#f99015;}.cls-153{fill:#f5920f;}.cls-154{fill:#f7911f;}.cls-155{fill:#f99119;}.cls-156{fill:#fa9017;}.cls-157{fill:#fc9116;}.cls-158{fill:#f19119;}.cls-159{fill:#f89215;}.cls-160{fill:#f59121;}.cls-161{fill:#f59222;}.cls-162{fill:#f49222;}.cls-163{fill:#f58d15;}.cls-164{fill:#fb8a13;}.cls-165{fill:#f79121;}.cls-166{fill:#fa9117;}.cls-167{fill:#f7911c;}.cls-168{fill:#f69317;}.cls-169{fill:#f7900f;}.cls-170{fill:#f78e12;}.cls-171{fill:#f98d28;}.cls-172{fill:#f2931b;}.cls-173{fill:#f59123;}.cls-174{fill:#fb8e24;}.cls-175{fill:#f69219;}.cls-176{fill:#f2941b;}.cls-177{fill:#f39512;}.cls-178{fill:#f09421;}.cls-179{fill:#f29513;}.cls-180{fill:#fa8d13;}.cls-181{fill:#f68d10;}.cls-182{fill:#f6921b;}.cls-183{fill:#f98d0f;}.cls-184{fill:#fb8e1a;}.cls-185{fill:#f39322;}.cls-186{fill:#fa911e;}.cls-187{fill:#fb9115;}.cls-188{fill:#f88f10;}.cls-189{fill:#fb901b;}.cls-190{fill:#fa8f15;}.cls-191{fill:#f89014;}.cls-192{fill:#fb9112;}.cls-193{fill:#f69015;}.cls-194{fill:#f3921d;}.cls-195{fill:#f59020;}.cls-196{fill:#f79015;}.cls-197{fill:#f88f12;}.cls-198{fill:#fa901d;}.cls-199{fill:#f3931f;}.cls-200{fill:#f79023;}.cls-201{fill:#fb8f20;}.cls-202{fill:#f39117;}.cls-203{fill:#f1931d;}.cls-204{fill:#f29321;}.cls-205{fill:#f49223;}</style></defs><title>Asset 2</title><g id="Layer_2" data-name="Layer 2"><g id="Layer_1-2" data-name="Layer 1"><path class="cls-1" d="M17.12,149.79l-.39,3.93c-1.59,1.86-3.24,1.16-4.89.12l-.44,0-.38-.21-1-.08a10.05,10.05,0,0,1-5.09-2.79c-2.83-2.32-3.81-5.46-3.95-9l-.06.08L.42,142,0,141.78l.6-.38a.64.64,0,0,1,.19.08.11.11,0,0,1,.08,0,.92.92,0,0,1,.25.15.42.42,0,0,1,.16.11,1.69,1.69,0,0,1,.41.43c1.33,2.54,1.55,5.63,3.83,7.69a8.32,8.32,0,0,0,.74.59A12.87,12.87,0,0,0,9.11,152l.92.35c.41.12.82.25,1.22.39s.68.22,1,.33l.18.06a5.3,5.3,0,0,0,2.09.28h0a1.57,1.57,0,0,0,.52-.22,2.16,2.16,0,0,0,.51-.53,7,7,0,0,0,.28-1c.14-.64.23-1.3.41-1.94a17.66,17.66,0,0,0,.54-2.5,2.4,2.4,0,0,0-.05-1.18h0a3.78,3.78,0,0,0-1.93-1.84A8,8,0,0,1,11,139.36a9.46,9.46,0,0,1-.3-2c-.12-15.64,0-31.27-.08-46.9,0-2,.35-4-.57-5.87a2.92,2.92,0,0,0-.37-.24,4.79,4.79,0,0,0-1-.46c-1.85-.6-3.89-.11-5.82-.2a0,0,0,0,1,0,0,6.46,6.46,0,0,1-1.64-.26A4.48,4.48,0,0,1,0,82.85a25.07,25.07,0,0,1,10-.15c3.29-1,2,1.68,2,2.82.08,11.28.06,22.57,0,33.85,0,6.47-.1,12.94-.16,19.41,1,3.61,3.41,5.35,7.25,5.14-.45,1.45-.82,2.64-1.18,3.83C18.16,148.63,18.25,149.45,17.12,149.79Z"/><path class="cls-1" d="M64.93,121.19c0-1.19.68-2.69-.93-3.5,0-1.72.45-3.54-1.14-4.89-1.9-3.55-4.75-5.73-8.87-6a1.65,1.65,0,0,0-2.06-.77,47.79,47.79,0,0,0-12,0l0,0c-2.28,1-5.06,0-7.18,1.72-5.83,1-4.82,4.35-2.78,8.07,2.35,4.06,4.87.43,7.31.14l3.68-.32,8,0,1,0c3.18,2.19,5.93,4.53,2.91,8.78a.75.75,0,0,0-.21,0l-.62.07c-3.85-2.86-8-.28-12-.56-2.06.53-4.26.57-6.05,1.94-1.52.65-3.27,1-4,2.72-2.51,1.78-4.72,3.76-4.77,7.17s-1.13,6.81,1,9.95a6,6,0,0,0,2.77,4.07c2.78,2.69,6,4.29,10,4a24.59,24.59,0,0,0,16.2,0l3.87-.24c1.41-.42,3.05-.3,4.06-1.69,2.81,0,1.93-2.08,1.94-3.5Q65,134.78,64.93,121.19ZM38.11,143.68a5.92,5.92,0,0,1,1.06-9.33c4.13-2.44,8.64-1.8,13-1.74,3.07,0,1.23,2.8,1.95,4.18v1c-.45,8.58-.44,8.53-9.45,8.1C42.25,145.77,40,145.54,38.11,143.68Z"/><path class="cls-1" d="M87,142c-.36.86-.83,1.73.14,2.5,7-.55,14-.88,21,.17.79,3,1.36,6-.28,9L75.34,154c-1.11,0-2.58.41-2.33-1.44.4-3-1.24-6.16.91-9,1.11-2.7,3.19-4.69,5-6.86,1-1.33,2-2.65,3-4s2-2.67,3-4,2.14-2.65,3.2-4a8.88,8.88,0,0,1,2.84-4l2.24-2.94-.24-2.07c-5.78.07-11.56.1-17.35.24-4.8.11-2.19-3.46-2.53-5.34s-1.18-4.27,2.66-4.16c10.73.31,21.48.26,32.21.34,1.69,2.74,1.32,5.51.17,8.3a8.69,8.69,0,0,1-3.15,4.64L102.34,123l-1.28.85c0,1.94-1.53,2.94-2.7,4.15-1.82,2.6-3.6,5.22-6.35,7-.93,1.33-1,3.29-2.93,3.88A3.47,3.47,0,0,1,87,142Z"/><path class="cls-1" d="M116.81,98.89c-3.09-5-2.43-7.3,3-10.44a3.46,3.46,0,0,1,4.52.23c4.57,2.71,5.16,6.42,1.65,10.26-2.11,3.27-4.79,2.22-7.49,1A1.36,1.36,0,0,1,116.81,98.89Z"/><path class="cls-1" d="M127.75,108.79q0,21.48,0,43v1c-3.37,2.78-7.22.72-10.83,1.06-1.42-.37-.94-1.55-.94-2.43q0-21.09,0-42.2c0-.87-.51-2.06,1-2.39,2.92-.08,5.84-.12,8.76-.24C127.34,106.5,128.23,107,127.75,108.79Z"/><path class="cls-1" d="M171,137.31c1.71,2,.74,4.25.66,6.43l-1.45,3.15a7.47,7.47,0,0,1-4.32,4.7c-1.53,1-3,2.27-5,2.08a3.1,3.1,0,0,1-3,.94,62.28,62.28,0,0,1-13,0,14.2,14.2,0,0,1-6.09-1.7v.06c-3.16-.26-4-1.52-1.83-4.15a7.1,7.1,0,0,1,1.89-4.07c0-1.44.44-2.28,2.06-1.69l5,1.82,1,.08c3,1.94,6-.5,9,0,2.93-.51,3.3-2.95,3.93-5.18l-1-1.71-7-3.1c-4.76-1.54-9.6-2.91-13-7a12.42,12.42,0,0,1-1.81-12.1c1.87-5.1,5.36-8.28,10.81-9.14A1.6,1.6,0,0,1,150,106a55.69,55.69,0,0,1,11.9,0c.62.13,1.25.24,1.87.4,8,2.15,8.08,2.27,3.12,9.26-2,2.47-4-.25-6,0l-6.74-.65c-3.26,1.55-8.12,2-5.22,7.72a6.56,6.56,0,0,1,4.1,2.08,9.22,9.22,0,0,1,5.89,2,8.31,8.31,0,0,1,5,2c1.11.87,3.14.78,3.11,2.85,2.09,0,2.85,1.22,3,3.12C171.29,135.24,171.46,136.16,171,137.31Z"/><path class="cls-1" d="M228.1,26.86A23.52,23.52,0,0,1,228.16,13c.16-.39.33-.77.49-1.15.21-1.37-.06-2.85.94-4,.73-1.66,1.44-3.33,2.17-5l-.06,0c.73-1.37.52-4.31,3.43-2,.93.34.83,1.13.83,1.88,1,.36,1,1.16,1,2,2,.82.78,2.64,1.2,3.95h0c3.91,2.51,2.67,6.73,3,10.18.44,5,.12,10.15-3.81,14.27-1.82,1.91-3.35,2.56-5.41.61C229.26,32.21,228.45,29.66,228.1,26.86Z"/><path class="cls-1" d="M243.52,124.88c.1,8.44.1,16.88.34,25.31.08,2.84-.92,3.94-3.7,3.67a18.82,18.82,0,0,0-4,0c-3.26.38-4.29-.93-4.27-4.2.08-9.93-.16-19.85-.27-29.78l-.92-1.69c-4.3-3.85-9-2-13.73-1.08-.33.48-.66,1-1,1.43,1.63,1.47.86,3.41.86,5.11,0,9.71-.1,19.41-.17,29.12-2.91,2.25-6.23.85-9.35.9-2.21,0-1.52-2.15-1.54-3.48-.13-9.4-.19-18.81-.27-28.21-2.27-5.78-7.47-7.59-14.62-5.09q-.21,3.53-.44,7.05c.1,8.81.15,17.61.35,26.41.06,2.55-.79,3.91-3.39,3.47s-5.55,1.26-7.9-1.1c-.66-13.3-.75-26.59-.16-39.89-.49-1.79-.3-3.5,1.6-4.18,6.49-2.31,13-4.18,19.94-2.07a1.22,1.22,0,0,1,.76.25l1.21,1.1a7.49,7.49,0,0,1,7,2.11c5-.19,8.85-4.37,14-4,5.63-.27,11.17-.29,15.11,4.78l.94.9C244.48,115.16,243.49,120.16,243.52,124.88Z"/><path class="cls-1" d="M244.41,73c-.22-.26-.44-.53-.67-.79l-2.81-2.1c-.28,5.07,1,10.23-.92,15.19A23.54,23.54,0,0,1,236,96c-1.14,1.32-2.29,3.83-3.37,0a17.53,17.53,0,0,1-3.4-7.15c-1.37-5.58-3.27-11.12-1.5-17L227,70v0a6.17,6.17,0,0,1-3,3v0l-4.15,3.81c-2.25,2.27-4.43,4.66-7.94,4.89-1.6.86-3,2.16-5,2.23-1.17,1-2.63,2-4,1.08-1.65-1.09-.14-2.75.19-4a45.87,45.87,0,0,1,2.69-6.27v0c1.24-2.41,1.81-5.35,5-6.24.47-2.87,2.78-4.21,4.8-5.8.46-.67,1.45-1.52,1.3-2-.48-1.49-2-.88-3-.72-8.45,1.32-15.91-1.35-23-5.5-.74-.28-1.8-.53-1.51-1.51s1.47-1.2,2.44-1.45a1.36,1.36,0,0,1,1.58-.81,7.51,7.51,0,0,1,4.34-1.94C203,47,208.32,45.18,214,46.7c1.1-1,2.72.74,3.73-.71a25.08,25.08,0,0,1-8.06-9,2.41,2.41,0,0,1-1.89-1.88l-.24-.4v0l-1.65-2.8v0c-.87-1.88-1.86-3.73-2.56-5.67-.52-1.45-1.6-3.65,0-4.36,1.38-.6,4-.62,4.72,2,.82,0,1.66.05,2,1l1.73.18c1.77-.4,2.87.84,4.14,1.67,1.1.54,2.4.84,2.75,2.28L223,33.51c2.08.21,2.86,1.81,3.64,3.4,1.77,3.55,5.21,7.07.24,10.78-.6.26-1.75.63-1.72.76.7,3.4-1.4,7,.75,10.28,2.52.3,3.3,1.81,2.92,4.14.67.49.79,2.27,2.22.94,1.08-1.18,2.13-2.47,3.88-1l1,.81c1.89.61,3-.28,3.73-1.93a3,3,0,0,1,3.11-2.95v0l2.08-1.93c-3.6-2.42-.15-5.66-1-8.41-5.26-1.85-5.83-3.46-3.14-8.85-.48-2,2.39-1.94,2.24-3.72,3.16-4.78,7-8.7,12.77-10.22.26-.29.51-.59.76-.88a12.4,12.4,0,0,1,2.11-1.15c2.42-.78,5.4-3.32,7.21-1.33,1.57,1.71-.8,4.68-1.87,7s-1.6,5-3.68,6.81l-1.25.87c-2.08,3.54-4.33,6.94-8,9.05a1.87,1.87,0,0,1-.1.78l5.89-.06a2.84,2.84,0,0,1,3.34,0c3.09,0,6.16.1,8.76,2.12a7.53,7.53,0,0,1,5.21,1.75c.9.37,1.79.75,2.7,1.1,2.94,1.12,2.79,2.4.18,3.77a31.58,31.58,0,0,1-10,3.66,30.58,30.58,0,0,1-11.11,1.58h0c-1.21.53-2.74-.18-3.77,1,4,3.45,7.82,7,9.86,12l0,0a37.4,37.4,0,0,1,2.84,5.61c.57,1.79,2.44,4.1.87,5.5s-3.88-.4-5.78-1.15l-1.21-.47c-1.62-.7-3.54-.83-4.73-2.39a1.15,1.15,0,0,1-.17-.79l-1-.42c-2.07.13-3.14-1.35-4.33-2.65h-.35l-.27-.21A8.4,8.4,0,0,1,244.41,73Z"/><path class="cls-1" d="M289.25,150.9a3.61,3.61,0,0,1,1.59.87l-2.06,0L285,152.86a1.3,1.3,0,0,1-.84.22c-6.39,1.72-12.82,2.85-19.4.77-1.42,0-2.86.15-3.95-1a7,7,0,0,1-4.92-3.07l-.89-1-1.31-1.87c-3.25-5.76-1.84-12-1.87-18.09s-.16-12-.42-17.93c-.26-6.25,4.38-3.64,7.29-4.19,3.42-.65,4.24,1,4.18,4.15-.19,9.65-.12,19.31-.15,29,.39.92.79,1.85,1.19,2.77,1.83,1.73,3.79,3.06,6.51,3.09,6.45.09,7.44-.78,7.44-7.14,0-9,.2-17.92-.08-26.86-.12-4,1.15-5.59,5.08-4.88,2.4.44,5.48-1.42,7,2h.95a2.06,2.06,0,0,1-.95.34,1.09,1.09,0,0,1-.36,0,2.25,2.25,0,0,1-.36-.06,9.79,9.79,0,0,0-1.89-.64c-7.26-1.18-8-.53-8,6.79,0,7.48.08,15,0,22.43-.05,3,.94,6.64-3,8.22a17.27,17.27,0,0,1-2.88.89,10.25,10.25,0,0,1-4.77,0,9.62,9.62,0,0,1-4.06-2.17q-.17-.14-.33-.3c-.25-.24-.48-.51-.71-.77l-.11-.15a10.24,10.24,0,0,1-1.59-3.57s0,0,0,0a.29.29,0,0,1,0-.1,1,1,0,0,1,0-.17c0-.52-.06-1-.08-1.56a1.08,1.08,0,0,1,0-.18c-.38-8.21-.09-16.43-.11-24.64a8,8,0,0,0-.43-3,2.86,2.86,0,0,0-.21-.43c-.59-1-1.7-1.55-3.74-1.53-3.15,0-3.92,1.52-4,3.55a.14.14,0,0,0,0,.09,15.21,15.21,0,0,0,0,1.65c.24,5,.1,10,.15,14.93,0,.06,0,.13,0,.19l0,.94c.07,4.08-.47,8.18.15,12.22a16.62,16.62,0,0,0,.43,2.05h0a12.68,12.68,0,0,0,.4,1.33,4.52,4.52,0,0,0,.18.47s0,0,0,0c.09.22.2.43.31.65.25.47.52.94.75,1.41.18.3.37.59.56.88s.32.45.48.66l.06.07a6.26,6.26,0,0,0,1,.89,9.93,9.93,0,0,0,2.33,1.32c.52.23,1.06.43,1.6.62a11.35,11.35,0,0,0,1.39.36c.56.12,1.12.21,1.68.32h0l.25.05.21,0,.57.13a32.39,32.39,0,0,0,3.24.35,42.4,42.4,0,0,0,6.67-.08l.36,0c.57-.05,1.14-.12,1.7-.19.74-.09,1.49-.2,2.23-.33,1.07-.17,2.13-.38,3.2-.6l.49-.11.3-.07.29-.06a14.72,14.72,0,0,1,4.57-1.12h0a4.34,4.34,0,0,1,.52.09Z"/><path class="cls-2" d="M3.43,137.66c0,1.55.13,3.66-2.15,4.11a2,2,0,0,1-.35.06l-.06.08c0-.14-.05-.29-.08-.43-.66-3.83-.07-7.7-.27-11.55v-8.37c0-10.28,0-20.57,0-30.86,0-1.62.46-3.32-.5-4.86v-2a5.77,5.77,0,0,1,1.16-.47,1.76,1.76,0,0,1,1.64.26,0,0,0,0,0,0,0l.22.2,0,.05a3.31,3.31,0,0,1,.3.39C3.83,102.08,3.61,119.87,3.43,137.66Z"/><path class="cls-3" d="M290.84,108.82v43l-2.06,0c0-.31,0-.62,0-.93-.67-13-.21-25.92-.17-38.88a3.68,3.68,0,0,1,1.33-3.1Z"/><path class="cls-4" d="M0,85.85c1.29.72,1,2,1,3.1q0,16.44-.14,32.87c-.29.43-.58.43-.86,0Z"/><path class="cls-5" d="M10,83.86s0,0,0,0a1.51,1.51,0,0,1-.31.39l-.08,0c-2.27,1.1-4.48,1.31-6.57-.41L3,83.85H0v-1a25.07,25.07,0,0,1,10-.15A1.12,1.12,0,0,1,10,83.86Z"/><path class="cls-4" d="M.87,141.51v.4L.42,142,0,141.78v-12c.17-.27.34-.38.52-.32a.69.69,0,0,1,.34.31C.86,133.7.87,137.6.87,141.51Z"/><path class="cls-6" d="M.86,129.79H0v-8l.86,0Z"/><path class="cls-7" d="M64,117.69c0-1.72.45-3.54-1.14-4.89-2.55-2.6-5.83-4.14-8.87-6a1.65,1.65,0,0,0-2.06-.77c-3.9.78-7.86,0-11.78.43l-.17.09-.18.09c-2.24,1-4.77.34-7,1.14-5.83,1-4.82,4.35-2.78,8.07,2.19,1.05,4.32.56,6.45-.23l.32-.11.14,0a21.3,21.3,0,0,1,3.48-.17l.27,0,.35-.07.48-.14.19-.05c1.74,0,3.53-.34,5.26-.22a6.43,6.43,0,0,1,3.05.92c3.18,2.19,5.93,4.53,2.91,8.78a.75.75,0,0,0-.21,0l-.62.07-.28,0c-.84.07-1.67.12-2.51.16-1.66.07-3.32.09-5,.16A25.12,25.12,0,0,0,34,127c-.09,0-.17.08-.26.12l-.13,0a10.69,10.69,0,0,0-3.31,1.9l-.32.29c-.13.11-.26.24-.39.37a11.88,11.88,0,0,0-3.87,6.72.53.53,0,0,0,0,.12c-.05.21-.1.42-.14.63,0,2.38-.36,4.8.71,7.08a7.25,7.25,0,0,0,.4.9c.1.19.21.37.32.56a11.18,11.18,0,0,1,1.92,4.08c2.78,2.69,6,4.29,10,4,4.68,1,9.42.19,14.13.44.44-.16.87-.33,1.31-.47a5.52,5.52,0,0,1,.53-.18,8.75,8.75,0,0,1,3.1-.48l.2-.07.12,0a36.76,36.76,0,0,0,4.45-1.46l.28-.16a5.23,5.23,0,0,0,1.26-1C64.42,139.5,64.91,128.59,64,117.69Zm-25.89,26a5.92,5.92,0,0,1,1.06-9.33c4.13-2.44,8.64-1.8,13-1.74,3.07,0,1.23,2.8,1.95,4.18v1c-.45,8.58-.44,8.53-9.45,8.1C42.25,145.77,40,145.54,38.11,143.68Z"/><path class="cls-7" d="M170.85,140.82v0a12.18,12.18,0,0,1-1.43,5.65l-.15.29-.11.2a15.7,15.7,0,0,1-3,3.93l-.22.09-.4.15a12.19,12.19,0,0,0-4.59,2.5,3.1,3.1,0,0,1-3,.94c-4.18-.84-8.41-.08-12.6-.41l-.35-.16a.67.67,0,0,0-.18-.07c-1.88-.76-4-.51-5.91-1.12h-.05l.05.09a7.24,7.24,0,0,1-1.83-4.15,7.1,7.1,0,0,1,1.89-4.07c2.37-1.58,4.66,1.44,7,.13l1,.08c2.94,3,6.26.57,9.39.67l.26-.1.11,0c2.59-1,4.21-2.51,3.16-5.68l-1-1.71c-1.66-2.54-4.1-3.32-7-3.1-4.76-1.54-9.6-2.91-13-7a35.74,35.74,0,0,1-1.75-7.26,9.09,9.09,0,0,1,.15-2.07h0a7.68,7.68,0,0,1,.53-1.66c1.67-3.75,6-5.38,8.83-8.23a14.58,14.58,0,0,0,1.24-2A1.6,1.6,0,0,1,150,106a42,42,0,0,0,11.9,0c.62.13,1.25.24,1.87.4,8,2.15,8.08,2.27,3.12,9.26-1.87,0-3.69-.38-5.56-.41h0l-.39-.12c-2.22-.69-4.42-1.61-6.73-.17-3.26,1.55-8.12,2-5.22,7.72a11,11,0,0,0,3.13,2l.08,0,.16.1a11.91,11.91,0,0,0,6.62,1.91,8.31,8.31,0,0,1,5,2c.45,1.53,2.19,1.72,3,2.85l.08.1s0,0,0,0c.8.87,1.92,1.47,2.32,2.64a2.38,2.38,0,0,1,.11.38s0,.08,0,.12A15.08,15.08,0,0,1,170.85,140.82Z"/><path class="cls-7" d="M17.12,149.79a4,4,0,0,1-2,3.41,3,3,0,0,1-.52.22h0a8.86,8.86,0,0,1-3.51.24l-1-.08a8.18,8.18,0,0,0-5.09-2.79c-2.83-2.32-3.81-5.46-3.95-9l.19-.17c1.48-1.39.85-3.27.86-4.93,0-15.54,0-31.08,0-46.62,0-2.14-.26-4.32,1-6.26h7c2.71.75,1.36,3,1.37,4.46.12,16.27.07,32.54.07,48.79a7.31,7.31,0,0,0-.07,1.67,2,2,0,0,0,0,.34,5.56,5.56,0,0,0,4.1,4.93c2.31.71,1.63,2.47,2.38,3.7C18.16,148.63,18.25,149.45,17.12,149.79Z"/><path class="cls-7" d="M107.23,152.65l-.09.2H107c-9.47.87-19,.15-28.43.4a11.57,11.57,0,0,1-1.54-.52l-.22-.1A5.9,5.9,0,0,1,74.64,151h0a4.31,4.31,0,0,1-.68-1.17,5.37,5.37,0,0,1,0-3.48,10.12,10.12,0,0,1,.51-1.37l.23-.45A25.93,25.93,0,0,1,79,138l.52-.71.15-.19A29.45,29.45,0,0,0,82.49,133l.12-.18.15-.21c.91-1.16,2.35-2,2.14-3.82q1.6-2,3.2-4c1.24-.71,2.06-2,3.43-2.51l.22-.08H92c1.62.07,3.23.18,4.87.21h0l.1,0a2,2,0,0,1,.52.28,1.59,1.59,0,0,1,.46.39,2.37,2.37,0,0,1,.44.56,4.18,4.18,0,0,1,.16.58h0c0,.12,0,.23,0,.34a3,3,0,0,1,0,.42,3.76,3.76,0,0,1-1,2l-.16.18-.18.19A27.77,27.77,0,0,0,92,134.94c-.93,1.33-1,3.29-2.93,3.88a19.08,19.08,0,0,0-1.75,1.61l-.12.11-.21.27c-1.08,1.25-2.91,2.49.14,3.7l.08,0h0c4.86.55,9.74,0,14.61.24,1.79.07,3.66-.37,5.31.76,0,0,0,0,0,0l.06.14A8.13,8.13,0,0,1,107.23,152.65Z"/><path class="cls-8" d="M243,149.42c.19,4.92-3.22,3.83-6.08,3.63-.07-.11-.15-.21-.21-.32s-.29-.43-.42-.65a17.35,17.35,0,0,1-1.14-2.17,0,0,0,0,1,0,0,20.72,20.72,0,0,1-1.53-5.57,56.58,56.58,0,0,1,.11-11.63c0-.68.1-1.36.14-2a28.63,28.63,0,0,1,.9-5.67,21.84,21.84,0,0,1,2-5,1.83,1.83,0,0,0-.34-.47,3,3,0,0,0-.56-.46c-.14-.1-.29-.19-.44-.28l-.55-.34-.14-.1c-1.45-1.07-2.41-3-4.54-2.76a2.67,2.67,0,0,0-.48.08h0a7,7,0,0,1-2.64-.37c-.82-.14-1.63-.31-2.45-.43a8.75,8.75,0,0,0-3,0,5.74,5.74,0,0,0-1.69.64c-.72.39-1.43.9-2.21.35a1.16,1.16,0,0,1-.25-.2l0-.06a4.78,4.78,0,0,1-.45-3.08c0-.13,0-.27.05-.4a1.93,1.93,0,0,1,0-.24c.07-3.25,2.23-4.44,5.11-4.92l1.33-.05h.33a.11.11,0,0,1,.08,0,6.21,6.21,0,0,1,2.62.38l.09.07a1.08,1.08,0,0,1,.31.29.65.65,0,0,1,.16.22,1.63,1.63,0,0,1,.21.53,3,3,0,0,1-.14.66c-.27.77-.72,1.64,0,1.91a2.93,2.93,0,0,0,1.39,0c1.24-.25,2.52.56,3.75-.53,2.27-2,4.55-1.23,6.72.35l.94.9c2.8,3.22,2.85,7.18,2.92,11.11l0,2.32q0,2.69,0,5.37c0,3.07,0,6.14,0,9.22,0,2.4,0,4.8.08,7.2a0,0,0,0,1,0,.05Z"/><path class="cls-8" d="M190.93,116.88q-.21,3.53-.44,7.05c-.25,7.49-.06,15-.1,22.46,0,7,0,7-7.39,6.73a4.46,4.46,0,0,1-1.17-.42,3.42,3.42,0,0,1-.71-.49,3,3,0,0,1-.73-1,4.84,4.84,0,0,1-.41-1.46,10.94,10.94,0,0,1-.08-1.54c.11-9.17-.16-18.36.11-27.52l.06-1.85a2.51,2.51,0,0,1,.57-1.06l.26-.23a1.76,1.76,0,0,1,.42-.24,2.31,2.31,0,0,1,2.76.51,1.45,1.45,0,0,0,2.06,0,2.94,2.94,0,0,0,.25-.25c.36-.26.72-.51,1.09-.74l.85-.55.22-.14a2.71,2.71,0,0,1,2.35-.48.32.32,0,0,1,.09,0l.07,0A.84.84,0,0,1,190.93,116.88Z"/><path class="cls-9" d="M231.77,2.82a0,0,0,0,0,0,0l-.06,0,.07-.06Z"/><path class="cls-9" d="M240,19.19c0,1.31,0,2.62-.06,3.92,0,.85,0,1.7-.05,2.54-.44,4.85-2.84,7.79-7.94,8.09-2.65-1.53-3.46-4.08-3.81-6.88.07-4.62,0-9.24.06-13.85.16-.39.33-.77.49-1.15,1.39-1,1.13-2.67,1.78-4a1.34,1.34,0,0,1,.13-.23.41.41,0,0,1,.05-.09c.86-1.46.56-3.21,1.15-4.74h0c1.1-.69,1.42-2.69,3.36-2,.93.34.83,1.13.83,1.88a3.05,3.05,0,0,1-.67,3.8c-1.31,1.26.08,1.22.84,1.42l.18.06.24,0a11.29,11.29,0,0,1,1.57.65h0v0c.43,2.36,1.82,4.49,1.7,7C239.93,16.86,240,18,240,19.19Z"/><path class="cls-10" d="M289.89,109.16q-.11,18.41-.23,36.82c0,1.65.27,3.35-.41,4.91h0a4.62,4.62,0,0,1-.47.83L285,152.86a1.3,1.3,0,0,1-.84.22,1.19,1.19,0,0,1-.4-.08,1.53,1.53,0,0,1-.16-.31.82.82,0,0,1-.06-.19,1.14,1.14,0,0,1,0-.45,1.41,1.41,0,0,1,0-.28s0,0,0,0l.15-.2a3.78,3.78,0,0,1,.82-.78c.24-.19.5-.36.75-.54l.15-.11a2.8,2.8,0,0,0,1.16-2.32,2.25,2.25,0,0,0,0-.26,4,4,0,0,0,0-.49v-.31l-.06-1.78c0-.38,0-.75,0-1.13,0-.14,0-.29,0-.43,0-.29,0-.59,0-.88s0-.49,0-.74,0-.44,0-.66c-.09-7.69,0-15.38,0-23.06,0-1,0-2,0-3v-.74c0-1.58.3-3.58-2-3.9-2.17-.3-2.76,1-3,2.58,0,.16,0,.33-.07.5l0,.28s0,.07,0,.11v.1c0,.19,0,.39,0,.58s0,.5,0,.75,0,.75,0,1.12,0,.74,0,1.11,0,1,0,1.57c.07,6.45.26,12.89,0,19.33-.06,1.38-.14,2.77-.25,4.15a5.45,5.45,0,0,1-.14.58q-.08.28-.18.57a1.34,1.34,0,0,1-.07.18,8.28,8.28,0,0,1-1,1.83l0,0a5.66,5.66,0,0,1-.5.57,6.27,6.27,0,0,1-3.86,1.6l-.3,0a3.23,3.23,0,0,1-.53,0c-.25,0-.5,0-.74,0h-4.35c-.55,0-1.11,0-1.67.09-.26,0-.53.07-.79.12l-.45.07a4.09,4.09,0,0,1-2.34-.18l-.17-.13a.56.56,0,0,1-.15-.16,2.38,2.38,0,0,1-.59-1.53c0-.1,0-.21,0-.32a5.8,5.8,0,0,0,0-.59,5,5,0,0,1,.19-2.07,2.33,2.33,0,0,1,.59-.82c1.83,1.73,3.79,3.06,6.51,3.09,6.45.09,7.44-.78,7.44-7.14,0-9,.2-17.92-.08-26.86-.12-4,1.15-5.59,5.08-4.88,2.4.44,5.48-1.42,7,2Z"/><path class="cls-11" d="M217.13,115.81a0,0,0,0,0,0,0l-.12-.07a2,2,0,0,0-1.28-.26c-.58.3-1.2.53-1.8.79h0c-.21.09-.41.18-.61.29s-.28.14-.41.22a3.91,3.91,0,0,0-1,.79l-.16.18a2.32,2.32,0,0,0-.22.3l-.14.25a2.31,2.31,0,0,0,.19,1.53,6.57,6.57,0,0,1,.69.93,2.86,2.86,0,0,0-2.68-1.06,1.84,1.84,0,0,0-1.25.61,2.46,2.46,0,0,0-.52,1.54,9.49,9.49,0,0,0,.15,1.93c.07.44.13.87.18,1.31,0,0,0,0,0,.06.07.57.13,1.14.18,1.72v0c.51,6.05-.11,12.13,0,18.19a8.25,8.25,0,0,1-.12,1.49c-.27,1.88-.93,3.75-.3,5.62h0a1.8,1.8,0,0,0,.08.21,3.23,3.23,0,0,0,.15.34,3.67,3.67,0,0,0,.26.47c2.38-.34,4.92.74,7.21-.46l.22-.12.21-.14a.46.46,0,0,1,.1-.07l.13-.09c-.07-11.27.47-22.54-.28-33.8.32-.48.65-1,1-1.43A1.06,1.06,0,0,0,217.13,115.81Zm-3.8,7.67a9.82,9.82,0,0,1,.12,1.75c-.06,2.74-.07,5.47-.08,8.21,0-2,0-4,0-6A31.84,31.84,0,0,0,213.33,123.48Z"/><path class="cls-9" d="M259.05,37c-2.08,3.54-4.33,6.94-8,9.05l-.63-.13-.15-.09a6.44,6.44,0,0,1-.9-.65A12.18,12.18,0,0,0,247,43.4c-1.07-.5-1,.14-1,.7a1,1,0,0,1-.07.54c0,.09,0,.19,0,.28a3.83,3.83,0,0,1-.83,2l-.07.09a3.45,3.45,0,0,1-.28.26,2.41,2.41,0,0,1-.9.24,2,2,0,0,1-.42,0l-.3,0c-4.33-1.57-3.17-4.79-2.4-7.89-.48-2,2.39-1.94,2.24-3.72a3.52,3.52,0,0,1,2.58-.82l.34.14a3.83,3.83,0,0,0,.51.13c1,.17.82-.59.72-1.31a2.45,2.45,0,0,1,0-.7.47.47,0,0,1,.26-.43c2.8-1.13,3-5.52,6.8-5.41h.08l.33.08a3.1,3.1,0,0,1,2.13,2.34,3.81,3.81,0,0,1,.12.51.64.64,0,0,1,0,.07s0,.05,0,.07a4.13,4.13,0,0,1-.06,1.86,8.2,8.2,0,0,1-1.66,2.89C256.28,36.39,258.14,35.56,259.05,37Z"/><path class="cls-12" d="M237.5,81.13a2.06,2.06,0,0,1,1.24.38,2.71,2.71,0,0,0,0,.29,2.22,2.22,0,0,0,1,1.92s0,0,0,0a3.44,3.44,0,0,0,.38.22,3.54,3.54,0,0,1-.18,1.29A23.54,23.54,0,0,1,236,96c-1.12.11-2.26,1-3.37,0a17.53,17.53,0,0,1-3.4-7.15c.52-3-.68-5.75-1.4-8.54-.43-1.71-.52-3.17.62-4.58a4.45,4.45,0,0,1,.48-.32,5.24,5.24,0,0,1,.61-.34,4.8,4.8,0,0,1,3.12-.3l.18.22a.69.69,0,0,0,.11.13c1.59,1.88,3.53,2.6,6,1.49l.1,0h.12a1.45,1.45,0,0,1,.59.13.81.81,0,0,1,.18.1,1.44,1.44,0,0,1,.34.27,6.12,6.12,0,0,1,0,2.76,2.3,2.3,0,0,1-.35.41,1.91,1.91,0,0,1-.32.24,1.35,1.35,0,0,1-.26.15l-.09,0a.68.68,0,0,1-.31.11C238.4,80.8,237.84,80.6,237.5,81.13Z"/><path class="cls-13" d="M224,73l-4.15,3.81a39.71,39.71,0,0,0-7.94,4.89c-1.6.86-3,2.16-5,2.23-2.2-.78-3.19-2.23-2.23-4.49.64-1.52.41-3.2,1.13-4.67v0c2.47-.22,1.44,2.62,3.63,3.55-4.2-4.34-.86-6.94,1.33-9.79.47-2.87,2.78-4.21,4.8-5.8a1.2,1.2,0,0,1,1.49,0l.09.14a4.59,4.59,0,0,1,.78,3.32c-.26,1.83-1.54,3.51-2.28,5.26l0,.06a2.56,2.56,0,0,1-.22.35c-.58.76-1.54,1.21-2.07,2.37,2,.16,2.39-1,2.57-2.37,0-.14,0-.28,0-.42h0c.22-1,.64-1.81,1.82-1.92l.16.07a.35.35,0,0,0,.14.06c2.09.9,4.79.72,5.88,3.37Z"/><path class="cls-14" d="M220.66,61.25a.56.56,0,0,0,0-.12c-.1-.35-.21-.69-.33-1-.79-2.12-2.06-3.55-5-2.71-2.24.21-4.48.14-6.73.14-.49,0-1,0-1.46,0h-.23l-.69,0a7.62,7.62,0,0,1-5-2.53c1.94.55,1.64-2.8,3.71-1.91a1.28,1.28,0,0,1,.24.11h.18s0,0,0,0a7,7,0,0,0,5.7-2.58l.49-.69c.08-.11.16-.23.25-.34a24.66,24.66,0,0,1,1.77-2.06l.27-.29s0,0,0-.06.14-.35.2-.52c-5.71-1.52-11,.29-16.27,2.13a2.54,2.54,0,0,0,.6.58,2,2,0,0,0,.53.27l.11,0,.1,0a6.51,6.51,0,0,0,2.41-.11l.39-.08-.3.13-.41.2c-3.15,1.59-5.7,4.79-9.89,3.55a.92.92,0,0,0-.24.17.45.45,0,0,0-.13.15.82.82,0,0,0,0,.78c7.12,4.15,14.58,6.82,23,5.5,1-.16,2.48-.77,3,.72.15.47-.84,1.32-1.3,2l1.3.14c1,.81.31,2.41,1.06,3.3a1.67,1.67,0,0,0,.81.51l.11,0,.58.22a4.13,4.13,0,0,0,1.25.24H221a3.12,3.12,0,0,0,.52-.08C223.77,64.81,221,63.2,220.66,61.25Zm-15.8-11.88a4.44,4.44,0,0,0,1,0h.28a1,1,0,0,1,.49.2h-.53l-.24,0a3.19,3.19,0,0,1-.6-.12c-.91,0-1.81,0-2.72,0A6.51,6.51,0,0,1,204.86,49.37Z"/><path class="cls-15" d="M243.86,150.19c.08,2.84-.92,3.94-3.7,3.67a18.82,18.82,0,0,0-4,0c-3.26.38-4.29-.93-4.27-4.2.08-9.93-.16-19.85-.27-29.78a1.77,1.77,0,0,1,2.42.72,3.71,3.71,0,0,1,.23.32l.08.12a29.39,29.39,0,0,1,.4,3.94c.23,6-1,12.05-.44,18.09.2,2.3.08,4.67.82,6.82a0,0,0,0,0,0,0,7.3,7.3,0,0,0,1.14,2.17,7,7,0,0,0,.56.66c2.58.22,5.11.3,6-3-1-8-.32-16-.33-24.07a.59.59,0,0,1,.38-.61c.2-.08.45-.12.64-.22C243.62,133.32,243.62,141.76,243.86,150.19Z"/><path class="cls-16" d="M257.16,51.64a2,2,0,0,1-.05.24,1.54,1.54,0,0,1-.05.17,10.51,10.51,0,0,1-2,2.12l-.16.14c-.46.44-.24.86,0,1.27a2.45,2.45,0,0,1,.27.57,4.09,4.09,0,0,1-2.22,2.72l-.26.15-.21.12-.6.33a3.73,3.73,0,0,1-1.18.19h0a3.71,3.71,0,0,1-.47,0l-.27-.05-.19,0a2.53,2.53,0,0,1-.33-.16,2,2,0,0,1-1-2c0-.47.58-1,0-1.41-1.09.6-1.88,2.25-3.45.94-3.6-2.42-.15-5.66-1-8.41a1,1,0,0,1-.44-.94,1.11,1.11,0,0,1,.41-.64h1a1.47,1.47,0,0,0,.27,0c1,.07,1.44-.76,2.05-1.34a3.65,3.65,0,0,1,.37-.29,1.56,1.56,0,0,1,.57-.21,2.76,2.76,0,0,1,1.22.06,5,5,0,0,1,1.37.63L251,46a1.87,1.87,0,0,1-.1.78c1.26,1.2,2.83.34,4.23.61a1.34,1.34,0,0,1,.76.34.12.12,0,0,1,.05,0c.47.5.41,1.35.75,1.94l.06.14a3.83,3.83,0,0,1,.22.56A2.35,2.35,0,0,1,257.16,51.64Z"/><path class="cls-17" d="M226.24,40.58a1.65,1.65,0,0,1-.2.37A.32.32,0,0,1,226,41a1.5,1.5,0,0,1-.36.35l-.23.14a4.23,4.23,0,0,1-.58.17,3.54,3.54,0,0,1-1,.1,4.19,4.19,0,0,1-.86-.09l-.22,0a3.64,3.64,0,0,1-2.09-1.55l0,0a.58.58,0,0,1-.06-.17c-.63-1.61.32-3.88-1.65-4.92a3.37,3.37,0,0,0-.54-.24l-.13-.07a4.05,4.05,0,0,0-4.67.61,8,8,0,0,0-.8.66l0,0c-.87.71-1.66,1.66-3,1a2.41,2.41,0,0,1-1.89-1.88l-.24-.4v0c-.36-1,.36-2.71-1.65-2.8v0c-.43-3-2.59-6.47,2.19-8,.82,0,1.66.05,2,1,0,1.21.76.87,1.38.79a.87.87,0,0,1,.36,0,.49.49,0,0,1,.25.12c1,.4,2,.72,2,2.05a.25.25,0,0,1,.06.16.39.39,0,0,1-.1.23c-.32.4-1.27.79-.68,1.19a2.52,2.52,0,0,0,.71.29l.18-.08c1.42-.59,2.73-1.91,4.42-.62L223,33.51c1,.83.79,2.75,2.57,2.92a2.31,2.31,0,0,1,.33.46s0,0,0,0C226.5,38.07,225.94,39.39,226.24,40.58Z"/><path class="cls-18" d="M237.14,65.13c-.3,1.52-1.74,1.63-2.76,2.27a2.36,2.36,0,0,0-.55.45,7,7,0,0,1-.64.58l-.33.28a2.85,2.85,0,0,1-2.73.58l-.3-.14,0,0c-1.61-2-1.8,1-2.85.9v0a5.08,5.08,0,0,0-3,3v0c-1.69-1.71-5-.35-6.11-3.18a2.29,2.29,0,0,1,.08-.28,1.88,1.88,0,0,1,.92-1l.24-.11h.06a1.82,1.82,0,0,0,1.53-1.25c.06-.11.12-.23.17-.34,2.15-2.17-1.73-3.12-1-5a5.42,5.42,0,0,1,.41-1.75,2.31,2.31,0,0,1,2.07-1.44,2.63,2.63,0,0,1,.41,0h.13c1,1.16,2.09,2.19,3.79,1.75l.21-.06a.86.86,0,0,1,.17,0c1.39.23,1.09,1.73,1.75,2.5.67.49.79,2.27,2.22.94,1.29-.34,2.4-1.41,3.88-1l1,.81a1.68,1.68,0,0,0,.27.37h0a4.7,4.7,0,0,1,.81.86.44.44,0,0,1,.06.16h0Z"/><path class="cls-19" d="M259.38,72.46a1.86,1.86,0,0,1-.28.52.59.59,0,0,1-.13.18,5.9,5.9,0,0,1-1.56,1.23,4.85,4.85,0,0,0-.7.43,3,3,0,0,0-1,1.14,2.68,2.68,0,0,0-.28,1.36,3.46,3.46,0,0,1-1.64,2.74l-1-.42c-1.64-.57-2.51-2.38-4.33-2.65h-.35l-.27-.21A16.5,16.5,0,0,1,246.12,74l-.12-.37s0-.08,0-.12a5.13,5.13,0,0,1,.29-3.34,1.39,1.39,0,0,1,.65-.64,2.81,2.81,0,0,1,.53-.22c.41-.14.86-.24,1.24-.41a1.46,1.46,0,0,0,.93-1.05,1.91,1.91,0,0,0,.06-.61,7,7,0,0,1,.45-2,2.64,2.64,0,0,1,.18-.38c.05-.09.1-.18.16-.27.71-.73,1.73-1.56,2.49-.77C255.45,66.47,259.19,68.16,259.38,72.46Z"/><path class="cls-20" d="M118.88,151.83a1.9,1.9,0,0,1-.21.4,2.47,2.47,0,0,1-.36.49,9.32,9.32,0,0,1-1.38,1.11c-1.42-.37-.94-1.55-.94-2.43q0-21.09,0-42.2c0-.87-.51-2.06,1-2.39a6.16,6.16,0,0,1,1.36,1,2.59,2.59,0,0,1,.32.42,2.44,2.44,0,0,1,.26.51c1.34,10.71.34,21.46.58,32.19C119.54,144.59,119.92,148.26,118.88,151.83Z"/><path class="cls-21" d="M126.09,98.12c0,.06-.09.11-.13.16s-.2.24-.3.34c-2,2.12-4.51,2-7.17,1.31a1.36,1.36,0,0,1-1.68-1c-.78-3.79-1.86-7.68,3.08-9.54l.16-.06.13-.05A5,5,0,0,1,123,89a1.17,1.17,0,0,1,.26,0l.4.2C128,91.54,128.5,93.34,126.09,98.12Z"/><path class="cls-22" d="M213.71,114.3v0a4.21,4.21,0,0,1-.18,1.32,2.81,2.81,0,0,1-.22.5,2.53,2.53,0,0,1-.13.22,3.47,3.47,0,0,1-.29.38c-.31.37-.67.7-1,1a1.16,1.16,0,0,1-.36.22c-1.22.56-2.68-.94-3.79.28A3.41,3.41,0,0,0,207,118a1.26,1.26,0,0,1,.72.59,5.72,5.72,0,0,1,.67,1.67,1.5,1.5,0,0,1-.52,1.54,2.81,2.81,0,0,1-.65.42l-.26.11h0a2.86,2.86,0,0,1-1.34-.39c-2.27-5.78-7.47-7.59-14.62-5.09,0-.36,0-.72-.05-1.07,0-.06,0-.11,0-.16.32-2.34,2-1.76,3.56-1.56a1.82,1.82,0,0,0,.44.17,1.74,1.74,0,0,0,.39,0,3.29,3.29,0,0,0,.77,0,2.53,2.53,0,0,1-.81-.12,1.51,1.51,0,0,1-.35-.14l-.13-.07a1.49,1.49,0,0,1,0-1.17.16.16,0,0,1,0-.09,2.26,2.26,0,0,1,.11-.22c2.59-2.52,5.9-1.78,9-2h.31c.39,0,.78-.07,1.17-.08a4.26,4.26,0,0,1,1.46.16l.11.15,0,0c1.45,2,3.72,1.72,5.83,1.86l.14.11a.93.93,0,0,1,.14.14,2.13,2.13,0,0,1,.54.91A3.14,3.14,0,0,1,213.71,114.3Z"/><path class="cls-23" d="M101.07,118.2c-3.69-.45-4.23,1.55-4.13,4.27,0,.11,0,.22,0,.33a4.13,4.13,0,0,1-5,0,1.69,1.69,0,0,1-.42-.52,1.53,1.53,0,0,1,0-1.21,1.26,1.26,0,0,1,.13-.26,1.32,1.32,0,0,1,.12-.2c.6-.85,1.73-1.43,1.42-2.75l-.24-2.07c-4.55-1.08-9.17-.36-13.75-.46-6.16-.14-6.16,0-5.29-6.42.29-.16.76-.4.88-.26s.09.11.15.16,0,0,0,0c4.26,4.67,9.94,3.56,15.33,3.62,4.15.05,8.28.13,11.38,3.52a2.39,2.39,0,0,1,.34.65,1.46,1.46,0,0,1,0,.2C102.23,117.61,101.89,118.3,101.07,118.2Z"/><path class="cls-24" d="M127.76,151.74a2,2,0,0,1-2.06-1.27c-.06-.11-.11-.24-.17-.36-.11-.28-.21-.57-.32-.86a7.08,7.08,0,0,1,0-2.43c.41-6.1.83-12.19-.37-18.25-.72-6.69-.37-13.39-.4-20.09a4.5,4.5,0,0,1,.46-.59l0,0c1.06-1.1,2-.31,2.79.93Q127.75,130.27,127.76,151.74Z"/><path class="cls-25" d="M262.91,110.83c-.19,9.65-.12,19.31-.15,29a1.08,1.08,0,0,1-1,0l-.06,0a1.31,1.31,0,0,1-.4-.41h0a4.43,4.43,0,0,1-.58-1.47.3.3,0,0,1,0-.1,3.83,3.83,0,0,1-.1-.59l0-.3c-.14-5.44-.08-10.89-.08-16.33q0-2.46,0-4.92c0-1.79.36-3.64-.61-5.31-3.44-1.49-4.42-1.54-5.13.94-.07.21-.12.43-.18.68s-.16.72-.24,1.14a33.5,33.5,0,0,0-.07,4.7c0,.43.05.87.06,1.31.16,3.13.28,6.27-.89,9.32l-.12.15a1.1,1.1,0,0,1-.37.29l0,0a1.16,1.16,0,0,1-1-.08c-.13-6-.16-12-.42-17.93-.26-6.25,4.38-3.64,7.29-4.19C262.15,106,263,107.65,262.91,110.83Z"/><path class="cls-26" d="M108,108l-.06.08a1.44,1.44,0,0,1-.38.35,6.67,6.67,0,0,1-.71.35,4.83,4.83,0,0,1-.64.22l-.36.09c-10.29.26-20.6.78-30.88-.3,0,0,0,0,0,0-1.85,5.32-1.41,5.77,4,6,4.67.24,9.47-1.15,14,.93-5.78.07-11.56.1-17.35.24-4.8.11-2.19-3.46-2.53-5.34s-1.18-4.27,2.66-4.16c10.73.31,21.48.26,32.21.34A1.08,1.08,0,0,1,108,108Z"/><path class="cls-27" d="M12,85.52c.08,11.28.06,22.57,0,33.85,0,6.47-.1,12.94-.16,19.41-.14.22-.27.33-.41.34s-.28-.11-.43-.34Q11,113.9,11,89c0-1.74.63-3.66-.93-5.14l0,0c0-.38,0-.76-.05-1.15C13.24,81.73,12,84.38,12,85.52Z"/><path class="cls-9" d="M264,29.29c-.93,2.43-1.6,5-3.68,6.81-2.94-.15-3.47-1.76-3.5-3.67,0-.62,0-1.28.05-1.93v-.09a2.35,2.35,0,0,0,0-.59,5.42,5.42,0,0,0-1.21-2.63c-.05-.08-.11-.16-.16-.25l-.06-.09a1.24,1.24,0,0,1,.34-1.17c.26-.29.51-.59.76-.88a16.12,16.12,0,0,1,1.9-.5C265.17,22.13,265.17,22.13,264,29.29Z"/><path class="cls-28" d="M262,73.73l0,0a1.62,1.62,0,0,1-1.09.64h0a1.24,1.24,0,0,1-.27,0A1.93,1.93,0,0,1,259,73.16a2.09,2.09,0,0,1-.11-.3c-1.45-3.88-3.37-7.29-8-8a1.61,1.61,0,0,1-.74.45,1.32,1.32,0,0,1-1.34-.5c-.56-.61-.74-2.32-1.82-.39h-.22a3,3,0,0,1-.43,0,2.67,2.67,0,0,1-.6-.16h0l-.05,0c-1.38-1-2-2.58-2.91-3.93,0-.07-.09-.14-.14-.21l0-.06a1.27,1.27,0,0,1,.25-1.23v0c2.38-1.51,4.51-.65,6.6.57l.26.15a2,2,0,0,1,.26.09l.24.1.15.09a1,1,0,0,1,.26.16,6.19,6.19,0,0,1,1.55,1.74C256.07,65.16,259.93,68.7,262,73.73Z"/><path class="cls-29" d="M220.88,39.9l-.28.22c-1.73,1.36-2.2,3.31-2.34,5.41l-.23.22,0,0-.23.21a25.08,25.08,0,0,1-8.06-9,3.59,3.59,0,0,0,2.19-2.09,1.38,1.38,0,0,1,1.63.38c.48.52.77,1.3,1.39,1.58l.17.09a1.58,1.58,0,0,0,1.45,0,1.74,1.74,0,0,0,.36-.22,9.15,9.15,0,0,0,1.3-2.11,2.49,2.49,0,0,1,.69-.76C223.35,34.63,220.6,37.77,220.88,39.9Z"/><path class="cls-30" d="M227.07,60.37a1.26,1.26,0,0,1-.16.49c-1,.33-1.23,2.25-2.74,1.48s-1.27-2.16-1.29-3.47a2.84,2.84,0,0,1-.52-.19c-1.81-1,0-3.46-1.52-4.51h0a1.78,1.78,0,0,1-.22-.26,2.61,2.61,0,0,1-.46-.85c0-2.09-.78-4.28.55-6.16l.06-.09a3.94,3.94,0,0,1,.43-.5,6,6,0,0,1,5.3,0,.28.28,0,0,1,.1.09.81.81,0,0,1,.26.26h0a.94.94,0,0,1,0,1c-.6.26-1.75.63-1.72.76.7,3.4-1.4,7,.75,10.28C226.27,59.29,227.16,59.6,227.07,60.37Z"/><path class="cls-31" d="M239,110.77c-4-2.26-7.26,2.27-11.12,1-1.77-.27-1.82-.4-1-3v-1c-.07.28-.1.17-.07,0a.94.94,0,0,1,.06-.24c.06-.16.17-.26.34-.06.44.5.93.07.29-.11a3.32,3.32,0,0,0-.94-.12,10.28,10.28,0,0,1-2.54-.15,1,1,0,0,1-.22-.25l0,0a0,0,0,0,1,0,0,.69.69,0,0,1-.07-.42c.05-.27.11-.41.19-.41C229.51,105.72,235.05,105.7,239,110.77Z"/><path class="cls-32" d="M205.35,110.34a2.35,2.35,0,0,1-.46,1.47c-3.37,0-6.75-.19-10,1l-.17,0c-2.07-.52-3.84-1.37-4.24-3.68a24.43,24.43,0,0,0-.07-.46,2.31,2.31,0,0,1,2.1-1.69c.54,0,1.09.1,1.63.16a13.83,13.83,0,0,0,5.55-.14c.25-.08.49-.17.74-.27a1.32,1.32,0,0,1,.49-.11,1.22,1.22,0,0,1,.76.25l1.21,1.1C203.63,108.78,205.23,109.18,205.35,110.34Z"/><path class="cls-33" d="M147.88,106.7c-1.52,2.52-.63,7.17-5.94,6.36-1.44-.22-2.15,1.55-2.39,2.81-.28,1.46-.16,3-1.61,3.94a1.53,1.53,0,0,1-.66-1.2h0c-.07-.92.42-2-.21-2.76C138.94,110.74,142.43,107.56,147.88,106.7Z"/><path class="cls-34" d="M237.32,33.13c-1.82,1.91-3.35,2.56-5.41.61,2.08-2.52,7.4-1.75,7-6.83a28.46,28.46,0,0,0,0-12c.89-2.2-2.72-3.9-.73-6.23h0c3.91,2.51,2.67,6.73,3,10.18C241.57,23.89,241.25,29,237.32,33.13Z"/><path class="cls-35" d="M242.88,130.47c-.18,3.07-.11,6.15,0,9.22.06,2.41.12,4.81.08,7.2a0,0,0,0,1,0,.05c0,.95,0,1.89-.1,2.84-1.57-1.5-.91-3.44-.93-5.2-.07-6.81,0-13.62,0-20.43,0-4.26.45-8.59-1.94-12.48,4.55,3.49,3.56,8.49,3.59,13.21A44.3,44.3,0,0,0,242.88,130.47Z"/><path class="cls-36" d="M223.88,106c0,.27,0,.54,0,.82,0,0,0,0,0,0l0,0c-.48.6-1.45.28-1.92.92-2.86-.19-3.13,2.21-4,4a2.29,2.29,0,0,1-.94.64,3.43,3.43,0,0,1-1.47.18h-.67a4.83,4.83,0,0,0-.76,0,5.58,5.58,0,0,0-1,.12,1,1,0,0,0-.17,0c-2.44.65-5.5,3.18-6-2l0-.17c.4-2.44,2.22.51,3-.62C214.88,109.84,218.73,105.66,223.88,106Z"/><path class="cls-26" d="M107.93,153.68,75.34,154c-1.11,0-2.58.41-2.33-1.44.4-3-1.24-6.16.91-9a4.24,4.24,0,0,1,.55,1.38,17.27,17.27,0,0,1-.09,4.31,4.15,4.15,0,0,0,.25,1.71h0A3.06,3.06,0,0,0,77,152.74H106.9a1.57,1.57,0,0,1,.33-.08C107.89,152.53,108.16,152.84,107.93,153.68Z"/><path class="cls-37" d="M216.71,152.76c-2.91,2.25-6.23.85-9.35.9-2.21,0-1.52-2.15-1.54-3.48-.13-9.4-.19-18.81-.27-28.21l1.34-.17c.1.15.19.3.28.45a8.7,8.7,0,0,1,1,2.82s0,0,0,.06c.07.57.13,1.14.18,1.72v0c0,.86,0,1.73,0,2.6,0,5.7.07,11.39-.13,17.08-.07,1.88-.16,3.75-.3,5.62h0c0,.18,0,.37,0,.55h8a.84.84,0,0,1,.21-.26.46.46,0,0,1,.1-.07C216.36,152.35,216.53,152.46,216.71,152.76Z"/><path class="cls-38" d="M201.69,106.82l-.9.08c-2.49,1.58-5.32.12-7.89.92a2.06,2.06,0,0,0-2,1l-.41.26c-3.08,1.73-7.44.35-9.73,4a1.55,1.55,0,0,1-.64,0,.63.63,0,0,1-.19,0,1.65,1.65,0,0,1-.54-.25c-.49-1.79-.3-3.5,1.6-4.18,6.49-2.31,13-4.18,19.94-2.07Z"/><path class="cls-39" d="M190.84,150.34c.06,2.55-.79,3.91-3.39,3.47s-5.55,1.26-7.9-1.1a1.41,1.41,0,0,1,.43-.35.33.33,0,0,1,.13-.07,1.57,1.57,0,0,1,.49-.16,4.67,4.67,0,0,0,.52.08,3.31,3.31,0,0,1,1.49.33,3.15,3.15,0,0,0,.29.22c7,0,6.88,0,7-6.76.18-7.35-.74-14.74.55-22.07C190.59,132.74,190.64,141.54,190.84,150.34Z"/><path class="cls-8" d="M180.9,114.51a2.45,2.45,0,0,0,0,.27,1.36,1.36,0,0,0,0,.2c-.09.93-.16,1.86-.22,2.79-.63,9.8,0,19.62-.27,29.43a33.37,33.37,0,0,1,0,4,5.29,5.29,0,0,1-.28,1.09c0,.1-.08.2-.12.3h0l-.43.12c-.66-13.3-.75-26.59-.16-39.89l.52.05a1.51,1.51,0,0,1,.21.23A3.44,3.44,0,0,1,180.9,114.51Z"/><path class="cls-40" d="M263.85,145.77a2.06,2.06,0,0,1-.68.27,16.77,16.77,0,0,0-2.13.28l-.21.06a4,4,0,0,0-1.79,1.19l-.06.05c-.77.63-1.47,1.49-2.4,1.61a2.26,2.26,0,0,1-1.54-.47l-1.31-1.87c.06-.2.13-.4.19-.6a.56.56,0,0,1,.05-.08,3.35,3.35,0,0,1,.49-.62.23.23,0,0,1,.07-.07,11.45,11.45,0,0,1,1.19-1,6.69,6.69,0,0,0,.87-.74,2.83,2.83,0,0,0,.43-.48,5.69,5.69,0,0,0,.7-1.55c.09-.25.17-.51.25-.77v0a3.19,3.19,0,0,1,.7-1.18l.07-.08,0,0,.09-.08a2.85,2.85,0,0,1,.33-.25,2.31,2.31,0,0,1,2.1,0h0a2,2,0,0,1,.43.31l.11.1h.91c.39.92.79,1.85,1.19,2.77-.25.57.07,1.16.23,1.74A1.27,1.27,0,0,1,263.85,145.77Z"/><path class="cls-41" d="M108.21,144.68a1.55,1.55,0,0,1-1,1,1.68,1.68,0,0,1-.32.09c-5.15,0-10.29,0-15.44-.07-1.54,0-3.37.65-4.45-1.18l0,0h.18C94.19,144,101.21,143.63,108.21,144.68Z"/><path class="cls-42" d="M64.94,148.37c0,1.42.87,3.54-1.94,3.5a1,1,0,0,1-.29-.33.42.42,0,0,1,0-.39.89.89,0,0,1,.14-.26c0-.08.1-.12.16-.12,1.61-1.48.94-3.43,1-5.18.08-9.3.06-18.6.08-27.9,1.61.81.92,2.31.93,3.5Q65,134.78,64.94,148.37Z"/><path class="cls-43" d="M259.88,83.71l-1.21-.47c-.06-2.68-2.33-1.44-3.58-2a3,3,0,0,1,0-.42,2.18,2.18,0,0,1,0-.25c.08-3.44,3.85-4,5.49-6.2a3,3,0,0,0,.31-.48l1.11-.14,0,0c.59,1.54,1,3.12,1.73,4.64C265.63,82.53,264.58,83.88,259.88,83.71Z"/><path class="cls-44" d="M216.88,123.64c0,9.71-.1,19.41-.17,29.12h-.85v-.13q.09-17.06.16-34.1C217.65,120,216.88,121.94,216.88,123.64Z"/><path class="cls-45" d="M201.89,49.89c-3.09,2.81-5.66,7.07-10.91,4h0a.59.59,0,0,0,0-.08c-.61-1.07.62-1.44.91-2.18a1.36,1.36,0,0,1,1.58-.81c1.71-.18,3.2-1.23,4.94-1.36h.54a2.17,2.17,0,0,0,.36,0,4.64,4.64,0,0,1,2.25.22l.09,0A1.68,1.68,0,0,1,201.89,49.89Z"/><path class="cls-46" d="M264.8,153.85c-1.42,0-2.86.15-3.95-1-1.43-1.36-3.46-1.76-4.92-3.07l-.89-1a2.39,2.39,0,0,0,1.06-.19c1-.41,1.73-1.4,2.75-1.79,1,.28,1.37-.61,2-1a2.58,2.58,0,0,1,2.31-.32,3.19,3.19,0,0,1,.68.32c0,.67,0,1.33,0,2l0,.28a9.77,9.77,0,0,1,.06,1.08,4.55,4.55,0,0,1,0,.52v0a2.68,2.68,0,0,0,1.11,3s0,0,0,0a.36.36,0,0,1,0,.1.22.22,0,0,1,0,.11A1.18,1.18,0,0,1,264.8,153.85Z"/><path class="cls-47" d="M250.87,64.87c0,1,0,2,0,3a3,3,0,0,1-2.17,1.07,3.94,3.94,0,0,0-1.24.41,1.77,1.77,0,0,0-.58.52c0,1.34,0,2.67,0,4a1.14,1.14,0,0,1-.74.16c-.56-.1-.93-.72-1.45-1a0,0,0,0,0,0,0,1.06,1.06,0,0,0-.25-.09c-.22-.26-.44-.53-.67-.79a5.73,5.73,0,0,1-.47-2.12l.21-.69c.05-.16.11-.33.17-.49l.09-.24a11.29,11.29,0,0,1,.5-1.18,11.57,11.57,0,0,1,2.08-3c.17-.19.36-.36.55-.54,1.86-2.54,2.29.72,3.44,1.07A.72.72,0,0,0,250.87,64.87Z"/><path class="cls-48" d="M244.24,67.45a8.15,8.15,0,0,1-.13,1.38L244,69a.53.53,0,0,1-.13.13,1,1,0,0,1-.39.25c-.81.34-1.91,0-2.55.71-.28,5.07,1,10.23-.92,15.19-.07-.48-.13-1-.2-1.45l0-.09a3.76,3.76,0,0,1-.24-3.32,3.82,3.82,0,0,1,.32-.54c0-1,0-2,0-3a1.3,1.3,0,0,1-.18-.23,3.54,3.54,0,0,1-.4-.58,6,6,0,0,1-.72-2.3c-.15-1.08-.14-2.2-.27-3.29a1.1,1.1,0,0,0,0-.18,1.85,1.85,0,0,1,0-.23,19.76,19.76,0,0,1,1.43-5c.18-.41.38-.81.6-1.21a.47.47,0,0,1,0-.1l.19-.18c.13-.12.26-.24.39-.34.84-.66,1.68-.85,2.56.44.09.21.17.41.24.62a6.83,6.83,0,0,1,.28.95A7.78,7.78,0,0,1,244.24,67.45Z"/><path class="cls-49" d="M52.87,124.44c-.54,1.36-1.76,1.49-2.91,1.33-5.52-.79-10.69,1.08-16,2a1.28,1.28,0,0,1-.39-.63,1.34,1.34,0,0,1,.38-1.26c1.79-1.37,4-1.41,6.05-1.94,3.86,1,7.87-.36,11.73.59l.53.15a.65.65,0,0,1,.37-.25A.75.75,0,0,1,52.87,124.44Z"/><path class="cls-50" d="M211.27,79.06c-.47.71-2,1-3,1-1.56-.09-1.31-1.58-1.39-2.67s-.11-2-1.06-2.6c1.24-2.41,1.81-5.35,5-6.24A18.57,18.57,0,0,1,209.08,72c-1.44,1.83-1.39,3.12.68,4.39C210.64,77,212.08,77.83,211.27,79.06Z"/><path class="cls-51" d="M205.91,31.85c-.87-1.88-1.86-3.73-2.56-5.67-.52-1.45-1.6-3.65,0-4.36,1.38-.6,4-.62,4.72,2C205.86,26.08,205.85,29,205.91,31.85Z"/><path class="cls-52" d="M260.86,73.87a2.78,2.78,0,0,1,0,.51c-.39,3.38-4.05,3.94-5.76,6.17l-.2.27c-.29.39-.6.4-.92,0a1.15,1.15,0,0,1-.17-.79c.36-1.07.73-2.14,1.09-3.22-.64-1.86,1.47-1.89,2-3a2,2,0,0,1,2-1l.24.12Z"/><path class="cls-53" d="M255.86,26.91a1.21,1.21,0,0,1-.21.28,2.3,2.3,0,0,1-1.07.39,1.45,1.45,0,0,0-.72.33c-3.13.31-2.78,4.79-6,5a4.27,4.27,0,0,0-.72,1.13,6.41,6.41,0,0,1-.72,1.31,2.14,2.14,0,0,1-.57.55H243c3.16-4.78,7-8.7,12.77-10.22Z"/><path class="cls-54" d="M76.85,152.64l.12.1c-2,.16-3.1-.57-3-2.75v-.14c0-1.16,0-2.32,0-3.48,0-.92,0-1.83,0-2.75,1.11-2.7,3.19-4.69,5-6.86a1.21,1.21,0,0,1,1,1c-1.52,2.45-3.37,4.77-4.48,7.39S74.26,150.57,76.85,152.64Z"/><path class="cls-28" d="M265.66,84.86c-1.63,1.45-3.88-.4-5.78-1.15,3.35-.7,5.59-1.95,2.76-5.65-1-1.33-.75-2.83-.69-4.31a37.4,37.4,0,0,1,2.84,5.61C265.36,81.15,267.23,83.46,265.66,84.86Z"/><path class="cls-55" d="M229.18,88.76c-1.37-5.58-3.27-11.12-1.5-17a1.06,1.06,0,0,1,1.27-.14l.11.06,0,0a2.86,2.86,0,0,1,.58,1.12,3.43,3.43,0,0,1,.13.85v.09a3,3,0,0,1-.32,1.17,3.91,3.91,0,0,1-.61.87c-1.93,2.54,0,5,.34,7.38C229.53,85.13,230.46,86.91,229.18,88.76Z"/><path class="cls-50" d="M206.94,84c-1.17,1-2.63,2-4,1.08-1.65-1.09-.14-2.75.19-4a45.87,45.87,0,0,1,2.69-6.27C206.49,77.83,203.89,81.23,206.94,84Z"/><path class="cls-56" d="M277,55.46a31.58,31.58,0,0,1-10,3.66l-.42-.4,0,0a.76.76,0,0,1,0-.15,1.31,1.31,0,0,1,0-.44l0-.18a1.63,1.63,0,0,1,.16-.47,3.18,3.18,0,0,1,.89-.9,3.6,3.6,0,0,1,.54-.31l.17,0h0a10.63,10.63,0,0,1,1.23-.33c.42-.1.84-.19,1.25-.31a7.87,7.87,0,0,0,.81-.3,10.9,10.9,0,0,0,2-1.08h0a1.37,1.37,0,0,0,.15-.21c.52-.81-.1-1.58-.23-2.38a1.09,1.09,0,0,1,.07-.42.66.66,0,0,1,.09-.19,1.09,1.09,0,0,1,.43-.35c.9.37,1.79.75,2.7,1.1C279.76,52.81,279.61,54.09,277,55.46Z"/><path class="cls-57" d="M260.3,36.1l-1.25.87a21.88,21.88,0,0,0-2.92.29,2.35,2.35,0,0,1-2.74-1.58c-.86-1.72,1.06-1,1.61-1.55.95-.94.83-2.08.86-3.22a11.63,11.63,0,0,1,.85-1,.36.36,0,0,1,.15-.1,1,1,0,0,1,1,.09C256.87,32.68,258.14,34.56,260.3,36.1Z"/><path class="cls-58" d="M235.52,119.21a2,2,0,0,1,0,.54.34.34,0,0,1,0,.1c-.25.6-.58,1.07-1.19,1.06a1.44,1.44,0,0,1-.47-.09l-2.18-.95-.92-1.69c0-1-.95-1.65-1-2.59a1.43,1.43,0,0,1,.15-.78c3.58-2.19,3.73,1.34,5,3a2.38,2.38,0,0,1,.55.9A2.1,2.1,0,0,1,235.52,119.21Z"/><path class="cls-59" d="M285,152.86l-.84.22c-6.39,1.72-12.82,2.85-19.4.77,0-.33.05-.66.08-1v-.06a.86.86,0,0,1,.13-.14,2.64,2.64,0,0,1,1.8-.74h.24a6.78,6.78,0,0,1,1.28.15,6.91,6.91,0,0,0,.76.17l.14,0a14.51,14.51,0,0,0,2,.22h.09c1.25,0,2.5,0,3.75-.07l.51,0,.48-.05a19.2,19.2,0,0,0,2-.46l.51-.11.71-.11h0a6,6,0,0,1,3.85.49,4.21,4.21,0,0,1,.52.34,2.07,2.07,0,0,1,.25.19Z"/><path class="cls-60" d="M264,29.29V23.41c-2.59-.11-4.79,2-7.45,1.39a12.4,12.4,0,0,1,2.11-1.15c2.42-.78,5.4-3.32,7.21-1.33C267.42,24,265.05,27,264,29.29Z"/><path class="cls-61" d="M228.1,26.86A23.52,23.52,0,0,1,228.16,13,27.09,27.09,0,0,1,228.1,26.86Z"/><path class="cls-62" d="M98.36,128c-1.82,2.6-3.6,5.22-6.35,7-.18-3.82,2-6.23,4.95-8.14a1.74,1.74,0,0,1,.63.22A1.63,1.63,0,0,1,98.36,128Z"/><path class="cls-63" d="M226.87,47.69c0-.27,0-.55,0-.82a2.61,2.61,0,0,1-.27-.44c-.83-1.7.2-3.69-.63-5.39a1.09,1.09,0,0,0-.08-.15,3.23,3.23,0,0,1,0-4l0,0c.24-.37.48-.35.74,0C228.4,40.46,231.84,44,226.87,47.69Z"/><path class="cls-64" d="M254.89,143.78a2.78,2.78,0,0,1,0,.58,5.26,5.26,0,0,1-.32,1.16,1.17,1.17,0,0,0-.05.11,9.85,9.85,0,0,1-.48,1h0l-.27.27c-3.25-5.76-1.84-12-1.87-18.09h1l.05.07a6.31,6.31,0,0,1,.4.65c1.9,3.39.59,7.2,1,10.79h0a9.08,9.08,0,0,0,.29,1.54,1.09,1.09,0,0,1,.05.17,7.09,7.09,0,0,1,.26,1.46C254.89,143.58,254.89,143.69,254.89,143.78Z"/><path class="cls-65" d="M120.18,89.24a1,1,0,0,1-.24.6c-4.85,1.71-1.62,6.2-3.13,9-3.09-5-2.43-7.3,3-10.44A.94.94,0,0,1,120.18,89.24Z"/><path class="cls-66" d="M230.73,118.18c-4.3-3.85-9-2-13.73-1.08l-.12-1.29.12-.1a.59.59,0,0,1,.39-.17.7.7,0,0,1,.5.26l2-1a11,11,0,0,1,7,0h3l.33.7A4.19,4.19,0,0,1,230.73,118.18Z"/><path class="cls-67" d="M138.88,127.94a12.42,12.42,0,0,1-1.81-12.1,2.18,2.18,0,0,1,.74,1.1,18.22,18.22,0,0,1,.13,2.87Q138.42,123.88,138.88,127.94Z"/><path class="cls-68" d="M250.27,59.39l-.09.24,0,.09a1.46,1.46,0,0,0-.07.19.14.14,0,0,0,0,.06s0,0,0,0c-2.61.78-4.55-2.51-7.25-1.2l2.08-1.93c2.15.09,2.23-2.56,4-3a2.15,2.15,0,0,1,0,3,2.08,2.08,0,0,0,1,2Z"/><path class="cls-69" d="M62.86,112.8c-2.81-2.22-7.08-2.3-8.87-6C58.11,107.07,61,109.25,62.86,112.8Z"/><path class="cls-70" d="M171.68,143.74l-1.45,3.15a.83.83,0,0,1-1.07.11,1.17,1.17,0,0,1-.27-.24c.62-4,1.68-8,0-12a.75.75,0,0,1,.48-.41c.21-.06.43.07.65.36,1.25.5,1.42,1.42,1,2.57C171.82,139.39,171,141.64,171.68,143.74Z"/><path class="cls-71" d="M107.93,153.68c-.29-.28-.59-.55-.89-.82l-.14-.13c0-2.31,0-4.61,0-6.91l.26-.23,1-.91C109,147.7,109.57,150.72,107.93,153.68Z"/><path class="cls-30" d="M236.55,8c-.21.3-.44.59-.68.88-1,.26-2.26,1.58-2.81-.29-.34-1.13-.8-3.15,1-3.26,2.23-.13,1.72-1.47,1.91-2.66,1,.36,1,1.16,1,2A3,3,0,0,1,236.55,8Z"/><path class="cls-72" d="M19.1,143.92c-.45,1.45-.82,2.64-1.18,3.83a7.86,7.86,0,0,0-1.15-1.69h0a9.46,9.46,0,0,0-2.84-2.1,4.94,4.94,0,0,1-3-4.59c0-.18,0-.38,0-.58h.84C12.85,142.39,15.26,144.13,19.1,143.92Z"/><path class="cls-14" d="M220.32,46.54a.57.57,0,0,1,0,.13,1.5,1.5,0,0,1,0,.22c-.23,2.77-1.81,3.86-4.49,3.6l-.35,0-.25-.12c-1.21-.6-2.12-1.35-1.66-2.76a3.33,3.33,0,0,1,.24-.57l.25-.3c1.1-1,2.72.74,3.73-.71l.22-.22.05,0C219.09,45.11,219.8,45.54,220.32,46.54Z"/><path class="cls-73" d="M55.07,153.8a24.59,24.59,0,0,1-16.2,0L54,153.75c.31-.29.6-.36.89-.16A.9.9,0,0,1,55.07,153.8Z"/><path class="cls-50" d="M219.84,76.85c-2.25,2.27-4.43,4.66-7.94,4.89A8.28,8.28,0,0,1,219.84,76.85Z"/><path class="cls-74" d="M209.88,110c-.22,3.1-2.3-.9-2.94.64a1.31,1.31,0,0,0-.05.15l-2,1-.71-1.39c-.43-.83-.86-1.66-1.28-2.5A7.49,7.49,0,0,1,209.88,110Z"/><path class="cls-75" d="M158.83,138.06l-7-3.1C155.25,133.56,157.9,133.86,158.83,138.06Z"/><path class="cls-76" d="M126,98.94a1.07,1.07,0,0,1-.32-.32.47.47,0,0,1,0-.4.85.85,0,0,1,.1-.19c.06-.13.13-.19.21-.19,1.66-3.66,1.75-6.74-3-8a2.5,2.5,0,0,1,0-.77c.11-.55.53-.72,1.38-.36C128.9,91.39,129.49,95.1,126,98.94Z"/><path class="cls-77" d="M108.1,115.17a8.69,8.69,0,0,1-3.15,4.64,1.92,1.92,0,0,1-1.08-.7l-.12-.23a1.91,1.91,0,0,1-.16-.51,5.46,5.46,0,0,1,1-2.47l.08-.13a3.92,3.92,0,0,0,.45-.72c.89-1.87.29-4.18,1.11-6.07a4,4,0,0,1,.73-1.13l1-.06.07.19A14.13,14.13,0,0,1,108.1,115.17Z"/><path class="cls-78" d="M243.9,48.47c-5.26-1.85-5.83-3.46-3.14-8.85.78,2.53-1.64,6.43,3.11,7.27,0,.21,0,.42,0,.63S243.89,48.16,243.9,48.47Z"/><path class="cls-79" d="M267,59.12a30.58,30.58,0,0,1-11.11,1.58h0a1.44,1.44,0,0,1-.48-.77,1.28,1.28,0,0,1-.06-.34v0a1.87,1.87,0,0,1,.2-.53,1.4,1.4,0,0,1,.1-.16,1.79,1.79,0,0,1,.37-.41,4.23,4.23,0,0,1,.68-.24,4.29,4.29,0,0,1,.6-.13h.09c1.77-.06,3.53-.35,5.3-.43a9.14,9.14,0,0,1,2.47.2,3.8,3.8,0,0,1,1,.39,5.54,5.54,0,0,1,.66.45Z"/><path class="cls-2" d="M156.94,145.78c-3.45,1.08-6.95,2.7-10-.86,3,1.94,6-.5,9,0a1.62,1.62,0,0,1,.77.5A1.4,1.4,0,0,1,156.94,145.78Z"/><path class="cls-80" d="M30.28,129.39a.79.79,0,0,1-.19.35l-.1,0-4,7a1.27,1.27,0,0,1-.33-.24,1.63,1.63,0,0,1-.52-.77c.05-3.41,2.26-5.39,4.77-7.17a.89.89,0,0,1,.36.44A.5.5,0,0,1,30.28,129.39Z"/><path class="cls-81" d="M52.29,124.71a25.7,25.7,0,0,0-3,0c-1.66.08-3.33.23-5,.16A12,12,0,0,1,40,124c4,.28,8.16-2.3,12,.56A2,2,0,0,1,52.29,124.71Z"/><path class="cls-82" d="M157.87,154.61a62.28,62.28,0,0,1-13,0c-.21-.17-.29-.34-.22-.51l0-.09c.06-.11.12-.17.18-.17C149.23,154.16,153.65,152.73,157.87,154.61Z"/><path class="cls-83" d="M158.94,126.73c-3,2-5-.14-7-1.88a1.53,1.53,0,0,1,.18-.18.68.68,0,0,1,1,.09A9.22,9.22,0,0,1,158.94,126.73Z"/><path class="cls-84" d="M258.67,83.24c-1.62-.7-3.54-.83-4.73-2.39.31,0,.62,0,.92,0l.21,0,6.06-.67C261.66,82.43,258.75,81.67,258.67,83.24Z"/><path class="cls-85" d="M127.75,108.79c-.93-.32-1.86-.62-2.79-.93l0,0a5.14,5.14,0,0,1-6.3.44c-.21-.13-.43-.27-.64-.42l-1-1c2.92-.08,5.84-.12,8.76-.24C127.34,106.5,128.23,107,127.75,108.79Z"/><path class="cls-86" d="M27,145.74a1.39,1.39,0,0,1-.85,0c-2.09-3.14-1.14-6.58-1-9.95.18.22.36.44.55.65l.3.36a19.73,19.73,0,0,0,1,8C27.27,145.34,27.22,145.63,27,145.74Z"/><path class="cls-87" d="M260.15,46.72A6.65,6.65,0,0,1,260,47.9a4.23,4.23,0,0,1-.18.7c0,.12-.09.24-.14.36-.72,1.25-1.62,1.78-2.72,1.48a3.54,3.54,0,0,1-1.13-.55c-1.11-.66-.1-1.31,0-2a.85.85,0,0,1,0-.17c.14-.38.52-.58.78-.86l.12-.15A2.84,2.84,0,0,1,260.15,46.72Z"/><path class="cls-88" d="M145.91,144.84c-2.38,2-4.68,0-7-.13,0-1.44.44-2.28,2.06-1.69Z"/><path class="cls-73" d="M161.87,106a18,18,0,0,1-11.9,0A55.69,55.69,0,0,1,161.87,106Z"/><path class="cls-89" d="M51.93,106c-3.89,1.72-8,.44-12,.8a1,1,0,0,1-.18-.19.38.38,0,0,1,0-.34.49.49,0,0,1,.17-.24l0,0A47.79,47.79,0,0,1,51.93,106Z"/><path class="cls-90" d="M156.94,145.78l-.35-.29-.66-.54c2.93-.51,3.3-2.95,3.93-5.18C162.24,143.4,160,144.8,156.94,145.78Z"/><path class="cls-91" d="M127.76,152.77c-3.37,2.78-7.22.72-10.83,1.06l1-1.11a5.86,5.86,0,0,1,.69-.49c1.82-1.08,3.9-.84,5.94-.78h.09a4.26,4.26,0,0,1,.62.13A6.82,6.82,0,0,1,127.76,152.77Z"/><path class="cls-69" d="M37.28,116c-2.44.29-5,3.92-7.31-.14,1.9-1.07,4.25.68,6.05-1l.16.14c.22.16.48.28.7.45A1,1,0,0,1,37.28,116Z"/><path class="cls-92" d="M229.1,71.75l-.22.11-1.2-.08L227,70c-.14-1.76,1.19-2.65,2.41-3.18.48-.2.43,1.29.52,2a2.48,2.48,0,0,1,.25.43C230.7,70.42,230.18,71.17,229.1,71.75Z"/><path class="cls-93" d="M268.91,48.84l-.14.14,0,.06c-.12.11-.23.23-.34.35-2.12.93-4.15.11-6.21-.25-.26,0-.53-.08-.79-.1l-.51,0a3.5,3.5,0,0,1-1-.4,6.11,6.11,0,0,1-1-.71l1.28-1.17C263.24,46.71,266.31,46.82,268.91,48.84Z"/><path class="cls-94" d="M218.76,28.92l-4.88,2a1.57,1.57,0,0,1-.43-1.58,3.47,3.47,0,0,1,.74-1.15l.23-.27h0A2.65,2.65,0,0,1,216,26.64C217.11,27.18,218.41,27.48,218.76,28.92Z"/><path class="cls-95" d="M170.23,146.89a7.47,7.47,0,0,1-4.32,4.7c-.28-.14-.41-.28-.4-.42a.22.22,0,0,1,0-.13q.18-.27.36-.27c.79-1.49,1.21-3.25,3-4l.38,0Z"/><path class="cls-51" d="M207.81,35.11l-.24-.4v0l-1.65-2.8c.61-.87,1.22-1.74,2.07-3C209.59,31.33,207.25,33.2,207.81,35.11Z"/><path class="cls-96" d="M28.89,149.82a6,6,0,0,1-2.77-4.07l.53-.57c.12-.14.24-.28.37-.41C27.7,146.43,30.75,147.22,28.89,149.82Z"/><path class="cls-97" d="M83,132.81c-.26,2.11-1.71,3.5-3,5-.16-.16-.32-.33-.49-.49l-.52-.53c1-1.33,2-2.65,3-4,.28-.34.56-.39.82-.19A1.14,1.14,0,0,1,83,132.81Z"/><path class="cls-98" d="M50,115.66l-1,0c-2.44-.9-5.07.24-7.51-.61a4.52,4.52,0,0,1-.47-.18h0C44.11,113.71,47.26,112.3,50,115.66Z"/><path class="cls-99" d="M161.3,115.25a.14.14,0,0,1,0,.1c-.12.17-.23.26-.35.26l-6.74-.65c2.2-2.29,4.46-1.38,6.73-.11C161.18,115,161.31,115.11,161.3,115.25Z"/><path class="cls-100" d="M17.12,149.79l-.39,3.93a5.81,5.81,0,0,1-4.89.12l-.44,0-.38-.21a5.41,5.41,0,0,1,1.24-.58,12.69,12.69,0,0,0,3.61-1.41A3.53,3.53,0,0,0,17.12,149.79Z"/><path class="cls-101" d="M138.83,152.84h0v.08c-3.16-.26-4-1.52-1.83-4.15A5.17,5.17,0,0,1,138.83,152.84Z"/><path class="cls-27" d="M126,98.94c-2.11,3.27-4.79,2.22-7.49,1,2.58,0,5.17,0,7.24-1.9l.21-.19c0,.15,0,.3,0,.44S126,98.72,126,98.94Z"/><path class="cls-102" d="M165.91,150.77v.82c-1.53,1-3,2.27-5,2.08C161.55,150.92,163.75,150.88,165.91,150.77Z"/><path class="cls-89" d="M40,106v.79c-2.2,1.93-4.81.72-7.23,1,2.12-1.71,4.9-.68,7.18-1.72Z"/><path class="cls-103" d="M101.06,123.83c0,1.94-1.53,2.94-2.7,4.15l-.93-.78-.47-.4,1-2,.56-.53h0A2,2,0,0,1,101.06,123.83Z"/><path class="cls-62" d="M102.34,123l-1.28.85-2.5.8-.6.19c0-.34,0-.68,0-1a2.87,2.87,0,0,1-.49-1,1.58,1.58,0,0,1,.42-1.66c1-.84,1.86-.36,2.73.18.2.13.41.26.61.37a1.06,1.06,0,0,0,.2.12A3.34,3.34,0,0,1,102.34,123Z"/><path class="cls-30" d="M226.63,36.91l-.73,0h0c-3.93,1.36-2.17-2.06-2.87-3.42C225.07,33.72,225.85,35.32,226.63,36.91Z"/><path class="cls-104" d="M87.22,144.54h0l-.21,0c-.88.07-2.13.52-2.26-.47A3.79,3.79,0,0,1,87,139.78a1.72,1.72,0,0,1,.37.65A1.88,1.88,0,0,1,87,142c-.36.86-.83,1.73.14,2.5A.05.05,0,0,1,87.22,144.54Z"/><path class="cls-105" d="M216,26.64l-1.12,1.27c-.24.3-.47.38-.7.27l-.06,0a1,1,0,0,1-.24-.23l-2-2a1,1,0,0,1-.36-.34.33.33,0,0,1,0-.29c.12-.21.23-.32.34-.32C213.64,24.57,214.74,25.81,216,26.64Z"/><path class="cls-7" d="M49,115.62l-8,0c-.23-.15-.33-.29-.33-.42a.28.28,0,0,1,0-.15c.11-.18.21-.27.32-.27h0c1.95.15,4-.47,5.92-.08A4.94,4.94,0,0,1,49,115.62Z"/><path class="cls-106" d="M83,132.81h-.37l-.67,0q1.49-2,3-4C87,131.42,84,131.62,83,132.81Z"/><path class="cls-107" d="M108.1,115.17q-.1-3.56-.19-7.11c0-.09,0-.18,0-.27a4.7,4.7,0,0,0,0-.92C109.62,109.61,109.25,112.38,108.1,115.17Z"/><path class="cls-108" d="M34,127c0,.27,0,.53,0,.8-1.31.64-2.6,1.3-3.9,1.94l-.1,0c0-.14,0-.29,0-.43s0-.48,0-.73c.78-1.75,2.53-2.07,4-2.72C34,126.27,34,126.64,34,127Z"/><path class="cls-109" d="M92,120.81c0,.47,0,.94,0,1.4v.59c-1.35.53-2.16,2.11-3.85,2a8.88,8.88,0,0,1,2.84-4c.27-.34.55-.4.82-.19A.75.75,0,0,1,92,120.81Z"/><path class="cls-110" d="M105,119.81,102.34,123l-1.45-.19a3.79,3.79,0,0,1-.28-1.52c.08-1.55,1.64-1.94,3.14-2.39l.24-.07Z"/><path class="cls-111" d="M10,153.59a10.05,10.05,0,0,1-5.09-2.79,4.68,4.68,0,0,1,1.38-.32A3.07,3.07,0,0,1,9.11,152,10.14,10.14,0,0,1,10,153.59Z"/><path class="cls-56" d="M274.12,50.59l-.31.35a1.8,1.8,0,0,1-.21.19,3.23,3.23,0,0,1-2.3.78,6.86,6.86,0,0,1-1.09-.12,3.75,3.75,0,0,1-.47-.17,2.45,2.45,0,0,1-1.28-1.22,1.42,1.42,0,0,1,0-.2,1,1,0,0,1,0-.3,1.45,1.45,0,0,1,.3-.86.35.35,0,0,1,0-.08l.14-.12A7.53,7.53,0,0,1,274.12,50.59Z"/><path class="cls-112" d="M166.86,115.66c-2,2.47-4-.25-6,0,0-.16,0-.32,0-.48a2.62,2.62,0,0,0,0-.28C162.9,115.05,165.05,114.12,166.86,115.66Z"/><path class="cls-26" d="M144.92,153.8v.77a14.2,14.2,0,0,1-6.09-1.7l-.05,0h.05C140.89,153,143.13,151.93,144.92,153.8Z"/><path class="cls-101" d="M63,151.87c-1,1.39-2.65,1.27-4.06,1.69a1.39,1.39,0,0,1-.8-.52,1.1,1.1,0,0,1-.2-.31c1.29-1.48,3.41-.79,4.87-1.84l.16-.12c0,.21,0,.41,0,.61S63,151.71,63,151.87Z"/><path class="cls-113" d="M255.89,60.7h0c-1.21.53-2.74-.18-3.77,1-1.14,0-1.65-.82-2.07-1.7l-.1,0,.14-.06.22-.1.35-.15h0a8.82,8.82,0,0,1,1.66-.57l.33-.07a3.55,3.55,0,0,1,2.18.28,2.65,2.65,0,0,1,.51.29,4.43,4.43,0,0,1,.45.34h0C255.82,60.19,255.85,60.44,255.89,60.7Z"/><path class="cls-114" d="M124.33,88.68l-.72.6-.65.53-3,0c0-.16,0-.33,0-.49s0-.6-.08-.9A3.46,3.46,0,0,1,124.33,88.68Z"/><path class="cls-115" d="M228.65,11.86c.21-1.37-.06-2.85.94-4a.82.82,0,0,1,1-.16,1.12,1.12,0,0,1,.32.27C230.93,9.69,230.73,11.31,228.65,11.86Z"/><path class="cls-116" d="M230.88,7.93l-.45,0-.84-.07c.73-1.66,1.44-3.33,2.17-5a0,0,0,0,1,0,0h0C231.7,4.56,232.53,6.47,230.88,7.93Z"/><path class="cls-117" d="M260.85,152.81a7,7,0,0,1-4.92-3.07,17.4,17.4,0,0,1,1.69.45,5.64,5.64,0,0,1,2.33,1.32A4.62,4.62,0,0,1,260.85,152.81Z"/><path class="cls-93" d="M256.81,46.74l-.12.15-.73.91-.09.12c-1.67-.31-3.64.74-5-1.12Z"/><path class="cls-118" d="M240.44,62.84a2.81,2.81,0,0,1,0,.58,1.94,1.94,0,0,1-.07.33l0,.1a3.17,3.17,0,0,1-.6,1.21c-.63.75-1.54.65-2.63,0h0l-.24-.16-.63-.86h0l-.27-.37c1.89.61,3-.28,3.73-1.93l.3.26.28.25A2.24,2.24,0,0,1,240.44,62.84Z"/><path class="cls-119" d="M228.82,62.87l-1.91-2-.22-.46c-.26-.56-.52-1.11-.79-1.67C228.42,59,229.2,60.54,228.82,62.87Z"/><path class="cls-120" d="M244.15,69.52l0,.09c-.08.16-.15.25-.23.25,0,.77-.09,1.54-.14,2.31l-2.81-2.1c.52-1.33,1.65-1.18,2.72-1.2h.22L244,69A.49.49,0,0,1,244.15,69.52Z"/><path class="cls-121" d="M199.26,49.42a.32.32,0,0,1,0,.16.83.83,0,0,1-.12.17.31.31,0,0,1-.22.13c-1.83.2-3.51,1.37-5.46.89a7.51,7.51,0,0,1,4.34-1.94l1.15.11h0C199.15,49.1,199.26,49.26,199.26,49.42Z"/><path class="cls-122" d="M171.68,143.74a4.7,4.7,0,0,1-.83-2.88v0c0-1.16.24-2.35.17-3.51C172.73,139.3,171.76,141.56,171.68,143.74Z"/><path class="cls-123" d="M247.87,76.79A8.4,8.4,0,0,1,244.41,73l.25.09a0,0,0,0,1,0,0l1.31.48.88.33C247.2,74.84,247.53,75.81,247.87,76.79Z"/><path class="cls-52" d="M252.82,79.64c-2.07.13-3.14-1.35-4.33-2.65C250.65,76.7,251.78,78.09,252.82,79.64Z"/><path class="cls-34" d="M238.16,8.68v0h0l-2.27.22c.09-.33.17-.66.26-1,.27-1.07.55-2.13.82-3.2,2,.82.78,2.64,1.2,3.95Z"/><path class="cls-124" d="M236,96c-1.14,1.32-2.29,3.83-3.37,0C233.7,96.19,234.84,94.67,236,96Z"/><path class="cls-125" d="M167.07,131.62v.12l-.06,0c-1.15-.83-3.59-.32-3-2.93C165.07,129.64,167.1,129.55,167.07,131.62Z"/><path class="cls-81" d="M170,134.74l-.54,0-.59,0L167,131.7l0-.08h.11C169.16,131.58,169.92,132.84,170,134.74Z"/><path class="cls-126" d="M211.88,25.58v.34c-1.11.57-2.41.88-3-.34-.44-.85.83-.53,1.3-.79l1.73.18C211.87,25.18,211.87,25.38,211.88,25.58Z"/><path class="cls-7" d="M16.73,153.72c-1.59,1.86-3.24,1.16-4.89.12Z"/><path class="cls-73" d="M153.05,124.76l-.73.06-.42,0a3.06,3.06,0,0,1-3-2.17A6.56,6.56,0,0,1,153.05,124.76Z"/><path class="cls-2" d="M89.08,138.82A3.47,3.47,0,0,1,87,142c0-.4,0-.8,0-1.2s0-.68,0-1A2.13,2.13,0,0,1,89.08,138.82Z"/><path class="cls-127" d="M226.94,70a6.17,6.17,0,0,1-3,3C223.92,71,224.86,69.92,226.94,70Z"/><path class="cls-65" d="M92,120.81h-1l2.24-2.94C94.61,119.59,93,120.09,92,120.81Z"/><path class="cls-128" d="M234.92,62.84a6,6,0,0,1-3.88,1C232.12,62.63,233.17,61.34,234.92,62.84Z"/><path class="cls-118" d="M242.85,59.87c0,.14-.09.27-.13.4A2.21,2.21,0,0,1,240,62l-.3-.23a3,3,0,0,1,3.11-2.95v0Z"/><path class="cls-102" d="M127.76,151.74v1l-2.84,0a2.2,2.2,0,0,1-.22-1.28,2.3,2.3,0,0,1,.83-1.35,4.62,4.62,0,0,1,.41-.34Z"/><path class="cls-129" d="M191.84,51.58l-.78,2-.09.23h0a2.65,2.65,0,0,0-.06.69c-.74-.28-1.8-.53-1.51-1.51S190.87,51.83,191.84,51.58Z"/><path class="cls-116" d="M235.13.83l-3.36,2h0l-.06,0C232.43,1.5,232.22-1.44,235.13.83Z"/><path class="cls-122" d="M58.94,153.56l-3.87.24-.76,0-.36,0c1-1.4,2.61-.87,4-1l.32.27Z"/><path class="cls-130" d="M41,114.8v0c0,.11,0,.21,0,.32s0,.33,0,.49l-3.68.32-.54-.48-.56-.49-.16-.14Z"/><path class="cls-131" d="M54.4,137.46q-.12.33-.24.33v-1A.62.62,0,0,1,54.4,137.46Z"/><ellipse class="cls-132" cx="48.46" cy="131.26" rx="4.88" ry="0.32"/><path class="cls-133" d="M55.9,141.79c-1.74-1-.22-3.15-1.74-4v-1C57.08,137.6,55.65,139.85,55.9,141.79Z"/><path class="cls-134" d="M104,118.82c-.53,1.71-3.1,1.84-3.1,4-1.32-.66-3.21-3-2.94,1l-1-1c-.59-1.72-1.47-3.16-.17-5.25,1.66-2.67,2.36.92,3.53.17.53-.33,1.09-.61,1.64-.91.43-1.35,1.27-2.37,2.76-1.94.89.26.83,1.2.23,1.94Z"/><path class="cls-135" d="M233.83,120.83l1-1c.79-1,2.11-1.16,3-2a2.31,2.31,0,0,1,.74,3.11c-5.23,9.34-4.79,19-1.93,28.86a13.87,13.87,0,0,1,.19,3c-1.56-.13-3.38.37-3.33-2.35C233.72,140.54,233.74,130.68,233.83,120.83Z"/><path class="cls-136" d="M217.89,115.8l-1,0h-1c-1,.24-2,2.3-3,0v-1c.94-.82.76-2.39,2-3h3C217.88,113.15,217.88,114.47,217.89,115.8Z"/><path class="cls-36" d="M226.88,108.82c1.22.7-.71,2.45,1,3-.87,1.05-2,1.37-2.66.06C224.49,110.41,224.87,109.05,226.88,108.82Z"/><path class="cls-137" d="M226.86,114.8h-7c-.11-.57-.4-1.76,0-1.59C222.13,114.19,224.85,113,226.86,114.8Z"/><path class="cls-138" d="M221.88,107.82a2.13,2.13,0,0,1,2-1H229c-.56,1.38-1.48.84-2.14,1Z"/><path class="cls-139" d="M237.87,117.81a3,3,0,0,1-3,2c0-.66,0-1.32,0-2Z"/><path class="cls-140" d="M180,113.9l-.11-1c2.39-4.8,6.81-4.11,11-4.05l4,4v1c.35.22.46.44.34.66s-.23.32-.35.32c-1.38.16-2.95-.43-4,1l-2,1c-1.66-.15-3.43.49-4.94-.7-.66-1-.1-1.79.54-2.53a6.69,6.69,0,0,1,3-1.45c.14,0,1.15.11.34-.55-.2-.16-.62,0-1,.06a7.72,7.72,0,0,0-3.1.94c-.95.72-1.15,2.2-2.5,2.53C180.52,115.06,180.37,114.38,180,113.9Z"/><path class="cls-115" d="M180,113.9l.89.91a2.19,2.19,0,0,1,.7,1.15,2.13,2.13,0,0,1-.71,1.85c0,9.74,0,19.49,0,29.23,0,2.21,0,4.3,2,5.72l-2.92-.17Q180,133.24,180,113.9Z"/><path class="cls-141" d="M180.9,117.81c0-.67,0-1.33,0-2a2.14,2.14,0,0,1,3,0c1.69.25,3.6-.67,5,1a2.07,2.07,0,0,1-2,1,2.11,2.11,0,0,1-3,0Z"/><path class="cls-142" d="M183.9,117.81h3c-.09,1.72-1.21,2.21-2.63,1.91C183,119.45,183.76,118.51,183.9,117.81Z"/><path class="cls-143" d="M234.34,22.88c-2-2.92-1.66-5.08-.56-8.35C235.28,17.65,235,19.81,234.34,22.88Z"/><path class="cls-143" d="M235.92,29.67c-2.86-.39-3.36-1.82-3.31-3.57,0-.28.84-.88,1.07-.78C235.62,26.11,235,27.93,235.92,29.67Z"/><path class="cls-144" d="M238.87,14.93a15.71,15.71,0,0,1,0,12Z"/><path class="cls-145" d="M279.85,113.81c0-3.41,1.25-5.26,5.06-5,4.31.27,2.84,3.41,2.87,5.54.14,9.15.05,18.31.05,27.46a2.51,2.51,0,0,1-2.53.68c-1.12-.31-1.68-1.37-2.6-1.89-1.24.75-.63,2.39-1.61,3.23a1.14,1.14,0,0,1-1.24,0v-28c1.16-1.89,2.63-1.35,4.11-.5,1.29.74,1.37.32.79-.79-1.09-1.73-2.45-.8-3.75-.39A1,1,0,0,1,279.85,113.81Z"/><path class="cls-146" d="M277.86,152.8a2,2,0,0,1-2,.88c-1.56-2.12-2.15-4.38-1-6.89a6.81,6.81,0,0,0,4-1,4.67,4.67,0,0,0,2.24-.39,2.25,2.25,0,0,1,1.16.29c1.24,1.35,2.9,1.31,4.53,1.39a2.81,2.81,0,0,1,1.06.7c0,1.45.05,2.9-2,3A26.63,26.63,0,0,0,282,151,5.27,5.27,0,0,0,277.86,152.8Z"/><path class="cls-147" d="M274.85,146.79c-.19,2.37,1.76,4.44,1,6.89-2.66-.3-5.51,1-8-.91a4.08,4.08,0,0,1,3.66-.18c-1.43-.7-2.9-.13-4.26-.4a1.13,1.13,0,0,1-.78-1c.46-1.91,2.23-2.25,3.63-3,1.17-.65,2.62-.55,3.73-1.35Z"/><path class="cls-148" d="M281.85,145.78h-1a1.38,1.38,0,0,1,0-2,39.74,39.74,0,0,1,.09-4.37c.15-1.3.87-1.64,1.91-.62.73,1,.4,2.61,2,3h3v2a12.85,12.85,0,0,1-3.3,2.61A2.54,2.54,0,0,1,281.85,145.78Z"/><path class="cls-149" d="M285.84,113.81c.57,1.3,1.46,2.55.61,4.26-2.32-.34-3.62-4-6.6-2.26v-2h1A4.19,4.19,0,0,1,285.84,113.81Z"/><path class="cls-147" d="M277.86,152.8c.1-2.62,1.82-3.12,4-3,.58.77,1.67,1,2,2,0,.3,0,.61,0,.91Z"/><path class="cls-150" d="M273.83,146.79l-3,2c-1.45-.35-3,1.4-4.38-.13a1.66,1.66,0,0,1,.38-1.86Z"/><path class="cls-151" d="M280.85,143.78v2c-.15.72-.14,1.72-1.22,1.48-.35-.07-.53-1-.79-1.48a2.1,2.1,0,0,1,1-2Z"/><path class="cls-152" d="M284.85,145.77c.09-2,1.53-2,3-2v4h-1C286.27,147,285.18,146.77,284.85,145.77Z"/><path class="cls-153" d="M283.85,151.78a1.85,1.85,0,0,1-2-2c1.39.14,3-.46,4,1A2.1,2.1,0,0,1,283.85,151.78Z"/><path class="cls-40" d="M266.86,146.78v2a1.7,1.7,0,0,1-1.22,1.37,3.27,3.27,0,0,1-2.77-1.37l1-1Z"/><path class="cls-154" d="M207.9,152.74c-1.75-1.62-.94-3.74-1-5.63-.1-8.43-.05-16.87-.05-25.3,1.8-1.34-.36-2.67,0-4h0a4.5,4.5,0,0,1,5,0c4.2,9.73.86,19.86,1.8,29.77-2.36-8.92,1.61-18.73-3.74-27.25,1,7.61-.47,15.16,0,22.68C210.09,146.44,209,149.59,207.9,152.74Z"/><path class="cls-154" d="M212.88,115.81c1,1.16,2-.33,3,0-.75,1.82-2.28,2.09-4,2A2.07,2.07,0,0,1,212.88,115.81Z"/><path class="cls-155" d="M250.71,45.79l-2.85.1a6.69,6.69,0,0,1-3-2c.07-1.1.14-2.2.28-4.38C247.07,42.42,249.93,43,250.71,45.79Z"/><path class="cls-156" d="M257.86,29.91l-2,1a3,3,0,0,0-2-3,2.07,2.07,0,0,1,2-1C257.89,27,257.87,28.46,257.86,29.91Z"/><path class="cls-157" d="M245.86,35.91a3,3,0,0,1,2-3,5.84,5.84,0,0,0,1.52,4.4C247.17,38.51,247,36.31,245.86,35.91Z"/><path class="cls-158" d="M244.87,43.9a3,3,0,0,1,3,2c-.9.61-1.51,2.13-3,1C244.87,45.89,244.87,44.9,244.87,43.9Z"/><path class="cls-159" d="M238.87,76.86c-.51,3.5-3.25,1.13-4.69,1.4-2,.38-1-2.15-1.31-3.4l.46-.47c1.67-.93,3.63.31,5.31-.69A2.25,2.25,0,0,1,238.87,76.86Z"/><path class="cls-160" d="M228.88,75.86v-2c.69-.65,1.05-1.6,1.86-2.14,1-.67,2.16-.84,3,.11,1.25,1.36.23,2.26-.89,3h0A6.68,6.68,0,0,1,228.88,75.86Z"/><path class="cls-161" d="M238.86,81.85c-1.46-.68-4.21,1.9-4.35-.78-.12-2.19,2.84-.77,4.36-1.22A1.35,1.35,0,0,1,238.86,81.85Z"/><path class="cls-162" d="M234.06,89.75c-1.56-1.47-1.26-2.69-.71-4.5C235,86.61,235.19,87.82,234.06,89.75Z"/><path class="cls-163" d="M238.87,76.86c0-1.1.18-2.28-1-3-.49-1.54-1.81-3.28,1-4,1.38,2.18.94,4.62,1,7Z"/><path class="cls-164" d="M238.86,81.85v-2h1c0,1.32,0,2.63,0,4C238,83.89,238.45,82.85,238.86,81.85Z"/><path class="cls-165" d="M216.88,71.86c.14,1.78,1.57,4.44-2.3,3.5-.91-.22-2.12,2.19-2.63-.2-.46-2.19.44-3.54,2.94-3.3A1.34,1.34,0,0,1,216.88,71.86Z"/><path class="cls-166" d="M216.88,71.86h-2c.65-3,2.67-5.68,2-9,2.53-.26.29,2.67,2,3a2.11,2.11,0,0,1,0,3l-1,1A2,2,0,0,0,216.88,71.86Z"/><path class="cls-167" d="M215.88,49.89c1.66-.57,3.58-.78,4-3a.66.66,0,0,1,1,0v7h0c3.14-.41,3.51-.14,2.32,1.52a2.79,2.79,0,0,0-.32,3.48l-3,3c-1.63-.63-.16-5.36-4-3a13.26,13.26,0,0,0-8,0h-1a2.49,2.49,0,0,1-.53-2.74,19.75,19.75,0,0,1,5.93-4.94C213.43,50.6,214.85,50.8,215.88,49.89Z"/><path class="cls-155" d="M206.89,55.88v3c-3.21.91-5-3.22-8.65-1.67,2.68-3.73,4.67-4.9,6.65-4.3A4.22,4.22,0,0,1,206.89,55.88Z"/><path class="cls-168" d="M206.89,55.88a3,3,0,0,1-2-3q3-1.5,6-3c2.1-.76,2.78-.1,2,2C210.6,52.79,209.74,55.83,206.89,55.88Z"/><path class="cls-136" d="M212.89,51.89a1.85,1.85,0,0,0-2-2c.12-1.81,1-2.91,2.91-2.88a3.29,3.29,0,0,0,2.09,2.89C215.79,51.92,214.34,51.9,212.89,51.89Z"/><path class="cls-13" d="M218.88,68.87v-3a2,2,0,0,1,2,1c0,1,2.07,1.6,1,2.68C221,70.43,219.88,69.18,218.88,68.87Z"/><path class="cls-169" d="M207.9,58.87a7.5,7.5,0,0,1,8,0Z"/><path class="cls-170" d="M198.88,49.89l0-.94,7-.06a.58.58,0,0,1,.24.67q-.12.33-.24.33h-7Z"/><path class="cls-171" d="M205.89,49.89v-1c1-.34,1.87-1.27,3.39-.63C208.47,49.7,207.74,50.81,205.89,49.89Z"/><path class="cls-172" d="M256.86,58.88h-1a4,4,0,0,1-4,0l3-3a1.34,1.34,0,0,1,0-2,1.83,1.83,0,0,1,2-2,1.81,1.81,0,0,1,2-.39C261.89,55,258.06,56.56,256.86,58.88Z"/><path class="cls-173" d="M258.86,51.89h-2l-1-2c1.46,0,2.91,0,3-2l2,0c1.21.73,2,1.67,1.15,3.1C261.28,52.26,260.24,52.81,258.86,51.89Z"/><path class="cls-174" d="M254.86,53.88v2c-1-.2-2.68.49-2.57-1.25S253.79,53.47,254.86,53.88Z"/><path class="cls-28" d="M251.86,58.87l4,0c0,.35-.05.7-.07,1l-5.86,0c0-.36-.05-.73-.08-1.09Z"/><path class="cls-28" d="M248.87,56.88c0-1,0-2,0-3,1,.14,2,.39,1.81,1.73C250.54,56.65,249.67,56.75,248.87,56.88Z"/><path class="cls-175" d="M220.88,46.89h-1L218,45.78c-1-2.93-2.23-6,2.9-5.88l2,1c1,1.69,2,.87,3,0h0c4.1,1.37.78,4,1,6Z"/><path class="cls-176" d="M214.88,37.9c-2.18.19-1.68-2.31-3-3,2.15-1.56,4.19-3.92,7-1-.19,1.57.68,3.66-2,4A3.29,3.29,0,0,0,214.88,37.9Z"/><path class="cls-51" d="M213.89,27.91h1l-1,3c-1.1,1.34-2.14.76-2.5-.44C210.79,28.45,212.4,28.14,213.89,27.91Z"/><path class="cls-30" d="M225.87,40.9l-2,3.5c-1.56-1-.81-2.39-1-3.5Z"/><path class="cls-12" d="M238.87,69.87c-1.68,1,.24,2.88-1,4-1.12,3.06-3.47,0-5,1,.19-.87,1.4-1.85.21-2.59-1.91-1.18-2.44,1.94-4.2,1.59v-2c.33-1,.67-2,1-3l3-1c.43-.07.56-.3.37-.7-.09-.2-.22-.3-.36-.3.85-1.62,3.12-.38,4-2,1.48,0,2.91,0,3.08-2,.84-.18,1.28,0,.93,1A9.44,9.44,0,0,1,238.87,69.87Z"/><path class="cls-177" d="M232.88,66.87c1,.15,2,.37,1.78,1.71-.06.33-.6.57-.92.85l-.87-1.56C232.87,67.54,232.87,67.2,232.88,66.87Z"/><path class="cls-178" d="M246.87,69.86c.32-2.67,2.42-1.8,4-2C251.22,71.91,248.6,70,246.87,69.86Z"/><path class="cls-179" d="M256.86,73.86c.16,1.55-1.38,2-2,3C253.09,74.22,255.37,74.31,256.86,73.86Z"/><path class="cls-7" d="M125.94,149.77l-1,3-6.94,0q0-22.44,0-44.87h7c2.21,6.89.45,14,1,21a76.22,76.22,0,0,1,0,19Z"/><path class="cls-180" d="M214.9,111.82a3,3,0,0,1-2,3v-2C213.09,111.54,213.31,110.29,214.9,111.82Z"/><path class="cls-181" d="M194.89,114.79c0-.32,0-.65,0-1h3.88l.05.81Z"/><path class="cls-154" d="M206.89,117.81c-.94-.13-2-.1-2.24-1.31,0-.14.36-.51.58-.52,1.31-.11,1.53.83,1.66,1.83Z"/><path class="cls-107" d="M104.94,116.81c-1-3.07-2,.33-3,0-5.82-4-12.48-3.2-18.9-2.88-4.27.21-6.94-1-8.11-5.16,2-1.76,4.44-.86,6.66-.89,8.44-.11,16.87,0,25.31,0C106.34,110.86,108.54,114.47,104.94,116.81Z"/><path class="cls-102" d="M125.94,147.77v-19A38.2,38.2,0,0,1,125.94,147.77Z"/><path class="cls-8" d="M253.86,142.79c-2.07-4.54-.5-9.34-1-14l0-17c3.18-1.56,3.87.4,3.68,2.88-.15,2,.13,3.47,2.23,4.29s2.08,2.74,2,4.58c0,4.42.18,8.85-.13,13.26a2.83,2.83,0,0,1-.75,1.28c-1.24,1-3.17.63-4.2,2.09C255.1,141,254.81,142.16,253.86,142.79Z"/><path class="cls-182" d="M259.86,137.78c0-3.81.05-7.63,0-11.44-.06-3.07,1.28-6.73-4.34-6.82-2.76,0-.69-2.78-.33-3.93.78-2.47.81-3.91-2.29-3.77.2-6.31,5-3.22,8-3.95,1.05,9.75.25,19.53.41,29.29A.91.91,0,0,1,259.86,137.78Z"/><path class="cls-183" d="M260.86,137.78q0-15,0-29.91c1.93,2.33.88,5.08.93,7.62.15,7.42,0,14.86,0,22.29A.58.58,0,0,1,260.86,137.78Z"/><path class="cls-184" d="M260.86,137.78h1c0,.67,0,1.33,0,2h-3l-.4-.43a1.29,1.29,0,0,1,.4-1.56h2Z"/><path class="cls-185" d="M260,28.11c1.39,1.93.1,2.79-.43,4.59C258.68,30.65,258.53,29.46,260,28.11Z"/><path class="cls-18" d="M240.87,63.87l-.93-1a4.21,4.21,0,0,1,0-.94l2.87-2.09c2.58.15,1.92,2.74,3,4-1,2.8-2,1.35-3,0C242.2,62.76,241.54,63.79,240.87,63.87Z"/><path class="cls-186" d="M242.87,63.87c1,.27,2,1.59,3,0h1a11.21,11.21,0,0,1-3,6c0-.33,0-.66,0-1A8.21,8.21,0,0,1,242.87,63.87Z"/><path class="cls-187" d="M214.88,37.9c.15-.73.14-1.72,1.22-1.49.35.08.53,1,.79,1.49Q215.89,39.43,214.88,37.9Z"/><path class="cls-188" d="M192.9,107.82c2.44-2,5.26-.61,7.89-.92C198.46,109.79,195.64,108.52,192.9,107.82Z"/><path class="cls-189" d="M253.86,142.79c0-1.1-.17-2.29,1-3a1,1,0,0,1,1.1-.3,15,15,0,0,1,2.9,2.3,2.07,2.07,0,0,1-1,2c-1.33.88-2.65,1.1-4,0C253.87,143.45,253.86,143.12,253.86,142.79Z"/><path class="cls-190" d="M260.86,145.77c-.21,1.07.61,2.72-.6,3.1s-1.23-1.16-1.41-2.09C259.06,145.52,259.26,144.25,260.86,145.77Z"/><path class="cls-191" d="M253.88,143.78h4c-.71,1.74-2.37,2.17-3.87,2.84C254,145.67,253.92,144.73,253.88,143.78Z"/><path class="cls-192" d="M258.86,141.78c-1.46,0-2.91,0-3-2a2.1,2.1,0,0,1,3,0h0Z"/><path class="cls-193" d="M262.86,148.77l3,1c1-.36,1.26.08,1,1,0,.33,0,.67,0,1,.35.22.47.44.36.67s-.24.33-.35.33l-2,0C260.88,153.12,263.37,150.2,262.86,148.77Z"/><path class="cls-194" d="M258.86,51.89c2.74-.29,3.33-1.66,2-4L268.77,49c0,.31.07.62.08.93-2.3,1.53-1.33,2.89.22,4.23.36,1.25-.8,1.85-1.22,2.76l-1,1c-1.49,1.19-3.49-.23-5,1-1.68-.29-3.34,1.11-5,0C255.69,56,260.44,54.86,258.86,51.89Z"/><path class="cls-195" d="M268.85,54.88c-.83-1.52-4-.72-3.58-3.28.3-1.82,2.11-1.69,3.58-1.71l1,1c1.14,1.53,4.18,1.15,4,4a2.06,2.06,0,0,1-2,1C270.43,56.81,269.54,56.15,268.85,54.88Z"/><path class="cls-194" d="M273.85,54.88c-.11-2.55-4.94-.39-4-4l4,0C273.29,52.26,279.49,53.52,273.85,54.88Z"/><path class="cls-196" d="M268.85,54.88l3,1c-1.05,1.46-2.62.86-4,1C266.63,55.44,268.23,55.4,268.85,54.88Z"/><path class="cls-197" d="M261.88,58.86c1.4-1.65,3.3-.74,5-1a4.58,4.58,0,0,1-.08.83Z"/><path class="cls-198" d="M266.86,152.77c0-.33,0-.67,0-1h5.38c-1.61,1.58-3.1.73-4.38,1h-1Z"/><path class="cls-199" d="M186.9,110.82c1.93-1.55,3.5-.29,3.69,1.28.31,2.59-1.81.73-2.81,1l-2.88.72-.6-.26C182.52,110.12,186.41,112.09,186.9,110.82Z"/><path class="cls-8" d="M183.9,115.81h-3v-1c.66-1,1.32-2,2-3,.64.68,1.08,1.58,2,2h0C184.57,114.48,184.24,115.15,183.9,115.81Z"/><path class="cls-38" d="M184.9,113.81a1.82,1.82,0,0,1-2-2c1-1.47,2.62-.86,4-1C186.61,112.07,183.43,111.39,184.9,113.81Z"/><path class="cls-200" d="M285.84,113.81h-5Q283.34,109.81,285.84,113.81Z"/><path class="cls-201" d="M282.41,117.17c.29.36.88.79,1,1.33.17.73-.45,1.16-1.17,1.13A1.22,1.22,0,0,1,281,118.4C281,117.68,281.37,117.21,282.41,117.17Z"/><path class="cls-202" d="M284.85,141.78c-2.69.35-1.75-1.72-2-3C283.51,139.79,284.18,140.78,284.85,141.78Z"/><path class="cls-203" d="M284.85,145.77a1.82,1.82,0,0,1,2,2c-2,.27-4.42,1.4-5-2Z"/><path class="cls-46" d="M266.86,150.77c-.34-.33-.67-.67-1-1l1-1c1.34.36,2.67-1.8,4,0Z"/><path class="cls-204" d="M220.88,53.88c-.15,1-.38,2-1.71,1.77-.3,0-.82-.7-.75-.89.45-1.18,1.57-.75,2.46-.88Z"/><path class="cls-205" d="M258.86,139.78h-4c.33-2.67,2.43-1.8,4-2Z"/></g></g></svg>