<svg xmlns="http://www.w3.org/2000/svg" viewBox="0 0 315.4 122"><defs><style>.cls-1{fill:#fcfbfc;}.cls-2{fill:#222021;}.cls-3{fill:#211f1f;}.cls-4{fill:#231e1f;}.cls-5{fill:#221e1f;}.cls-6{fill:#2b1c08;}.cls-7{fill:#222020;}.cls-8{fill:#8ec148;}.cls-9{fill:#9abb39;}.cls-10{fill:#94be58;}.cls-11{fill:#98be4f;}.cls-12{fill:#e0ead2;}.cls-13{fill:#6f552f;}.cls-14{fill:#252020;}.cls-15{fill:#1c210e;}.cls-16{fill:#fefefe;}.cls-17{fill:#221f1f;}.cls-18{fill:#241f21;}.cls-19{fill:#252021;}.cls-20{fill:#fdfbfc;}.cls-21{fill:#241f20;}.cls-22{fill:#b8b3b5;}.cls-23{fill:#f5f4f5;}.cls-24{fill:#fbf9fa;}.cls-25{fill:#242222;}.cls-26{fill:#292627;}.cls-27{fill:#262425;}.cls-28{fill:#242122;}.cls-29{fill:#1e1b1c;}.cls-30{fill:#232121;}.cls-31{fill:#1f1c1d;}.cls-32{fill:#272425;}.cls-33{fill:#211f20;}.cls-34{fill:#65b443;}.cls-35{fill:#2d1f19;}.cls-36{fill:#201f1b;}.cls-37{fill:#203114;}.cls-38{fill:#232a1a;}.cls-39{fill:#1d1a1b;}.cls-40{fill:#191718;}.cls-41{fill:#2c4a24;}.cls-42{fill:#ebe9ea;}.cls-43{fill:#282526;}.cls-44{fill:#232122;}.cls-45{fill:#d2a55d;}.cls-46{fill:#dad7d4;}.cls-47{fill:#eda43b;}.cls-48{fill:#ee9a25;}.cls-49{fill:#d79232;}.cls-50{fill:#ed9b2f;}.cls-51{fill:#2f2111;}.cls-52{fill:#392610;}.cls-53{fill:#1d1f1b;}.cls-54{fill:#89c23d;}.cls-55{fill:#86c23e;}.cls-56{fill:#ccb042;}.cls-57{fill:#94b63c;}.cls-58{fill:#86bf3d;}.cls-59{fill:#8bc159;}.cls-60{fill:#86ae4b;}.cls-61{fill:#1a2214;}.cls-62{fill:#fcfafb;}.cls-63{fill:#1c1a1b;}.cls-64{fill:#625d5e;}.cls-65{fill:#edae41;}.cls-66{fill:#70ba41;}.cls-67{fill:#70af3f;}.cls-68{fill:#b69a44;}.cls-69{fill:#e7a749;}.cls-70{fill:#787b50;}.cls-71{fill:#7db453;}.cls-72{fill:#352415;}.cls-73{fill:#1e1f19;}.cls-74{fill:#29241c;}.cls-75{fill:#f1a12b;}.cls-76{fill:#f4a438;}.cls-77{fill:#f7a840;}.cls-78{fill:#f1a639;}.cls-79{fill:#7cbf42;}.cls-80{fill:#78c03e;}.cls-81{fill:#73be40;}.cls-82{fill:#dcb040;}.cls-83{fill:#83b53d;}.cls-84{fill:#f5ac37;}.cls-85{fill:#ccb240;}.cls-86{fill:#71bc44;}</style></defs><title>Asset 6</title><g id="Layer_2" data-name="Layer 2"><g id="Layer_1-2" data-name="Layer 1"><path class="cls-1" d="M177.79,122c-1.33-1.74-2.67-1.74-4,0,0-1.54.08-3.07,2.24-2.9C177.9,119.25,177.72,120.72,177.79,122Z"/><path class="cls-1" d="M142.66,117.18l-7.58-.32a.36.36,0,0,1,0-.1,6.07,6.07,0,0,1,1.31-.68s0,0,0,0a11.56,11.56,0,0,1,5.73-.15l.69.1c.37,0,.73.07,1.1.09h0q.35,0,.69.06a255.71,255.71,0,0,0,33.79,0s0,0,0,0h.33l.3,0c.58,0,1.16-.08,1.74-.13,0,0,0,0,0,0a0,0,0,0,1,0,0h0c1.53-.16,3.06-.37,4.6-.47a8,8,0,0,0,1.52-.29c.39-.08.78-.15,1.18-.21.58-.09,1.17-.17,1.74-.29a9.9,9.9,0,0,0,1.3-.33,12,12,0,0,1,1.33-.39L193,114a25.21,25.21,0,0,0,5.52-1.7,12.48,12.48,0,0,0,1.72-.93,20.79,20.79,0,0,1,1.93-1.14l.44-.23c.12-.09.23-.17.34-.27,3.88-3,6.61-7.13,10-10.66.24-.37.48-.74.7-1.12s.33-.58.48-.88c.66-1.24,1.22-2.53,1.79-3.81,0-.1.07-.19.11-.29s.15-.38.23-.57l.17-.39a12.8,12.8,0,0,0,.49-1.3,0,0,0,0,0,0,0c.16-.51.29-1,.4-1.57v0a31.52,31.52,0,0,0,.43-3.22c.43-2.32,1.93-4.21,2.48-6.5.49-2,.44-3.52-.63-4.31a3.84,3.84,0,0,0-2-.64c-.32,0-.67,0-1.06,0l-.94,0c-3.47.1-6.94.08-10.42,0l-4.08,0c-2,0-4.16.27-6-1,8.08-1,16.21-.16,24.31-.47,2.56-.09,3,1.32,2.85,3.5-.26,3.81-1.79,7.18-3.31,10.58a9.81,9.81,0,0,1-2,6.11,15.55,15.55,0,0,1-3,6.25c-3.12,4.42-5.95,9.12-11.12,11.58-.49.4-1,.8-1.48,1.19-2.79,2.07-6.07,2.64-9.41,3h0a5.14,5.14,0,0,1-4,1h0l-.87.21h0c-8.26,2-16.7,1.72-25.09,1.72C155.46,118,149,118.62,142.66,117.18Z"/><path class="cls-1" d="M222.84,84.21c0-.61-.16-1.42.77-1.43s1.48.45,2.28,2.23a16.17,16.17,0,0,1-1.59.53C223.19,85.82,222.89,85.09,222.84,84.21Z"/><path class="cls-2" d="M229.6,40.46a3.08,3.08,0,0,1-2.16,2.61c-1.38.14-2.76.24-4.15.31-2.88.15-5.76.18-8.65.16-2.47,0-4.95-.09-7.42-.18H207l-.52,0-1.89-.06-.65-.21-.13-.05-.21-.09c-1.6-.66-2.6-1.75-2-3.94.43-.82.83-1.64,1.17-2.46,0,0,0,0,0,0,.12-.31.25-.61.36-.93,0-.14.1-.29.14-.44a10.58,10.58,0,0,0,.52-2.62v0a8.38,8.38,0,0,0-2-6c-2.54-1.2-5.44-1.21-8-2.44a89.52,89.52,0,0,0-20.95-.12,23.76,23.76,0,0,1-5.67,1.4,13.46,13.46,0,0,0-1.72.22h0a13.28,13.28,0,0,0-1.93.48,13.68,13.68,0,0,0-2.19.92A16,16,0,0,0,156,31.52a7.43,7.43,0,0,1-.95,1.08l-1,.91h0a6.26,6.26,0,0,0-1.53,1.9.14.14,0,0,0,0,.06,2.88,2.88,0,0,0-.29,1.16h0a3.89,3.89,0,0,0,.09,1.05c0,.12.06.24.1.37a3.89,3.89,0,0,1-.1,1.32l-.6,1.07c-.29.53-.57,1.07-.83,1.62h0s0,0,0,.07a11.4,11.4,0,0,0-1.14,4.44h0a8.47,8.47,0,0,0,.3,2.45,29,29,0,0,1-.9,4.9c-.11.43-.23.87-.36,1.3,0,0,0,0,0,0-.68,2.37-1.45,4.72-1.91,7.14a2.29,2.29,0,0,1-1.85,2h-.09c-3.11-.44-4.34,1-4,4,.1.83.27,1.64.36,2.47.21,2.16.77,4.61-2.4,5-3.44.45-4.29-1.92-4.37-4.66-.23-7.48-.05-15-.1-22.44,0-2.49.18-5-.65-7.41-.74-2.16-.38-4.09,1.49-5.31,3.19-2.07,3-5.15,3.24-8.35.3-3.75-1.08-6-4.61-7.07a1.17,1.17,0,0,1-.63-.51,4.94,4.94,0,0,1-.51-1.06c4.18-7.77,11.58-11.36,19.15-14.71C159.53,1.48,167.56.74,175.61.13c2.51.16,5,.19,7.53.16h0c4.16,0,8.31-.22,12.47-.21h.06c1,0,2.06,0,3.09.05h.81a7.78,7.78,0,0,1,3.1.44,2.82,2.82,0,0,1,.42.23,3,3,0,0,1,.56.42,3.11,3.11,0,0,1,.42.46l.1.12c.86,3.13,2.43,4.94,6.15,5.13,4.57.22,6.31,3.26,6,8.88l-.41.29,0,0c-4.33,3.3-3,8.1-2.44,12.35.5,3.55,4.77,2.09,7.1,3.54,1.2.73,2.68-1.44,3.58-2.84s.74-4.17,3.53-3.3l.09,0,.27.1a11,11,0,0,1,1.21,3.65,17.58,17.58,0,0,1,.17,1.78c.14,2.84-.3,5.75.13,8.57a.14.14,0,0,0,0,.09C229.56,40.23,229.58,40.35,229.6,40.46Z"/><path class="cls-2" d="M315,9.86h0a15.27,15.27,0,0,0-.58-2.54c-1.11-1.62-2-3.44-3.71-4.5a5.17,5.17,0,0,0-1.23-.58l-1.69-.16c-1.52-1.4-3.43-1-5.21-1q-37.47,0-74.94,0c-1,0-2.37-.66-3,.93,1.35,2.33,4.12,3.85,4.16,6.94v.16c-1.16,2.56.11,3.7,2.45,4.16,1.52.31,2.68.78,3.23,2.54,1.86,5.87,2.83,6.51,9,6.13,1.44-.08,2.81-.52,3.29,1.19a3.75,3.75,0,0,1,.09.39l0,.15a9,9,0,0,0,1.9,3.9,5,5,0,0,0,.42.37l.15.12a7.44,7.44,0,0,0,2.72,1.14l.11,0,.74.07c4.59.31,10.19-1.09,10.45,6.57,0,.43.66.71,1,1.1,3,3.68,3.07,6.78-.12,10.42-1.24,1.42-1.75,2.76-1,4.5a2.86,2.86,0,0,0,.33.29l.12.08c1.26.92,2.66.58,4,.28l.19,0h0l.41-.07a3.51,3.51,0,0,0,.33-.34A6.25,6.25,0,0,0,270,49.71s0,0,0,0c.6-1.87.67-4,1.66-5.67,1.5-2.66,2-5.64,2.53-8.6l.3-1.56c.05-.2.09-.4.13-.6.1-.45.21-.91.34-1.35a15.84,15.84,0,0,1,1.89-4.48c.06-.18.11-.36.17-.54a5,5,0,0,1,.58-1.26,2.34,2.34,0,0,1,.24-.31,5.53,5.53,0,0,1,3.2-.85h.28c.77,0,1.53.07,2.29.06h1.52c4,0,8,0,12.05,0,2.39,0,4.79,0,7.19-.05h1.1l1.43-.06a10.24,10.24,0,0,1,1.2.06h.28a5.38,5.38,0,0,0,1.06,0h.17s0,0,0,0h0s0,0,0,0h0a1.9,1.9,0,0,0,1.63-1.1,3.21,3.21,0,0,0,.28-1.12h0s0-.09,0-.14V22a.86.86,0,0,0,0-.16h-.19c-4-.2-8.05-.25-12-.25-6.85,0-13.51.16-19.65,0H310.4a5.7,5.7,0,0,0,.92,0l.4,0a2.78,2.78,0,0,0,2.07-1.39.06.06,0,0,1,0,0c.05-.09.1-.15.15-.25a4.36,4.36,0,0,0,.67-1.47c.17-1,.32-2,.43-3.05v0A22.4,22.4,0,0,0,315,9.86Zm-77.1-7.23c-1.79,0-3.58,0-5.36,0l.64,0h71.77a8.34,8.34,0,0,0,2-.05,3,3,0,0,1-1,.13h-1.24C282.33,2.6,260,2.66,238,2.63Z"/><path class="cls-3" d="M145.82,67.92c-.16,1.5-.79,3-1,4.48l0,.17h0c-.47,3.33-1,6.66-1.35,10q-.16,1.62-.24,3.24h0c0,1.19-.07,2.39,0,3.59,0,.55,0,1.1.09,1.66,0,.15,0,.31,0,.46a4.06,4.06,0,0,1-.36,1.18c0,.08-.07.15-.1.22s0,0,0,0a21.39,21.39,0,0,1-2.18,2.86,1.84,1.84,0,0,0-.17.22,7,7,0,0,0-.5.79,9.57,9.57,0,0,1-4.11.43l-.46,0h0c-3.86-.7-7.63-1.88-11.61-2a4.79,4.79,0,0,1-4.44-2.59,5.37,5.37,0,0,1-.29-.65,5.53,5.53,0,0,1-.2-.66,8.93,8.93,0,0,1-.26-1.63c0-.24,0-.48,0-.73s0-.45-.06-.67a2.7,2.7,0,0,0,0-.28h0c-.15-1.07-.52-2.16-1.7-2.19-1.45,0-.65,1.25-.74,2.09h0a.86.86,0,0,1,0,.17.72.72,0,0,1-.55.48c-4.06,1.35-8.23.49-12.35.65-2.09.08-4.7-1.82-5.94,1.59-1.09,3,1.48,3.69,3,5.09l0,0,.24.26a10,10,0,0,1,.35,6.77,3,3,0,0,1-.93,1.31l-.18.13c-1.63,1-4.08-.33-5.67.85l-.22,0-.25,0a2.26,2.26,0,0,1-.45,0l-.17,0-.35-.09a.18.18,0,0,1-.07-.05,2.67,2.67,0,0,1-.57-.43,3.37,3.37,0,0,1-.84-1.21,9.3,9.3,0,0,1-.54-3.09c0-2.12,0-4.24,0-6.37h0A35.82,35.82,0,0,0,90,87.9a20.78,20.78,0,0,0-.9-3.28L89,84.28l-.12-.65c0-.21,0-.43-.07-.64A5.45,5.45,0,0,1,89,81.2v0a5.63,5.63,0,0,1,.41-1h0a5.3,5.3,0,0,1,.45-.71,4.12,4.12,0,0,1,.38-.47,8.42,8.42,0,0,1,1.1-1c3.24-1.73,6.52-.3,9.79-.1h0A8.8,8.8,0,0,0,103,77.8l.31,0a9.89,9.89,0,0,1,1.87.25s0,0,0,0a0,0,0,0,1,0,0c.15,0,.3.06.45.09a10.5,10.5,0,0,0,3,.58,20.8,20.8,0,0,0,2.37,0,18.75,18.75,0,0,1,9.78,2.08c1,.35,2,.82,3,1.26.3.14.6.27.91.39h0a10.48,10.48,0,0,0,4.37,1h0a6.35,6.35,0,0,0,1-.09,5.34,5.34,0,0,0,.65-.13c1-.41,2.28,0,3.36-1.38-2.43-.62-4-2.29-5.67-3.84l-.62-.57-.64-.54c-1.48-1.79-3.19-3.4-4.09-5.61a2.37,2.37,0,0,1-.12-.77,2.4,2.4,0,0,1,.12-.75s0,0,0,0c.43-1.6,2-3,1.25-5-1.65-.09-2.55,1.82-4,2.26a2.06,2.06,0,0,1-1.38-.06,3.29,3.29,0,0,1-2.28-1.54l0-.09-.06-.15h0s0,0,0,0l0-.1a2.53,2.53,0,0,1,0-1,4.1,4.1,0,0,0,.35-.39,5.6,5.6,0,0,0,1-4.33c-.07-.73-.19-1.48-.29-2.22a110.82,110.82,0,0,1,7.16-26c.28-.7.57-1.41.86-2.11.41-1,.84-2,1.27-3a7.73,7.73,0,0,1,2.38-3.31,5,5,0,0,1,.71-.44l2.7-3.11c.42,0,.82,0,1.2.08,6.44.69,6.3,5.6,5.93,10.84-.21,2.94.55,6-3.67,6.9a2.28,2.28,0,0,0-1.68,2.71c2.9,9.75.52,19.73,1.29,29.58.1,1.32,0,2.66.1,4,.17,1.84,1.6,1.9,3,1.81,1.7-.12,1.61-1.15,1.26-2.47a57.34,57.34,0,0,1-1.19-5.83c-.36-2.22,1.33-3.41,2.84-4.25s2.89-.1,3.14,1.87a.35.35,0,0,1,.05.08A4.77,4.77,0,0,1,145.82,67.92Z"/><path class="cls-3" d="M79.91,31.83l-.09.41h0c-.84,3.59-2.47,6.59-6,8.14l-.11,0-.49.2c-1.36-.08-1.94-1-2.39-2.16-2-5.23-2.44-5.44-9.24-4.93a9.48,9.48,0,0,0-8.13,6.85,26.77,26.77,0,0,0-.29,3.47c-.25,2.72-1.31,4.88-4.28,5.29s-5.75.32-6.86-3.23c0-.21,0-.41,0-.61l0-.29a1,1,0,0,1,0-.17,5.6,5.6,0,0,1,1.52-3.14l.24-.07a4.41,4.41,0,0,0,.93-.4,4.23,4.23,0,0,0,2-3.15h0a10.33,10.33,0,0,0,.17-1.26,5.32,5.32,0,0,1,1.23-2.21,3.8,3.8,0,0,0,1.7-3,.09.09,0,0,0,0-.05,3.57,3.57,0,0,1,1.42-2.11c.2-.09.39-.18.57-.28l.46-.27a5.8,5.8,0,0,0,2.47-4l4.15-7.62c.38-2.06,1.76-3.55,2.88-5.2s2-3.4,3-5.1a8.74,8.74,0,0,0,.94-1.42,4.94,4.94,0,0,1,2.06-2.32,2.89,2.89,0,0,1,.44-.18h0a9.43,9.43,0,0,1,1.3-.32A5.73,5.73,0,0,1,70.9,2.7c2.86.15,4.29,2.61,5.49,5.45A12.25,12.25,0,0,1,77.18,14a39.2,39.2,0,0,0,2.61,17.52Z"/><path class="cls-4" d="M69.18,50.38l-.1.12-.06.08a5.29,5.29,0,0,1-1.43.55l-.73.07a44.77,44.77,0,0,0-6.6,1h0l-.37,0a31.17,31.17,0,0,0-5.23.66h0a14.37,14.37,0,0,0-2.31.72,11.72,11.72,0,0,0-2.19,1.2h0a11.82,11.82,0,0,0-1.06.84A19.7,19.7,0,0,1,45.69,58l-.76.47-.45.3a9.43,9.43,0,0,1-1.8,1,4,4,0,0,1-.49.15,10.07,10.07,0,0,1-1.43.29l-.78.08a3.49,3.49,0,0,0-.65.06,5.87,5.87,0,0,0-1.56.47,15.77,15.77,0,0,0-1.76,1c-1,.58-1.93.81-2.67.07a2.88,2.88,0,0,1-.51-.75L35,56.3c1.26-2.93,3.45-5.32,4.76-8.21l1.14-2c.33-.53.65-1.08,1.23-1.22l.09,0a1.44,1.44,0,0,1,.58,0c.49,4,3.58,3.23,6.13,3.15,2.75-.08,2.88-2.13,3-4.27C52.32,34.45,54.8,32.09,64,32.09a31.24,31.24,0,0,0,3.49,0c3.08-.32,4.78.61,4.44,4.09-.14,1.52-.6,3.51,1.88,3.92,0,.1,0,.2,0,.3C74.46,44.71,71.54,47.42,69.18,50.38Z"/><path class="cls-5" d="M247.75,23.1a8.23,8.23,0,0,1-.87.54,7.66,7.66,0,0,1-2.44.79,12.71,12.71,0,0,1-2.47.12h-.05c-1.57-.06-3.15-.28-4.7-.26-1.31-.46-2.5-.72-3.32-.32l-.26.14a1.78,1.78,0,0,0-.48.59,4.24,4.24,0,0,0-.37,2,1.27,1.27,0,0,1,0,.2s0,0,0,.06l0,.18a7,7,0,0,1-.34,1.07,3.19,3.19,0,0,1-.51.71,9.1,9.1,0,0,0-.84,1,.62.62,0,0,0-.11.17c-.33.66-2.06-.88-.94.44a7.24,7.24,0,0,1,1.15,1.8,5.21,5.21,0,0,1,.42,1.36,6.67,6.67,0,0,1-.1,2.69c-.57,1.3-.43,3.08-1.94,3.76a2.87,2.87,0,0,1-.68.21c-2-4.62-.16-9.53-1.11-14.23l-.09-.2c-2.21-5.3-6.31-8.34-11.77-9.75l-.13,0c-.72-6.41-2.05-8-8.17-7.91-5.19.08-3.53-3.46-3.83-6.08h0a1.15,1.15,0,0,1-.09-.88A.64.64,0,0,1,204,.87a1.69,1.69,0,0,1,.27-.11A6.37,6.37,0,0,1,205,.6,2.6,2.6,0,0,1,206,1a1.18,1.18,0,0,1,.19.11,6,6,0,0,0,2.88.27,7.41,7.41,0,0,1,1.49,0l.13,0,.24,0a3,3,0,0,1,.62.21A21.37,21.37,0,0,1,223.7,6.3c1.51,1.15,2.86,2.57,4.89,2.76l.16,0c.44,2.07,1.2,3.56,3.84,3.08,2.31-.41,3.09.86,3.22,3.16.28,4.76,2.71,6.28,7.79,5.37C245.56,20.34,248.61,18.45,247.75,23.1Z"/><path class="cls-6" d="M39.9,59.07a10.29,10.29,0,0,1-.57,1.26,8.18,8.18,0,0,1-.64,1.07,11.45,11.45,0,0,1-3.77,3.43A21.48,21.48,0,0,1,31,66.6l-.18.06-.1,0a1.69,1.69,0,0,1-.55-.18,2.16,2.16,0,0,1-.63-.47c.07-.35.13-.71.2-1.06s.11-.57.16-.86c1.58-.41,1.74-2.2,2.93-3a2.51,2.51,0,0,0,.79.28C36.06,61.84,37.28,58,39.9,59.07Z"/><path class="cls-4" d="M54.74,26.79A4.29,4.29,0,0,1,51.62,30a2.58,2.58,0,0,1,.08-.26c0-.18.1-.37.16-.55s.19-.66.29-1l2.64-3.28A6,6,0,0,1,54.74,26.79Z"/><path class="cls-7" d="M42.85,92l-1.08,2-.3.71a11.09,11.09,0,0,1-3.7,4.74s0,0,0,0c-2.74,2-6.31,2.29-10.44,1.92-5-.45-5.85.88-5.82,6A6.74,6.74,0,0,0,26,104.6c2.46-3.36,6.32-1.89,9.49-2.76A.52.52,0,0,1,36,102a1.42,1.42,0,0,1-.11,1.7c-1.78,3.26-4.32,6.06-5.53,9.69-1,3-3.1,4.2-6.49,4-6.11-.31-12.25-.07-18.37-.09s-6.67-.85-3.75-6.1c.53-1,1-2,1.44-2.94a.91.91,0,0,0,.07-.14A3.37,3.37,0,0,0,5,105.25l.23-.25a10.44,10.44,0,0,0,2.6-4.11A3.79,3.79,0,0,1,9.15,99.8a1.19,1.19,0,0,1,.79,0l.17.06a1.35,1.35,0,0,1,.26.15c1,.6,1.56,1.83,3,2,1.09-.94.88-2.16.81-3.35,0-.2,0-.41,0-.61s0-.36.05-.53c.19-2,1.61-2.71,3.2-3.31a8.68,8.68,0,0,0,4.21-2c2.45-1.89,5.49-2.53,8.2-3.86.47-.16.94-.3,1.42-.44,1.11-.32,2.25-.6,3.37-.91l.32-.08c4-1,5.84,0,7.53,4C42.57,91.25,42.71,91.61,42.85,92Z"/><path class="cls-8" d="M35.33,86c0,.08,0,.15-.07.22a2.8,2.8,0,0,1-.37.69c-1.15,1.53-3.52.91-4.84,2.13l-8.2,4.06c-1.19,1-2.7,1.24-4.05,1.89s-3.11.83-3.14,2.9h0a4.46,4.46,0,0,1-.51.75,3.12,3.12,0,0,1-3.17,1l-.37-.08a3.53,3.53,0,0,1-.32-.21,2.08,2.08,0,0,1-.7-.68c-.26-.43-.2-.93.4-1.57h0c1-1.64,1.7-3.5,2.92-5a2.64,2.64,0,0,1,.68-.13,33.9,33.9,0,0,0,5.14-8h0l0,0,0,0h0c.53-.35.93-1,1.57-1.08a1.12,1.12,0,0,1,.59.12L21,83l.15.08c1,1.36.35,3.21,1.54,5.05,2.68-1.61,5.7-2.2,8.62-3.11,1.43-.45,3.12-1.34,4,.82A.87.87,0,0,1,35.33,86Z"/><path class="cls-9" d="M79,63.71a2.14,2.14,0,0,1-.17.3h0A2.7,2.7,0,0,1,77.3,65.1h0a8.78,8.78,0,0,1-1.28.25h-.08l-.52,0c-2,.13-4,0-6,0h-.45a22.66,22.66,0,0,0-5.79.6c-5.39.5-10.81.81-16.1,2.12-2.21.19-4.44.28-6.45,1.42l0,0a5.83,5.83,0,0,1-.7.25c-.22.08-.44.14-.66.2a22.6,22.6,0,0,0-7.45,2.45c-1.43.71-2.91,1.69-4.59,1l-.25-.12-.24-.14a3.3,3.3,0,0,1-.25-.63h0a2.52,2.52,0,0,1,.49-2.21L28,69a3.81,3.81,0,0,1,1.11-.54l.23-.07h0L30.59,68c1.61-.52,3.21-1,4.82-1.56,1.44-.45,2.88-.89,4.34-1.27a52.35,52.35,0,0,1,7.17-1.46l1.39-.22h0L50,63.2,51.18,63c1.39-.2,2.78-.38,4.18-.55s2.82-.31,4.23-.43c1-.09,1.91-.16,2.86-.22l.89,0h0c2.6-.14,5.21-.2,7.83-.14.53,0,1.07,0,1.6,0l.62,0c1.32.07,2.79-.18,4,.35A3.2,3.2,0,0,1,79,63.71Z"/><path class="cls-10" d="M25.49,75l0,.27-.06.48c-.43,3-1.6,5.58-4.44,7.2l-.09.05L20,83.4l-1.27.53h0c1.24-3.85,3.58-7,6.05-10.16a2,2,0,0,1,.56.74A2.21,2.21,0,0,1,25.49,75Z"/><path class="cls-10" d="M18.75,83.9v0h0a20.21,20.21,0,0,1-.59,2.26,9.79,9.79,0,0,1-3,4.7,0,0,0,0,0,0,0,8.75,8.75,0,0,1-1.56,1,21.47,21.47,0,0,1,5.11-8Z"/><path class="cls-11" d="M26.76,75.92a1,1,0,0,1-1.36-.13,2.29,2.29,0,0,1-.48-.65s0,0,0,0c-.05-.44-.11-.88-.16-1.33.34-1.38.73-2.75,2.13-3.49,0,.47,0,1,0,1.42h0c0,.44,0,.89,0,1.33a3.64,3.64,0,0,1,.24.35A1.71,1.71,0,0,1,26.76,75.92Z"/><path class="cls-12" d="M12.91,92.05a15.82,15.82,0,0,1-.71,2.24,6.4,6.4,0,0,1-1.14,1.89h0A5.59,5.59,0,0,1,10,97.1a0,0,0,0,1,0,0h0C10.15,95,10.81,93.09,12.91,92.05Z"/><path class="cls-12" d="M11,99.63a0,0,0,0,1,0,0,.58.58,0,0,1-.6.37,2.55,2.55,0,0,1-.51-.1l-.88.42-1.16.55c-.08-1.73.3-3.18,2.16-3.78h0c.06.21.13.42.19.62.13.42.25.84.38,1.26h0C10.86,99.21,11.07,99.45,11,99.63Z"/><path class="cls-13" d="M31,66.6A2.27,2.27,0,0,1,30.59,68a2.65,2.65,0,0,1-1.76,1H28.4L28,69a3.22,3.22,0,0,1,1.57-3l.76.17.69.15C31,66.41,31,66.51,31,66.6Z"/><path class="cls-3" d="M262,81.12q-3.54,15.63-7.09,31.25h0c0,.21-.09.43-.14.64a5.74,5.74,0,0,1-2.19,3.51,6.71,6.71,0,0,1-4.26.89l-.59,0h0c-5.74-.29-11.51-.17-17.26,0-4,.11-4.73-1.39-3.83-5.14,2.15-9,5-17.83,6.26-27,.09-.24.18-.48.26-.72,2.25-6.27,3.4-12.82,4.8-19.31v0h0l0-.17h0c0-.17-.06-.34-.1-.52a12.14,12.14,0,0,1,0-1.7c0-.15,0-.3,0-.45v-.07A25.18,25.18,0,0,1,241,52.13c.58-1.74,1.12-3.5,1.63-5.26v0c.45-1.55.87-3.1,1.25-4.67v0c.16-.63.31-1.26.45-1.9s.23-1,.33-1.53v0c.11-.52.21-1,.31-1.55h0q.52-2.72.86-5.47a5.71,5.71,0,0,1,.21-.58,7.76,7.76,0,0,1,.3-.72h0a5.91,5.91,0,0,1,.47-.9,5.4,5.4,0,0,1,2.91-2.36l2,1c.4.39.8.78,1.17,1.17,1.93,2,3.27,4.14,1.2,7.37-1,1.5.42,2.74,1.19,4,2.28,3.75,1.8,6.6-2.07,8-3.58,1.33-4.26,3.55-4.19,6.84.12,6.3-.05,12.61.06,18.91.11,6.08,1.36,6.78,6.71,4,3.37-1.73,4.83-1.87,5.58.1A11.73,11.73,0,0,1,262,81.12Z"/><path class="cls-14" d="M35.86,103.7c-1.23-.55-7.8-.29-8,.54-1,3.81-5.4,3.47-7.15,6.8-1.95-9-.4-11.51,7.54-10.85,6.05.5,10.37-1.13,13.55-6.14A30.47,30.47,0,0,1,35.86,103.7Z"/><path class="cls-14" d="M30.06,89c1.07-1.94,3.54-1.41,4.93-2.78a2.17,2.17,0,0,1,.89-1,10.54,10.54,0,0,1,4-.77,10.33,10.33,0,0,0,4.59-.28,2.65,2.65,0,0,1,2.54.85A11,11,0,0,1,42.86,92C39.82,85.69,34.71,88.36,30.06,89Z"/><path class="cls-15" d="M47,85.08l-3.1,0a1.82,1.82,0,0,1-.44-1.28c.74-1.91,2.56-1.78,4.1-2.19a2.79,2.79,0,0,1,1.37.25.83.83,0,0,1,.27.8c-.08.27-.15.41-.24.41a1.66,1.66,0,0,0-.12.88Z"/><path class="cls-16" d="M237.89,65.18l0,0v0Z"/><path class="cls-3" d="M202.77,111c-.49.4-1,.8-1.48,1.19-3.15,1-6.52,1.3-9.45,3l.09,0s0,0-.05,0h0c-1.2.86-2.93-.5-4,.92h0l-.06,0h0l-.87.21h0c-2.54.48-5.14,0-7.69.22l-.47-.35h0l-.13-.1-.12-.09c-2-1.48-3.9-2.9-6.73-2.69-3.74.29-5.37-1.87-5.36-5.49a25.53,25.53,0,0,0-.18-4.46c-.51-2.89-2.43-3.44-4.09-1.42-3.17,3.87-5.84,3.63-8.84,0a1.43,1.43,0,0,0-.93-.46c-.2,0-.41,0-.62,0l-.83,0c-3.8,0-7.62.42-11.35-.31-2.31-.44-4.86-1.1-4.2-4a6.65,6.65,0,0,1,.4-1.19h5a5.07,5.07,0,0,1,2-1.5,1.7,1.7,0,0,1,.32-.1,2,2,0,0,1,.26-.06,12.54,12.54,0,0,1,1.59-.26h0a14.88,14.88,0,0,1,2.49-.08,24.63,24.63,0,0,1,3.21.36l1,.18,2.91.62q.47.11.93.18a51.24,51.24,0,0,0,16.58,0c3.58-.48,7.16-1.12,10.75-1.65l.2-.11a4.87,4.87,0,0,1,1.19-.45l.14,0,.29,0h0l.45,0a0,0,0,0,1,0,0,0,0,0,0,1,0,0c2.6-.06,3.62,1.63,3.8,4.31.27,3.8-.21,7.63.37,11.81,3.41-4.61,7.5-2.85,11.44-1.67a2.58,2.58,0,0,1,2.09,2.17A3,3,0,0,1,202.77,111Z"/><path class="cls-17" d="M216.86,93.16s0,0,0,0h0Z"/><path class="cls-17" d="M222.17,76.44c-.26,3.81-1.79,7.18-3.31,10.58-1.29,1.83-1.43,4-2,6.1h0a3.17,3.17,0,0,1-.92-.19c-1.65-.61-1.22-2.46-1.38-3.84-.81-6.92-3.35-8.84-10.24-7.69-1.5.25-2.45.55-2.11,2.45.77,4.21-1,8-2.08,12l-.06.22c0,.06,0,.13,0,.19-6.38,2.25-8.17,1.47-10.52-4.58a3.79,3.79,0,0,1-.08-1.5l.13-.27h0c.18-.37.37-.75.56-1.12l.24-.47c1.6-3.12,3.2-6.25,3.52-9.79a13.17,13.17,0,0,0,0-2.09c0-.14,0-.29,0-.44a13.89,13.89,0,0,1,.58-2h0a1.53,1.53,0,0,1,.47-.48H195c8.08-1,16.21-.16,24.31-.47C221.88,72.85,222.32,74.26,222.17,76.44Z"/><path class="cls-2" d="M213.89,99.38c-3.12,4.42-5.95,9.12-11.12,11.58-.21-.27-.42-.52-.64-.76-3.53-3.78-9.17-3.54-11.47.74-.39.73-.68,1.63-1.72,1.28a1.94,1.94,0,0,1-1.11-2c0-4-.23-8,0-11.91.21-3.23-1-4.59-4.15-4.46h0l.38-.35h0l.35-.31a20,20,0,0,1,3.71-2.63,10.09,10.09,0,0,1,1.42-.64h0c1.91,4.5,4.63,7.69,10.2,6.16.11-.08.23-.15.35-.22,3.53-2.2,7.4-1.47,11.14-.81A3.27,3.27,0,0,1,214,97,3.65,3.65,0,0,1,213.89,99.38Z"/><path class="cls-18" d="M216.88,93.13a15.55,15.55,0,0,1-3,6.25,4.84,4.84,0,0,0-.33-1.46c-.64-1.54-2.11-2-4-1.91-3.15.08-6.31,0-9.45,0h-.29c.3-3-.95-6.29,1.62-8.94a2,2,0,0,0,.08-1.86c-4.16-6,.57-5.15,4-5.17,9.1-.07,9.91.73,10.28,10a5.12,5.12,0,0,0,.41,2.33,2,2,0,0,0,.69.74h0Z"/><path class="cls-19" d="M187.9,116.08h-.06l-.87.21h0c-8.26,2-16.7,1.72-25.09,1.72-6.41,0-12.86.59-19.21-.85.07-.08.14-.17.22-.25l.39-.45a4.94,4.94,0,0,1,.68-.36s0,0,0,0a4.35,4.35,0,0,1,1-.33h.28c11.09-.28,22.2-.8,33.28.22l.25,0,2.05,0s0,0,0,0a0,0,0,0,1,0,0h0l6.94,0Z"/><path class="cls-2" d="M201.29,112.15c-2.79,2.07-6.07,2.64-9.41,3h0A7.13,7.13,0,0,1,193,114a8.8,8.8,0,0,1,5.52-1.7C199.42,112.22,200.36,112.21,201.29,112.15Z"/><path class="cls-20" d="M225.89,85a16.17,16.17,0,0,1-1.59.53c-1.11.28-1.41-.45-1.46-1.33,0-.61-.16-1.42.77-1.43S225.09,83.23,225.89,85Z"/><path class="cls-19" d="M142.84,116.93l-.18.25-7.58-.32H135a1.16,1.16,0,0,1-.26-.65.25.25,0,0,1,0-.12,1,1,0,0,1,.53-.65c2.44-.62,5-1.71,6.86.5A5.63,5.63,0,0,1,142.84,116.93Z"/><path class="cls-18" d="M218.86,87a9.81,9.81,0,0,1-2,6.11l0,0v0a12.38,12.38,0,0,1,0-2.43,0,0,0,0,0,0,0,5.58,5.58,0,0,1,.4-1.57v0A5,5,0,0,1,218.86,87Z"/><path class="cls-2" d="M191.87,115.16a5.14,5.14,0,0,1-4,1h0a2.9,2.9,0,0,1,.36-1c.43-.7,1.07-.55,1.74-.29s1.37.64,1.91.39Z"/><path class="cls-21" d="M121.65,112.19c.64,3.86-.81,5.41-4.87,5.2-5.62-.3-11.27-.08-16.91-.08-6.91,0-6.91,0-7.12-7.26a1.11,1.11,0,0,1,1.42.07c1.38,3.5,3.89,5,7.69,4.58a46.41,46.41,0,0,1,5.9-.06c5.8-.08,5.77-.08,6.11-5.85.1-1.65.13-3.29.09-5-.12-4.46,2.2-6.48,6.51-5.4,4,1,7.49,3.43,11,5.4,2.65,1.47,1.85,5.11,1.56,7.82-.12,1.18.18,2.44-.31,3.59-1,.33-2.05.66-2.78-.53l.06,0a8.72,8.72,0,0,1-4.21-2.61l-3.07-3.08a4.78,4.78,0,0,1-1.14-1.75l-.24-.27c-.53.4,0-.19.12.45s-.56.46.11.47C121.49,109.39,121,110.8,121.65,112.19Z"/><path class="cls-22" d="M121.74,106.12c.32,1,1.36,1.73,1,2.94-.85.44-.81,1.16-.63,1.93l-.47,1.2c-1-1.57-.77-3.39-1-5.12C120.43,106.09,120.81,105.79,121.74,106.12Z"/><path class="cls-23" d="M125.82,112.14a10,10,0,0,1,4.21,2.61C127.27,116.07,126.6,114,125.82,112.14Z"/><path class="cls-23" d="M130,114.72l2.72.77a1.43,1.43,0,0,1,2,.58,1.54,1.54,0,0,1,.35.78l-1.19.28C132.3,116.71,130.64,116.5,130,114.72Z"/><path class="cls-18" d="M215.77,16.11c8.6,0,11.94,2.79,12,10-.17,0-.43,0-.48.11-1.73,3.31-3.3,6.73-6.83,8.9a4.38,4.38,0,0,0-5.42-3c-.62.12-1.66.11-1.9-.24-2.85-4.17-.87-8.87-1.27-13.32C211.61,15.67,214,16.23,215.77,16.11Z"/><polygon class="cls-24" points="189.56 89.87 189.57 89.87 189.56 89.88 189.56 89.87"/><path class="cls-25" d="M175.37,1a116.31,116.31,0,0,1,30.57,0c-.83.16-1.7.27-2.16,1.14C199.64.19,195.15.79,191,1.32,185.7,2,180.58,1.17,175.37,1Z"/><path class="cls-26" d="M194.79,23.14l-23,0A52.65,52.65,0,0,1,194.79,23.14Z"/><path class="cls-27" d="M202.35,39c.19-1.25.38-2.5.56-3.76a10.93,10.93,0,0,0-.37-10C205.9,28.44,205.81,35.22,202.35,39Z"/><path class="cls-28" d="M151.63,41.72c-1.77,1.85-1.31,4.61-2.73,6.6-1.29-3.77.36-6.63,2.88-9.23Z"/><path class="cls-28" d="M155,31.17q-1.53,3.66-3.07,7.32C149.59,34.62,152.87,33.13,155,31.17Z"/><path class="cls-18" d="M267.94,56.25c-1.31,8.45-3.72,16.65-6,24.87a6.66,6.66,0,0,0-.74-1.84c-1.14-1.87-2.84-1-5.09.42-1.69,1.11-3.18,4-6,2.17-2.44-1.57-2.45-4.07-2.43-6.64q.12-11,0-21.93c0-2.94.24-4.95,4.07-5.39,4.26-.48,5.11-4,2.07-7.06-.92-.93-2.88-2-2-3,2.93-3.11,1.12-5.86.15-8.67a10.86,10.86,0,0,1-.32-1.07c2,0,4,.12,5.93,0,3.89-.29,7.05.05,6.13,5.32-.12.69.31,2.06.73,2.17,5.7,1.51,2.28,6.37,3.46,9.5A2.32,2.32,0,0,1,266.06,48c-2.76.27-2.23,2.32-2.32,4.06,0,.06,0,.11,0,.16-.33,2.72.78,4,3,4.06a7.62,7.62,0,0,0,1.15,0Z"/><path class="cls-29" d="M307.75,2.07c.1.59.55,1.72-.06,1.68C281.14,2,254.55,4,228,2.09h79.79Z"/><path class="cls-30" d="M313.65,23c-1.52,1.71-3.54,1.53-5.55,1.52q-13.49,0-27,0c-1.81,0-3.69-.35-5.36.71.38-2.85,2.63-2,4.29-2.05,8.82-.06,17.65,0,26.48-.06,1.75,0,3.71.67,5.18-1-.35-.22-.46-.44-.35-.66s.23-.33.35-.33l2.14-1.95Z"/><path class="cls-31" d="M311.72,21.11v1H277c0-.33,0-.66,0-1Z"/><polygon class="cls-3" points="267.92 56.26 267.93 56.26 267.92 56.27 267.92 56.26"/><polygon class="cls-3" points="267.93 56.25 267.94 56.25 267.93 56.26 267.93 56.25"/><path class="cls-3" d="M267.92,56.25h0c-.57.24-1,1.07-1.51,1.62s-1.24.92-2.28-.51-4-3.24-.53-5.22l.14-.08c1.34.36,2.67-1.8,4,0a2.19,2.19,0,0,1,.21.4h0a3.1,3.1,0,0,1,.26.87,7.44,7.44,0,0,1-.29,2.91Z"/><path class="cls-19" d="M249.75,27.1l-2.82,4.14-.58-.54c.24-5.58.24-5.48-5.47-5.65-2.41-.07-5,.87-7.24-.88,0-1.71.89-1.77,2.12-1.07h12C248.42,24.44,249.09,25.77,249.75,27.1Z"/><path class="cls-32" d="M270.83,44.06c-.23,1.89-.46,3.77-.83,5.62,0,0,0,0,0,0a26.57,26.57,0,0,1-2.06,6.54h0l-.09-2.08c0-.55-.05-1.11-.07-1.66,0-.15,0-.29,0-.44C269.67,49.75,268.23,46.13,270.83,44.06Z"/><path class="cls-30" d="M313.72,7.35c2.78,3.94,1.6,7.91.09,11.89Z"/><path class="cls-18" d="M134.66,116.07a1.72,1.72,0,0,1-2-.58c-1.48-2.31-.89-4.92-.78-7.34.15-3-1-4.46-3.78-4.46-3.41,0-4.68-3.65-7.93-4.12-4.23-.61-5.74.4-4.83,4.45.77,3.38-1.22,6.72.24,10.16.54,1.24-1,1.8-2.32,1.81h-5.46a7.86,7.86,0,0,0-4.19-2.43c-5.49-1.64-6.34-3.85-3.81-9.55V96c5-1.4,8.63-6.11,14.39-5.47,2,.21,4,0,5.6,1.47a5.35,5.35,0,0,0,5.11,2c3.81-.4,7.26,1.29,10.89,2-.18,3.24,2,3.88,4.52,4,3.82.11,7.65,0,11.47,0,3.09,6.84,1.87,10.86-4.29,14.37a29.23,29.23,0,0,0-3.69,2.41,5.47,5.47,0,0,1-1,.12C140.28,115.11,137.39,116.35,134.66,116.07Z"/><path class="cls-33" d="M119.82,92c-2.65,0-5.3,0-7.94,0-1.84,0-3.3,0-4.39,2.19-1.61,3.25-5,1.32-7.66,1.81-3.1.13-5.45-.56-4.28-4.45.78-2.62.54-5.6,5.54-4,4.52,1.41,9.79.43,14.74.5,1.61-.81,2.83,0,4,1Z"/><path class="cls-34" d="M120.82,82A17.32,17.32,0,0,0,111,80c-.8-.52-1.8-.35-2.65-.71a16.9,16.9,0,0,0-5-.72,3.42,3.42,0,0,1-3.27-1.86c-.76-2.83-.41-5.09,3-5.75,5.45-.07,9.66,3.68,14.74,4.8,2.72.83,5.36,1.82,7.44,3.88.56.91,1.18,1.81.11,2.79C123.85,82.51,122.28,82.92,120.82,82Z"/><path class="cls-33" d="M99.83,104a37.16,37.16,0,0,1,0,4c-.27,2.86.67,4.39,3.83,4.06,2.84-.29,4.4,1,4.19,4a75.41,75.41,0,0,0-8,.06c-4.71.51-6.36-1.69-6-6a1.58,1.58,0,0,1-.56-1c0-1.35-.75-2.81.56-4,.32-1.11.12-3.16,2.19-1.72C97.3,104.18,98.55,103.88,99.83,104Z"/><path class="cls-35" d="M116.93,65.05l1.9,1a10,10,0,0,1,5,5l4,5a2.59,2.59,0,0,1,.41,2.79,2,2,0,0,1-1.22.73c-2.88-.64-3.84-3.41-5.72-5.15-1.32-2.53-3.92-4.06-5.15-6.66a2.65,2.65,0,0,1,.53-2.74Z"/><path class="cls-17" d="M123.82,71.06a15.65,15.65,0,0,1-5-5c1.09-.11,2.59.21,2.78-1.3.38-2.8,1.73-2.69,3.6-1.47s1.94,2.82.4,4.44C124.71,68.69,123.79,69.62,123.82,71.06Z"/><path class="cls-36" d="M127.86,78.89l0-2.84c2.76,1,3.83,4.75,7.44,4.64.6,0,1.37,1.39,1,2.46S135,84,134.24,84c-1.14,0-2.28,0-3.42,0-.75.49-1.19,0-1.61-.51-.43-.75-.78-1.55-1.21-2.3S127.05,79.72,127.86,78.89Z"/><path class="cls-37" d="M100.84,77.14l3,.9c.33.21.44.43.34.65s-.2.34-.31.34c-4,1.14-8-1.94-12,0A2.12,2.12,0,0,1,89,79l-.29-.12a1.7,1.7,0,0,1,.39-2.32c1.87-1.1,4-.77,6-.87S99.2,75.51,100.84,77.14Z"/><path class="cls-18" d="M119.82,89a6.75,6.75,0,0,1-4-1c.15-1.57-3.11-1.37-1.85-3.36.54-.86,1.8-.69,2.8-.49C119.47,84.75,120.1,86.61,119.82,89Z"/><path class="cls-33" d="M91.74,101.49a101.51,101.51,0,0,1-2-17.46C93.09,89.54,91.5,95.62,91.74,101.49Z"/><path class="cls-38" d="M129.82,83l1,1c-3.95,2.32-6.69-1.26-10-2l5,0,.61-.07A3.89,3.89,0,0,1,129.82,83Z"/><path class="cls-17" d="M117,64.06a3.07,3.07,0,0,1-.07-.42,6,6,0,0,1,1-4.33,12.63,12.63,0,0,1,.89-1.22C119.24,60.4,120.68,63,117,64.06Z"/><path class="cls-39" d="M142.81,95a2,2,0,0,1-2,1c-2.22-3.07,1.32-2.24,2.18-3.21h0A1.88,1.88,0,0,1,142.81,95Z"/><path class="cls-18" d="M93.84,109v1l-1.09,0a7.35,7.35,0,0,0-.77-.32l-.09-5.7,1,1C93.68,106.27,93.12,107.8,93.84,109Z"/><path class="cls-33" d="M89,79l2.85.05c-1.34,1.21-2.38,2.56-2.09,4.52A7.18,7.18,0,0,1,89,79Z"/><path class="cls-40" d="M93.84,109c-1.4-1.06-.85-2.59-1-4,.31,0,.63,0,1,0C93.36,106.36,94.87,107.69,93.84,109Z"/><path class="cls-41" d="M103.86,79q0-.5,0-1c1.78,0,3.62-.35,5.18.89a2.54,2.54,0,0,1-3.18.14Z"/><path class="cls-37" d="M105.83,79.07l3.18-.14a2,2,0,0,1,2,1C109.26,79.86,107.33,80.7,105.83,79.07Z"/><path class="cls-2" d="M108,11h0s0,0,0-.07Z"/><polygon class="cls-2" points="107.99 11.04 107.99 11.03 108 11.04 107.99 11.04"/><path class="cls-2" d="M113.94,55.68l.17-.32-.23-.28a32.31,32.31,0,0,1-.95-7.24c0-.84-.06-1.68-.09-2.52s0-1.51-.09-2.26a3.89,3.89,0,0,0-.41-1.45,6.12,6.12,0,0,1-.32-1v0a2.33,2.33,0,0,1-.07-.25s0,0,0-.08a9,9,0,0,1-.15-1.37,0,0,0,0,1,0,0c0-.78,0-1.56,0-2.34a15,15,0,0,0-.13-3,5.74,5.74,0,0,0-.57-1.38,6.36,6.36,0,0,1-.14-.76c-.27-1.79,0-3.65-.36-5.44h0A6.79,6.79,0,0,0,110,24l0,0v0c-1.12-4.23-1.45-8.59-2-12.91h0c-1.3-.92-1.06-2.71-2.13-3.76-1.75-2.48-4.54-3.55-6.93-5.18h0a37.93,37.93,0,0,0-9-1.16h0c-5.69-.14-11.42.52-17.1.12a6.8,6.8,0,0,0-4.7,1.18l0,.12-.09.42c0,.18-.08.35-.11.53s-.11.53-.17.79c5.43-.34,7.84,1.57,8.13,7.06.38,7.17-1.1,14.58,3.14,21.17a2.29,2.29,0,0,0,.88,0h0c1.18-.32,1.61-1.6,2.34-2.52a3.35,3.35,0,0,1,.89.05l.84.17A2.27,2.27,0,0,0,86.58,29c1.2-1.7.47-3-.27-4.58-1.14-2.38-2.67-5.38.89-6.69,3.36-1.24,6.82-2.44,10.17,1.62,2.16,2.62,5.73,3.95,6,8.11.08,1.44,2.22,1.11,3.23,2.53-4.18,1.57-4.06,5.09-4.06,8.65,0,2.45.87,5.36-1,7.2-3.44,3.43-.77,4.71,1.67,6.29h0a1.93,1.93,0,0,1,.51.68h0c.39.91-.15,1.91-.2,2.87a1.48,1.48,0,0,0,0,.21,1.72,1.72,0,0,0,.26.88,8.81,8.81,0,0,0,1,1.19c2,2.07,4.74,3.07,7.07,4.66h0l.52.38a1.25,1.25,0,0,0,1.56.07A.27.27,0,0,0,114,63a1.59,1.59,0,0,0,.69-1.19h0A11.82,11.82,0,0,0,113.94,55.68ZM97.2,2.75h0c-.52,0-1-.08-1.57-.08H92.43c.58,0,1.15,0,1.72-.08h0c1.57-.1,3.12-.25,4.68-.5A2.13,2.13,0,0,1,97.2,2.75ZM75.73,2.6c2.74-.08,5.41,0,8,0-2.41,0-4.86,0-7.39,0l-3,0C74.17,2.66,75,2.63,75.73,2.6Z"/><path class="cls-42" d="M111,32.94l0,0h0A.06.06,0,0,0,111,32.94Z"/><path class="cls-43" d="M110,24V24l0-.08A19.84,19.84,0,0,1,108.51,20v0a22.39,22.39,0,0,1-.64-4.15h0A32.15,32.15,0,0,1,108,11V11l0,.08h0C109.46,15.23,109.74,19.59,110,24Z"/><path class="cls-44" d="M112.49,50.7s0,0,0,0a28.18,28.18,0,0,1-.55-8.76c.08.28.15.57.23.85v0c.08.27.15.53.22.8l.45,1.71c.28,1,.55,2,.82,3,.07,2.23.15,4.47.22,6.71A25.28,25.28,0,0,1,112.49,50.7Z"/><path class="cls-43" d="M111,33a.21.21,0,0,1,0-.06h0v0c-1.73-2.16-1.24-4.58-1-7a12.7,12.7,0,0,0,0-2v0l0,0,0,0c.25.37.52.76.79,1.13.06,2.09.11,4.18.17,6.27l0,1.39v0A2.26,2.26,0,0,1,111,33Z"/><path class="cls-45" d="M116.83,68.92a4.29,4.29,0,0,1-.67.25,2.69,2.69,0,0,1-.29-.16s0,0,0,0a5.14,5.14,0,0,1-2.43-3.4v0a1.88,1.88,0,0,1,0-.34,2.8,2.8,0,0,1,.56-1.45c.14-.2.29-.39.44-.58l.07-.09.24-.28,0-.06a1,1,0,0,1,.24,0h.08a.71.71,0,0,1,.65.5h0c.08.69,0,1.43.82,1.76l.08,0a.34.34,0,0,0,0,.1c0,.06,0,.11,0,.17.06.86.13,1.72.2,2.58C117.28,68.45,117.15,68.73,116.83,68.92Z"/><path class="cls-44" d="M115.12,62.71l-.06.47-.23-.12h0l-.22,0-.13.08-.28.17-.26-.25-.08-.08.09-5.5,0-1.85.82,1.39C115.66,58.92,115.38,60.82,115.12,62.71Z"/><path class="cls-46" d="M115.78,63.21h0l-.35,0h-.36c0-.16,0-.31,0-.47-.1-1.87-.19-3.76-.28-5.64C116.6,58.87,115.68,61.13,115.78,63.21Z"/><path class="cls-30" d="M108,11h0a3.32,3.32,0,0,1-1-.51h0a2.68,2.68,0,0,1-1-1.88h0a7.67,7.67,0,0,1,0-1.37C107.73,7.84,107.78,9.49,108,11Z"/><path class="cls-4" d="M44.34,41.94c1.12-1.79,2.25-3.57,3.38-5.36C47.59,39,47.87,41.66,44.34,41.94Z"/><path class="cls-4" d="M48.61,35l2.1-3.4C50.84,33.24,51.11,35,48.61,35Z"/><path class="cls-47" d="M111.87,64.29a2.35,2.35,0,0,1-.32.23,4.68,4.68,0,0,1-3.17.5L108,65a4.58,4.58,0,0,1-.53,0,7.44,7.44,0,0,1-5.82-3.12c-1.57-2.09-4.31-3-6.74-4a14.93,14.93,0,0,0-4.53-1.6c-3.33-.07-6.47-1.33-9.76-1.7L80,54.51c-.35,0-.7,0-1.05,0a74.31,74.31,0,0,0-14.14.91c-1.77.07-3.57-.19-5.31.38-.24.08-.48.14-.73.2l-.79.14c-.24,0-.48,0-.73,0-1.5,0-3,.18-3.56-1.83l0-.15,0-.13a3.52,3.52,0,0,1,1-1.1h0c1.29-1,3-.75,4.6-.84l.63-.2.41-.1c2.54-.62,5.25-.41,7.67-1.55a1.27,1.27,0,0,1,.77,0l.48.18c4.83,1.73,9.92,0,14.83,1,.95.19.75-1.23,1.1-1.89h0c0-.4.14-.63.41-.67h.15a1.15,1.15,0,0,1,.29.06l.17.13a5.22,5.22,0,0,1,.92.84A8.32,8.32,0,0,0,88.66,51c2.3,1.34,5,1.6,7.49,2.56.67.26,1.34.55,2,.85a69.84,69.84,0,0,1,6.6,3.57c1.64,1,3.27,2,4.92,2.92a4.82,4.82,0,0,1,2.15,1.74h0A2.13,2.13,0,0,1,111.87,64.29Z"/><path class="cls-48" d="M42.8,58.91l1-.86c1.2-.52,2.26.05,3.35.42,1.5.83,3,1.65,3.24,3.62a2.23,2.23,0,0,1-.59,1.32,7,7,0,0,1-4.28,1.14c-2.82.88-5.82.91-8.62,1.92a1.53,1.53,0,0,1-2.1-.76c-.24-.65.28-1.22.71-1.72C37.51,61.65,40.4,60.62,42.8,58.91Z"/><path class="cls-49" d="M42.8,58.91c-1.44,3.19-5.6,3.34-7.58,7l10.65-1.84c.32.21.43.41.32.62S46,65,45.87,65C40.8,66.21,35.64,67.1,30.94,69.5A1.48,1.48,0,0,1,28.83,69L31,66.31l8.91-7.23Z"/><path class="cls-50" d="M46.86,59.07l-3-1,4-2.9c2-.43,3.67-2.62,6-.9,1.49,1.38,3.33.61,5,.82.12,2.06-1.59,2.5-2.91,2.69C52.92,58.21,50.06,59.86,46.86,59.07Z"/><path class="cls-51" d="M53.85,54.25l-6,.9c3.24-3.56,7.52-4.07,12-4.08a1.18,1.18,0,0,1,0,1.84C57.76,53,55.58,52.61,53.85,54.25Z"/><path class="cls-52" d="M59.84,52.91c0-.61,0-1.22,0-1.84a17.85,17.85,0,0,1,8.07-.87C65.88,53,62.26,51.19,59.84,52.91Z"/><path class="cls-18" d="M231.87,28.09c.17,2.65.23,5.28-1.11,7.71-.14-1.13.13-2.69-.51-3.33C227.41,29.6,230.08,29.07,231.87,28.09Z"/><path class="cls-2" d="M235.76,23.1a2,2,0,0,0-2,1.13,2.61,2.61,0,0,1-1.11,2.82l-.76.47C231.74,21.92,231.74,21.92,235.76,23.1Z"/><path class="cls-2" d="M210.75,1.16c.19.27.36.54.53.82-1.42.32-2.84.67-4.27.94-2.27.42-1.49-.89-1.09-2Z"/><path class="cls-53" d="M9.87,99.92l.7-.93,4.09-1.09c1.28,2,1.31,5-.12,5.68C12.1,104.68,10.65,102.22,9.87,99.92Z"/><path class="cls-14" d="M31.39,90.24c.62,2.11,0,2.94-1.13,3.37-.23.09-1-.38-1-.62C29.2,91.63,30.38,91.28,31.39,90.24Z"/><path class="cls-14" d="M17.81,95a6.35,6.35,0,0,1,4.05-1.89C21.05,94.9,19.52,95.14,17.81,95Z"/><path class="cls-54" d="M48.61,82.34a.36.36,0,0,1-.44-.18A41.77,41.77,0,0,0,35.88,86a2.68,2.68,0,0,1-.89.25c-5.12-.77-9.27,1.57-13.54,4.31A12.87,12.87,0,0,1,20.88,83l4-7.92c2.4,1,1.89-.83,2-2.06,4.48-.83,8-4.92,13-4,2.58,2,5.27,3.82,5.51,7.52.19,2.92,3.1,2.34,4.67,3.49C50.22,81.23,49.53,81.86,48.61,82.34Z"/><path class="cls-55" d="M49.88,80.05c-3.69,1.73-6.21,0-5.74-3.47.57-4.13-4.86-4-4.28-7.53h0c1.86-1.08,4-1.19,6-2a51.33,51.33,0,0,1,17-2c2-.85,4-.52,6-.25C72.78,71,72,74.67,66.13,77.68,60.72,78.46,55.53,80.87,49.88,80.05Z"/><path class="cls-56" d="M45.87,65c0-.32,0-.63,0-.94l4-1c1.77-1.67,4.23-1.18,6.27-2a27.2,27.2,0,0,1,6-.42c3.76.09,7.52,0,11.28,0a28.48,28.48,0,0,1,4.23.12c3.7.73,7.45,1.2,11.14,2,3.76,1.21,8,1.2,11.13,4a1.48,1.48,0,0,1,0,1.53,5.3,5.3,0,0,1-3.8.94,32.55,32.55,0,0,1-6-1.47A6.73,6.73,0,0,1,88.76,67c-3-1.78-7-.72-9.85-3-6.42-1.91-13-1-19.44-.61C54.92,63.66,50.4,64.47,45.87,65Z"/><path class="cls-57" d="M78.91,64c3.76,0,7.45.31,10.86,2.07-2.25,1.83-4.81,1.33-7.35,1-2-.8-4.37-.45-6.32-1.58a1,1,0,0,1-.28-1.43Z"/><path class="cls-58" d="M75.82,64.09c0,.32,0,.65,0,1-2.33,1.85-4.66,1.71-7,0h-6C67,62.91,71.51,64.61,75.82,64.09Z"/><path class="cls-54" d="M45.86,67.06a9.41,9.41,0,0,1-6,2C41.44,67.11,43.62,67,45.86,67.06Z"/><path class="cls-19" d="M241.47,53q1.22-6.37,2.44-12.76l0,0a66.36,66.36,0,0,0,1-7.05c.15-1.08.26-2.32,1.9-2.11l.2.16c.73,6.92-3.65,13-3.41,19.85C243.56,52.11,242.51,52.72,241.47,53Z"/><path class="cls-59" d="M49.88,80.05l16-3a25.16,25.16,0,0,1,13.23-2.44c2.12.11,4.25-.06,6.35.17,1.55.17,3.41.09,3.51,2.43-.09.57-.17,1.13-.25,1.69l-.35,0L88,78.8a1.73,1.73,0,0,0-2-1.71C73.43,77.73,60.8,78,48.93,83a.57.57,0,0,1-.32-.69C49,81.58,49.46,80.82,49.88,80.05Z"/><path class="cls-60" d="M35.88,86c3.29-3.85,7.8-3.81,12.28-3.85l-4.29,1.92c-1.13,1-2.32,1.7-3.91,1.24Z"/><path class="cls-61" d="M40,85.32c1.25-.6,2.44-1.37,3.91-1.24v1C42.66,86.44,41.35,86.34,40,85.32Z"/><path class="cls-62" d="M150.8,52.07a3.53,3.53,0,0,1-.43-.47,1.06,1.06,0,0,1,.16-1.69c.36-.29.86-.54,1.27-.83C151.77,50.17,152,51.35,150.8,52.07Z"/><path class="cls-2" d="M143.83,116.81c.38-2.4,2.07-4.43,4.08-4.5,4.06-.15,4.05-2.42,3.92-5.29-.11-2.33,0-4.66,0-7,1.11.18,3,.06,3.23.6,2,5,3.63,4.05,5.76.08,1.1-2,3.41-2,5.38-1.52,2.3.54,1.45,2.63,1.6,4.16a11.89,11.89,0,0,1,0,3c-.76,4.64,1.21,6.31,5.76,5.73,2.84-.37,5.52,0,5.25,4-2.43,1.48-5.13,1-7.74,1C162,117,152.9,116.88,143.83,116.81Z"/><path class="cls-2" d="M142.81,95l.18-2.21c11.78,3.66,23.75,3.54,35.8,1.75l4.91-.77c-4.2,3.88-9.75,1.58-14.51,3.14-6.66,2.2-13.22-.66-19.78-1.41C147.21,95.28,144.84,96.76,142.81,95Z"/><path class="cls-2" d="M189.56,89.88l.33-1.6c3.09-3.56,3.25-8.26,4.83-12.4C195.19,81.35,194.16,86.28,189.56,89.88Z"/><path class="cls-63" d="M205.08,74.4h15V75H204.94Z"/><path class="cls-64" d="M121.74,106.12l-1.07.95c-.72-.81-1.26-1.92-.12-2.47C121.52,104.13,121.78,105.24,121.74,106.12Z"/><path class="cls-39" d="M265.51,62.53c-.32.51-.54,1.28-1,1.55s-.73-.47-.59-.8A8.62,8.62,0,0,1,265,61.75Z"/><path class="cls-65" d="M122.11,74c2.11,1.19,3.21,3.33,4.69,5.09.06,1.72-.76,1.69-1.93,1L118,77c-1.92-1.2-4-2-6-3.24-.72-.87-1.92-1.56-1.13-3a7.63,7.63,0,0,1,4.84-1.27C118.81,69.62,120.1,72.29,122.11,74Z"/><path class="cls-66" d="M100.84,77.14l-5.93-.38a4.37,4.37,0,0,1-.2-2.72c.4-1.84.61-3.75,2-5.2,1.24-.58,2.35.13,3.51.36,1.23.91,3.65.34,3.62,2.85C99.66,71.88,101.13,75,100.84,77.14Z"/><path class="cls-67" d="M103.84,72.05c-.87-1.61-3.14-.38-4-2a3.68,3.68,0,0,1,2.82-1.18,11.05,11.05,0,0,1,5.2,1.28c1.65,1,3.15,2.22,4.89,3.08,1.49,1.61,4.16,1.56,5.24,3.74C112.93,76.3,109,72.51,103.84,72.05Z"/><path class="cls-68" d="M124.87,80a2.07,2.07,0,0,0,1.93-1l1.06-.15,1,2.07c-.24,2.55-1.82,1.41-3.09,1.13v0Z"/><path class="cls-69" d="M122.11,74l-6.28-3.89-.33-.52.35-.51,1.05-1.16C119,69.6,121.54,70.93,122.11,74Z"/><path class="cls-70" d="M125.81,82.09c1.09-.21,2.38.12,3.09-1.13a2.27,2.27,0,0,1,.92,2.08C128.4,83.06,126.9,83.44,125.81,82.09Z"/><path class="cls-71" d="M95.83,75.06l-.92,1.7-6,.43c-3.14-2.37-6.77-.6-10.12-1.17-.13-1.53,1-1.73,2.09-2.08a17.73,17.73,0,0,1,3.33-.25c2.53-.06,5-.09,7.58,0A5.62,5.62,0,0,1,95.83,75.06Z"/><path class="cls-18" d="M108.88,28.16c-.34.95-.42,2.17-.91,2.38-5.73,2.4-3.92,7.38-4.13,11.66-.14,2.71.82,5.9-3.67,6.22,1.5,2.09,4.1,1.49,4.66,3.65a4.26,4.26,0,0,1-1.11.77h0a20.94,20.94,0,0,1-3.33,1,7.05,7.05,0,0,0-1.08.41,4,4,0,0,0-.57.33l-.6-.15A49.25,49.25,0,0,1,86,50.22l0,0c-.09-.34-.17-.66-.25-1h0a3.39,3.39,0,0,1-.15-.41c-.69-2.17.62-4.6-.79-6.67-1.42-3.77-.52-7.85-1.55-11.67a4.81,4.81,0,0,1-.13-.68c-.17-1-.3-2.05-2.07-1.15.49-1.32.68-3.4,2.69-1.21.56.6-.27,3,1.84,1.41,1.28-.95,1.54-2.33,0-3.26-2.19-1.35-1.53-3.42-1.71-5.33-.28-2.86.59-4.51,3.82-4.14,1,.1,2.44.31,2.9-.21,3.92-4.46,4.84,1.38,7.23,2,.16.05.13.86.28.89,4.56.95,6.3,3.67,6.28,8.34C104.34,28.9,107.25,27.35,108.88,28.16Z"/><path class="cls-72" d="M85.92,50.2l12.9,3.86c2.25-.78,3.66.55,5,2l10,7a6.31,6.31,0,0,1,.76.08,1.58,1.58,0,0,1-.71,2.23,1.81,1.81,0,0,1-2,0,1,1,0,0,1-.3-.83c0-.3.09-.46.16-.46-6.08-6-13.89-8.58-21.71-11.22C88.5,52.34,86,53,85.92,50.2Z"/><path class="cls-29" d="M71.92,2.07h27c-.18.32-.38.8-.57,1.13s-.25.41-.34.39c-7.17-1-14.39-.29-21.58-.93l-.65-.07c-.23,0-.45,0-.68-.07a0,0,0,0,1,0,0C74,2.41,73,2.26,71.92,2.07Z"/><path class="cls-29" d="M98.9,2.07h0Z"/><path class="cls-73" d="M103.83,56.07l-5-2c1-3.59,4-1.32,6-2C106.11,53.81,104.38,54.79,103.83,56.07Z"/><path class="cls-43" d="M111,32.94C112.06,35.88,112,39,112,42,109.66,39.24,111.23,36,111,32.94Z"/><path class="cls-69" d="M111.94,64.78l1.93.56c.71,1.21,2.08,2.06,2,3.69l0,0c-1.73.54-2.61-.69-3.61-1.69C111.71,66.56,111.15,65.74,111.94,64.78Z"/><path class="cls-74" d="M85.67,48.79a2.8,2.8,0,0,0,0,.41h0a.57.57,0,0,0-.56.25c-.13-2.44-.25-4.89-.38-7.34C86.67,44.13,85.71,46.52,85.67,48.79Z"/><path class="cls-75" d="M61.89,62l-6,0a12.47,12.47,0,0,1-6,0l-3-3c3.41-3.1,8.57-1,12-4h0c1.51-1.16,3.51.22,5-1a72.57,72.57,0,0,1,16-1c2.43,4.33,1.91,6.7-2,9l-4,0A30.32,30.32,0,0,0,61.89,62Z"/><path class="cls-76" d="M77.86,62.05c2.87-2.5,2.4-5.74,2-9l11,2c1.1,1.12,2.68,1.3,4,2a10.45,10.45,0,0,1,8,4c1.55,1.91,3.16,2.32,5,2.94.64,2.62-1,3.72-3,4.58a4,4,0,0,1-3.51-1c-3.55-3.28-7.93-3.65-12.45-3.55Z"/><path class="cls-77" d="M104.83,68.06c1.17-1.21,2.47-2.31,3-4h3.88a.81.81,0,0,1,.23.72l.89,2.27c.24,2.27-.71,3.57-3.06,3.72C108.22,69.71,105.38,71,104.83,68.06Z"/><path class="cls-50" d="M63.85,54.08c-1.4,1.66-3.31.75-5,1C60.26,53.42,62.17,54.31,63.85,54.08Z"/><path class="cls-78" d="M94.84,57.07c-1.71.1-3.24-.18-4-2A5.46,5.46,0,0,1,94.84,57.07Z"/><path class="cls-50" d="M49.86,62.06a8.92,8.92,0,0,1,6,0c-1.77,1.75-4,.7-6,1C49.87,62.73,49.86,62.4,49.86,62.06Z"/><path class="cls-79" d="M80.85,75.05a2.15,2.15,0,0,0-2,1c-4.38-.4-8.65.6-13,1,6-2.73,3.6-7.58,3-12h7c2,.32,4.24-.81,6,1C80.71,69,81.72,72.11,80.85,75.05Z"/><path class="cls-80" d="M80.85,75.05c-.85-3.13-2.8-6.38,1-9l7.92,0A7.17,7.17,0,0,1,90,67c2.45,6.08-3.5,5.8-6.1,8Z"/><path class="cls-81" d="M83.85,75.05c0-.17,0-.33,0-.49,0-3.93,3.7-1.58,5.1-3,1.22-1.2-3.43-3.88,1-4.59l5.89,1a.89.89,0,0,1,.3.8c0,.29-.11.44-.17.43-2.57,1.08-2.7,3.89-4.13,5.78Z"/><path class="cls-78" d="M88.85,64c4.51-1.58,10.13-.27,13,3a1.41,1.41,0,0,1-2,0Z"/><path class="cls-82" d="M99.82,67.07h2l3,1c1.3,1.57,3.57.75,5,2a.83.83,0,0,1,.27.83q-.12.42-.24.42a2,2,0,0,1-2.08-.23L102.89,70c-.93-.79-2.68-.29-3.06-2C99.83,67.74,99.83,67.4,99.82,67.07Z"/><path class="cls-47" d="M61.89,62a16.08,16.08,0,0,1,11.93,0Z"/><path class="cls-83" d="M99.83,68.07l3.06,2-3.06,0-3-1a.61.61,0,0,1-1,0V68Z"/><path class="cls-84" d="M109.84,71.05c0-.33,0-.66,0-1,2.19.18,1.69-2.32,3-3l3,2c0,.33,0,.66,0,1a8.5,8.5,0,0,1-5,1A.59.59,0,0,1,109.84,71.05Z"/><path class="cls-85" d="M109.84,71.05l1,0,1.92,2.17c-1.86-.25-3.66-.61-5-2.16Z"/><path class="cls-86" d="M95.84,69.05l1,0c-.34,2-.67,4-1,6h-4C92.05,72.3,90.57,68.43,95.84,69.05Z"/></g></g></svg>