<svg xmlns="http://www.w3.org/2000/svg" viewBox="0 0 75.19 138.02"><defs><style>.cls-1{fill:#5f7adb;}</style></defs><title>backpurple2</title><g id="Layer_2" data-name="Layer 2"><g id="Layer_1-2" data-name="Layer 1"><path class="cls-1" d="M74.28,129a6.07,6.07,0,0,1-5.12,9c-2.65.22-4.33-1.43-6-3.11Q33,104.74,2.85,74.6c-4-4-3.64-7.49.25-11.35Q33,33.46,62.84,3.51c3-3,6.32-5.27,10.12-1.65,4.16,3.95,1.79,7.44-1.44,10.67-17,17-33.78,34.09-51,50.77-4.49,4.34-5.17,6.61-.24,11.33,16.76,16.05,33,32.67,49.36,49.1C71.27,125.39,73.15,127,74.28,129Z"/><path class="cls-1" d="M74.28,129a6.07,6.07,0,0,1-5.12,9c-2.65.22-4.33-1.43-6-3.11Q33,104.74,2.85,74.6c-4-4-3.64-7.49.25-11.35Q33,33.46,62.84,3.51c3-3,6.32-5.27,10.12-1.65,4.16,3.95,1.79,7.44-1.44,10.67-17,17-33.78,34.09-51,50.77-4.49,4.34-5.17,6.61-.24,11.33,16.76,16.05,33,32.67,49.36,49.1C71.27,125.39,73.15,127,74.28,129Z"/></g></g></svg>