<svg xmlns="http://www.w3.org/2000/svg" viewBox="0 0 157.22 178.01"><defs><style>.cls-1{fill:#5f7adb;}</style></defs><title>backpurple</title><g id="Layer_2" data-name="Layer 2"><g id="Layer_1-2" data-name="Layer 1"><path class="cls-1" d="M157.22,110.63c.21,21.83-5.32,42.31-15.16,61.66-1.43,2.82-2.87,7.43-7.41,5.07s-1.4-6,.07-8.83c9-17.47,14-36,14.17-55.6.33-30.67-16.12-51.43-46.26-57C74,50.75,45.08,54.61,13.68,53.32,26.77,66.34,38,77.38,49.06,88.6c2.38,2.43,7.33,5,2.84,9.12-3.87,3.58-6.13-1-8.33-3.18C30,81.22,16.74,67.62,3.08,54.41c-3.84-3.7-4.29-5.92-.2-9.86C16.81,31.13,30.33,17.28,44.1,3.68c2-2,4.16-5.61,7.66-2.41,4.11,3.76,0,6.19-2.17,8.42C38.41,21,27.06,32.09,13.78,45.24c22.61,0,42.56.08,62.5,0a122.75,122.75,0,0,1,33.8,4.08C140.05,57.61,156.94,79.49,157.22,110.63Z"/><path class="cls-1" d="M157.22,110.63c.21,21.83-5.32,42.31-15.16,61.66-1.43,2.82-2.87,7.43-7.41,5.07s-1.4-6,.07-8.83c9-17.47,14-36,14.17-55.6.33-30.67-16.12-51.43-46.26-57C74,50.75,45.08,54.61,13.68,53.32,26.77,66.34,38,77.38,49.06,88.6c2.38,2.43,7.33,5,2.84,9.12-3.87,3.58-6.13-1-8.33-3.18C30,81.22,16.74,67.62,3.08,54.41c-3.84-3.7-4.29-5.92-.2-9.86C16.81,31.13,30.33,17.28,44.1,3.68c2-2,4.16-5.61,7.66-2.41,4.11,3.76,0,6.19-2.17,8.42C38.41,21,27.06,32.09,13.78,45.24c22.61,0,42.56.08,62.5,0a122.75,122.75,0,0,1,33.8,4.08C140.05,57.61,156.94,79.49,157.22,110.63Z"/></g></g></svg>