<svg xmlns="http://www.w3.org/2000/svg" viewBox="0 0 333.42 361.62"><defs><style>.cls-1{fill:#6b727f;}.cls-2{fill:#fefefe;}.cls-3{fill:#6b7280;}</style></defs><title>company</title><g id="Layer_2" data-name="Layer 2"><g id="Layer_1-2" data-name="Layer 1"><path class="cls-1" d="M63.37,118.55c.14,5.29,4.56,14.19-6.61,14.94-12.87.88-7.52-9.1-9.08-15.24,2.21-5.45-4.63-15.81,8.17-15.7C68.48,102.63,63.2,112.71,63.37,118.55Z"/><path class="cls-1" d="M48.24,258.72c-.14-5.32-4.5-14.14,6.58-15,13.1-1,7.07,9.33,9.38,14.55-2.51,6.09,4.41,16.43-8.37,16.42S48.39,264.55,48.24,258.72Z"/><path class="cls-1" d="M48.22,163.77c-.41-5.37-3.93-14.22,7.36-14.24,12.92,0,6.21,10.11,8.37,15.66-1.78,6,4,16.3-8.89,15.3C42.76,179.55,48.67,169.67,48.22,163.77Z"/><path class="cls-1" d="M48,69.5c.12-6.92,5.09-6.38,9.75-6.26,5.53.14,5.79,4,5.91,8.13.17,6.24-3.18,8-8,7.19C47.94,79,47.91,74.33,48,69.5Z"/><path class="cls-1" d="M55.67,196.67c13.27-.31,5.14,10.63,8.52,14.71-1.9,7,3.6,17-9.25,16.26-11.15-.69-6.89-9.58-6.7-14.9C48.45,206.92,43.05,197,55.67,196.67Z"/><path class="cls-1" d="M61.92,293.08c2.37,4.92,1.7,11.29,2.35,16.93-.65,5.93,0,12.27-2.27,17.25-2.13,4.6-8.1,3.2-12,.9-3.27-1.92-3.29-33.76-.05-35.86C53.86,289.76,59.84,288.75,61.92,293.08Z"/><path class="cls-1" d="M95.06,118.55c.15,5.29,4.56,14.13-6.61,15-13.11,1-7-9.43-9.35-14.57,2.49-6.14-4.35-16.5,8.45-16.39C100.18,102.63,94.9,112.71,95.06,118.55Z"/><path class="cls-1" d="M95.09,165.22c.07,5.87,4.69,15.8-8.23,15.39-11.59-.39-4.91-9.77-7.86-14.09,2.76-6.22-4.47-16.47,8.16-16.91C100,149.18,95,159.37,95.09,165.22Z"/><path class="cls-1" d="M95.68,212.7c-1.92,5.43,3.86,14.39-7.42,14.94-12.82.61-8.5-9.33-8.35-15.24s-5-16,7.82-15.73S93.28,207.21,95.68,212.7Z"/><path class="cls-1" d="M95.62,258.92c-2.23,5.41,4.69,15.75-8.09,15.74s-7.44-10.11-7.59-15.94c-.15-5.32-4.5-14.18,6.58-15C99.38,242.74,94.1,252.72,95.62,258.92Z"/><path class="cls-1" d="M79.63,71.56c-.2-5.56,1.56-8.48,7.74-8.49,5.94,0,8.52,2.37,7.91,8.21.56,6.33-3.16,7.56-8.59,7.42C81.72,78.58,79.8,76.34,79.63,71.56Z"/><path class="cls-1" d="M119.33,227.59c-12.83.19-6.09-10.15-8.26-15.66,1.64-6.06-3.86-16.07,9-15.3,11.14.69,6.89,9.57,6.69,14.89C126.55,217.34,132,227.4,119.33,227.59Z"/><path class="cls-1" d="M127.37,258.58c-2.39,5.49,4.75,15.75-7.91,16.08s-7.73-9.84-7.85-15.67S107,243.14,119.9,243.7C131.18,244.2,125.49,253.16,127.37,258.58Z"/><path class="cls-1" d="M127.37,164.34c-2.43,5.49,4.8,15.73-7.83,16.16-12.8.43-7.86-9.76-7.93-15.61s-4.69-15.84,8.23-15.36C131.17,150,125.51,158.92,127.37,164.34Z"/><path class="cls-1" d="M111.63,117.49c-.14-5.32-4.49-14.18,6.58-15,12.86-1,7.59,9,9.11,15.19-2.24,5.43,4.69,15.75-8.1,15.75S111.79,123.32,111.63,117.49Z"/><path class="cls-1" d="M111.29,70.86c0-6.06,2.82-8,8.49-7.75,4.76.17,7.19,1.89,7.3,6.9.12,5.31-.94,9.14-7.42,8.6C113.85,79.2,111.29,76.8,111.29,70.86Z"/><path class="cls-1" d="M159.56,309.41c-4.15,6.34,6.21,19.3-8.26,19.84-15,.55-7.72-12.59-7.72-19.12s-7.4-19.39,7.88-19.07C165.08,291.36,155.72,303.36,159.56,309.41Z"/><path class="cls-1" d="M159.07,212.7c-1.92,5.43,3.86,14.39-7.41,14.94-12.82.61-8.5-9.33-8.36-15.24s-5-16,7.83-15.73S156.68,207.21,159.07,212.7Z"/><path class="cls-1" d="M159.07,164.49c-2.38,5.5,4.76,15.76-7.95,16s-7.67-9.88-7.82-15.72-4.47-15.87,8.35-15.25C162.93,150.11,157.15,159.07,159.07,164.49Z"/><path class="cls-1" d="M143.33,117.36c-.19-5.31-4.46-14.15,6.69-14.9,13.14-.88,6.78,9.57,9.3,14.59-2.47,6.22,4.27,16.57-8.55,16.38C138.16,133.24,143.54,123.19,143.33,117.36Z"/><path class="cls-1" d="M143.08,69.5c.12-6.92,5.1-6.38,9.75-6.26,5.53.14,5.8,4,5.91,8.13.17,6.24-3.18,8-8,7.19C143,79,143,74.33,143.08,69.5Z"/><path class="cls-1" d="M143.33,258.27c-.3-5.32-4.25-14.11,7-14.6,13.35-.58,6,10.12,9.06,14.62-2.38,6.54,4,16.95-8.89,16.37C138,274.08,143.66,264.13,143.33,258.27Z"/><path class="cls-1" d="M333.4,109.77c.07-11.63-2.47-16.28-15.19-15.6-20.4,1.07-40.92.77-61.35.11-16.27-.52-37,7.12-47.55-3.25-9.65-9.48-2.85-29.82-2.64-45.31.15-11.1-3.37-15.8-14.52-14-13.42,2.15-20.06-2.51-17.48-16.7C177,2.33,170.75-.16,159.12.05,122.18.7,85.21.81,48.28,0,35.42-.26,29.89,3.31,32,16.26,33.87,27.67,30.07,34,17.23,31.67,3,29.13,0,35.59,0,49q.84,147,0,294c-.09,14.23,2.93,19,18.25,18.67,48.81-1.07,97.65-.4,146.48-.4,50.81,0,101.63-.46,152.43.3,13.29.2,16.35-4,16.26-16.54Q332.63,227.37,333.4,109.77Zm-157.79,236a256.06,256.06,0,0,0-41.54,0c-12.88,1.06-16.25-4.15-15-15.69.76-7.11-.71-14.47.31-21.53,2.15-14.81-3.55-19.48-18.42-18.36-9.84.74-13.84,2.61-13.76,13.24.09,13.46,6.49,31.31-2.9,39.35-9.86,8.46-27.76,2.4-42.13,2.63-26,.39-26,.1-26-25.87,0-85,.3-169.93-.3-254.89-.1-13.35,2.9-19.83,17.2-17.28,12.84,2.3,16.64-4,14.77-15.43-2.12-13,3.44-16.69,16.3-16.24,26.37.93,52.81.83,79.19,0,11.78-.36,17.74,2.5,15.48,15-2.6,14.32,4.28,18.75,17.57,16.61,11.34-1.82,14.5,3.12,14.36,14.14-.56,45.1-.23,90.19-.23,135.29,0,44.44-.36,88.89.24,133.33C190.92,341.67,188.45,346.82,175.61,345.77Zm141.87-12.21c0,9.55-3.32,12.26-12.57,12.11-28.35-.45-56.73-.73-85.06.11-12.26.37-13.81-4.9-13.67-15.07.49-34.59.19-69.21.19-103.81,0-34,.57-67.94-.3-101.87-.32-12.39,3.72-15.51,15.67-15.15,27.67.81,55.39.55,83.08.11,9.15-.16,12.71,2.37,12.66,12Q317,227.78,317.48,333.56ZM293.61,126c-6.1-.59-8.17,2.44-8,8.12.18,4.59,1.58,7.31,6.8,7.38s9-.77,9-7.25C301.45,128.67,299.76,125.43,293.61,126Zm.51,94c-5.68-.21-8.49,1.69-8.49,7.74s2.55,8.36,8.37,7.76c6.48.54,7.54-3.29,7.42-8.6C301.31,221.92,298.88,220.21,294.12,220Zm-.11,31.4c-4.18.18-8.07.39-8.21,5.86-.12,4.62-.67,9.54,6.32,9.65,4.87.08,9.6.06,9.19-6.88C301.86,254.8,300.45,251.18,294,251.43Zm0,31.39c-4.18.17-8.07.38-8.21,5.86-.12,4.61-.67,9.53,6.32,9.65,4.87.09,9.6.06,9.19-6.88C301.86,286.18,300.45,282.56,294,282.82Zm-.8-125.57c-4.57.19-7.48,1.44-7.53,6.65s.63,8.93,7.21,9c5.58,0,9-1.5,8.42-7.63C301.91,159.25,299,157,293.21,157.25Zm.46,31.4c-4.34.15-7.88.82-7.95,6.15-.05,4.69-.34,9.4,6.65,9.42,5.12,0,9.39-.55,8.92-7.16C301.91,191.49,299.83,188.44,293.67,188.65Zm0,125.54c-4.34.14-7.88.82-7.95,6.15-.05,4.68-.34,9.4,6.65,9.41,5.12,0,9.39-.54,8.92-7.14C301.91,317,299.83,314,293.67,314.19ZM260.42,141.42c4.88.07,9.6,0,9.2-6.89.54-5.27-.87-8.89-7.31-8.63-4.18.16-8.07.38-8.21,5.86C254,136.37,253.43,141.3,260.42,141.42ZM261,298.29c5.31.55,9-.85,8.71-7.23-.17-4.14-.39-8-5.92-8.13-4.65-.12-9.63-.66-9.74,6.26C254,294,254,298.69,261,298.29Zm-.31-125.46c5.12,0,9.39-.53,8.93-7.15.61-5.59-1.47-8.63-7.63-8.42-4.34.16-7.88.83-7.94,6.16C254,168.11,253.68,172.82,260.67,172.83ZM262,220c-4.34.15-7.88.84-7.94,6.15-.06,4.7-.35,9.41,6.64,9.43,5.12,0,9.39-.56,8.93-7.16C270.21,222.87,268.13,219.82,262,220Zm.21,94.17c-4.25.11-8,.54-8.11,6-.09,4.63-.54,9.49,6.45,9.56,5,.06,9.5-.21,9.05-7.67C270.43,317.14,268.38,314,262.18,314.2ZM261.5,267c4.25-.1,8-.54,8.1-6,.09-4.62.54-9.49-6.44-9.57-5-.05-9.51.22-9.05,7.68C253.25,264.06,255.3,267.16,261.5,267Zm-.24-62.73c5.64,0,8.91-1.65,8.28-8.4,1-5.71-2.61-7.29-8.14-7.19-4.65.07-7.39,1.53-7.44,6.7S254.72,204.24,261.26,204.26Zm-31.68,47.26c-6.59-.51-7.38,3.53-7.32,8.72s2.74,6.59,7.4,6.77c5.74.23,8.4-1.85,8.38-7.84S235.3,250.92,229.58,251.52Zm0-94.16c-6.59-.5-7.38,3.54-7.32,8.72s2.74,6.59,7.4,6.78c5.74.22,8.4-1.86,8.38-7.85S235.3,156.76,229.58,157.36Zm.43-16c4.8.84,8.14-1,8-7.19-.11-4.14-.37-8-5.9-8.13-4.66-.12-9.64-.65-9.75,6.26C222.25,137.09,222.27,141.77,230,141.33Zm-7.74,87.16c.17,4.77,2.08,7,7.06,7.14,5.43.13,9.15-1.11,8.59-7.43.61-5.83-2-8.21-7.91-8.21C223.83,220,222.07,222.92,222.27,228.49Zm7,54.3c-5.06.12-6.79,2.51-7,7.23-.21,5.62,1.71,8.4,7.82,8.4s8.43-2.52,7.83-8.27C238.47,283.72,234.61,282.67,229.24,282.79Zm8.72-85c.06-4.93-.21-9.41-7.74-8.95-5-.87-8.1,1.16-7.94,7.31.12,4.2.55,7.92,6,8C233,204.22,237.88,204.67,238,197.75Zm-7.74,116.58c-5-.86-8.1,1.17-7.94,7.32.12,4.21.55,7.91,6,8,4.68.09,9.58.53,9.66-6.38C238,318.36,237.75,313.88,230.22,314.33Z"/><path class="cls-2" d="M63.37,118.55c.14,5.29,4.56,14.19-6.61,14.94-12.87.88-7.52-9.1-9.08-15.24,2.21-5.45-4.63-15.81,8.17-15.7C68.48,102.63,63.2,112.71,63.37,118.55Z"/><path class="cls-2" d="M48.24,258.72c-.14-5.32-4.5-14.14,6.58-15,13.1-1,7.07,9.33,9.38,14.55-2.51,6.09,4.41,16.43-8.37,16.42S48.39,264.55,48.24,258.72Z"/><path class="cls-2" d="M48.22,163.77c-.41-5.37-3.93-14.22,7.36-14.24,12.92,0,6.21,10.11,8.37,15.66-1.78,6,4,16.3-8.89,15.3C42.76,179.55,48.67,169.67,48.22,163.77Z"/><path class="cls-2" d="M48,69.5c.12-6.92,5.09-6.38,9.75-6.26,5.53.14,5.79,4,5.91,8.13.17,6.24-3.18,8-8,7.19C47.94,79,47.91,74.33,48,69.5Z"/><path class="cls-2" d="M55.67,196.67c13.27-.31,5.14,10.63,8.52,14.71-1.9,7,3.6,17-9.25,16.26-11.15-.69-6.89-9.58-6.7-14.9C48.45,206.92,43.05,197,55.67,196.67Z"/><path class="cls-2" d="M61.92,293.08c2.37,4.92,1.7,11.29,2.35,16.93-.65,5.93,0,12.27-2.27,17.25-2.13,4.6-8.1,3.2-12,.9-3.27-1.92-3.29-33.76-.05-35.86C53.86,289.76,59.84,288.75,61.92,293.08Z"/><path class="cls-2" d="M95.06,118.55c.15,5.29,4.56,14.13-6.61,15-13.11,1-7-9.43-9.35-14.57,2.49-6.14-4.35-16.5,8.45-16.39C100.18,102.63,94.9,112.71,95.06,118.55Z"/><path class="cls-2" d="M95.09,165.22c.07,5.87,4.69,15.8-8.23,15.39-11.59-.39-4.91-9.77-7.86-14.09,2.76-6.22-4.47-16.47,8.16-16.91C100,149.18,95,159.37,95.09,165.22Z"/><path class="cls-2" d="M95.68,212.7c-1.92,5.43,3.86,14.39-7.42,14.94-12.82.61-8.5-9.33-8.35-15.24s-5-16,7.82-15.73S93.28,207.21,95.68,212.7Z"/><path class="cls-2" d="M95.62,258.92c-2.23,5.41,4.69,15.75-8.09,15.74s-7.44-10.11-7.59-15.94c-.15-5.32-4.5-14.18,6.58-15C99.38,242.74,94.1,252.72,95.62,258.92Z"/><path class="cls-2" d="M79.63,71.56c-.2-5.56,1.56-8.48,7.74-8.49,5.94,0,8.52,2.37,7.91,8.21.56,6.33-3.16,7.56-8.59,7.42C81.72,78.58,79.8,76.34,79.63,71.56Z"/><path class="cls-2" d="M119.33,227.59c-12.83.19-6.09-10.15-8.26-15.66,1.64-6.06-3.86-16.07,9-15.3,11.14.69,6.89,9.57,6.69,14.89C126.55,217.34,132,227.4,119.33,227.59Z"/><path class="cls-2" d="M127.37,258.58c-2.39,5.49,4.75,15.75-7.91,16.08s-7.73-9.84-7.85-15.67S107,243.14,119.9,243.7C131.18,244.2,125.49,253.16,127.37,258.58Z"/><path class="cls-2" d="M127.37,164.34c-2.43,5.49,4.8,15.73-7.83,16.16-12.8.43-7.86-9.76-7.93-15.61s-4.69-15.84,8.23-15.36C131.17,150,125.51,158.92,127.37,164.34Z"/><path class="cls-2" d="M111.63,117.49c-.14-5.32-4.49-14.18,6.58-15,12.86-1,7.59,9,9.11,15.19-2.24,5.43,4.69,15.75-8.1,15.75S111.79,123.32,111.63,117.49Z"/><path class="cls-2" d="M111.29,70.86c0-6.06,2.82-8,8.49-7.75,4.76.17,7.19,1.89,7.3,6.9.12,5.31-.94,9.14-7.42,8.6C113.85,79.2,111.29,76.8,111.29,70.86Z"/><path class="cls-2" d="M151.3,329.25c-15,.55-7.72-12.59-7.72-19.12s-7.4-19.39,7.88-19.07c13.62.3,4.26,12.3,8.1,18.35C155.41,315.75,165.77,328.71,151.3,329.25Z"/><path class="cls-2" d="M159.07,212.7c-1.92,5.43,3.86,14.39-7.41,14.94-12.82.61-8.5-9.33-8.36-15.24s-5-16,7.83-15.73S156.68,207.21,159.07,212.7Z"/><path class="cls-2" d="M159.07,164.49c-2.38,5.5,4.76,15.76-7.95,16s-7.67-9.88-7.82-15.72-4.47-15.87,8.35-15.25C162.93,150.11,157.15,159.07,159.07,164.49Z"/><path class="cls-2" d="M143.33,117.36c-.19-5.31-4.46-14.15,6.69-14.9,13.14-.88,6.78,9.57,9.3,14.59-2.47,6.22,4.27,16.57-8.55,16.38C138.16,133.24,143.54,123.19,143.33,117.36Z"/><path class="cls-2" d="M143.08,69.5c.12-6.92,5.1-6.38,9.75-6.26,5.53.14,5.8,4,5.91,8.13.17,6.24-3.18,8-8,7.19C143,79,143,74.33,143.08,69.5Z"/><path class="cls-2" d="M143.33,258.27c-.3-5.32-4.25-14.11,7-14.6,13.35-.58,6,10.12,9.06,14.62-2.38,6.54,4,16.95-8.89,16.37C138,274.08,143.66,264.13,143.33,258.27Z"/><path class="cls-2" d="M238,323.29c-.08,6.91-5,6.47-9.66,6.38-5.47-.11-5.9-3.81-6-8-.16-6.15,3-8.18,7.94-7.32C237.75,313.88,238,318.36,238,323.29Z"/><path class="cls-2" d="M228.3,204.14c-5.47-.11-5.9-3.83-6-8-.16-6.15,3-8.18,7.94-7.31,7.53-.46,7.8,4,7.74,8.95C237.88,204.67,233,204.22,228.3,204.14Z"/><path class="cls-2" d="M237.92,290.15c.6,5.75-1.82,8.27-7.83,8.27s-8-2.78-7.82-8.4c.18-4.72,1.91-7.11,7-7.23C234.61,282.67,238.47,283.72,237.92,290.15Z"/><path class="cls-2" d="M230,220c5.94,0,8.52,2.38,7.91,8.21.56,6.32-3.16,7.56-8.59,7.43-5-.13-6.89-2.37-7.06-7.14C222.07,222.92,223.83,220,230,220Z"/><path class="cls-2" d="M222.33,132.27c.11-6.91,5.09-6.38,9.75-6.26,5.53.14,5.79,4,5.9,8.13.17,6.23-3.17,8-8,7.19C222.27,141.77,222.25,137.09,222.33,132.27Z"/><path class="cls-2" d="M238,165c0,6-2.64,8.07-8.38,7.85-4.66-.19-7.35-1.62-7.4-6.78s.73-9.22,7.32-8.72C235.3,156.76,238,159,238,165Z"/><path class="cls-2" d="M238,259.17c0,6-2.64,8.07-8.38,7.84-4.66-.18-7.35-1.62-7.4-6.77s.73-9.23,7.32-8.72C235.3,250.92,238,253.16,238,259.17Z"/><path class="cls-2" d="M254,195.37c0-5.17,2.79-6.63,7.44-6.7,5.53-.1,9.11,1.48,8.14,7.19.63,6.75-2.64,8.42-8.28,8.4C254.72,204.24,253.9,200.55,254,195.37Z"/><path class="cls-2" d="M254.11,259.14c-.46-7.46,4.07-7.73,9.05-7.68,7,.08,6.53,5,6.44,9.57-.1,5.42-3.85,5.86-8.1,6C255.3,267.16,253.25,264.06,254.11,259.14Z"/><path class="cls-2" d="M269.57,322.05c.45,7.46-4.07,7.73-9.05,7.67-7-.07-6.54-4.93-6.45-9.56.11-5.42,3.86-5.85,8.11-6C268.38,314,270.43,317.14,269.57,322.05Z"/><path class="cls-2" d="M269.6,228.45c.46,6.6-3.81,7.17-8.93,7.16-7,0-6.7-4.73-6.64-9.43.06-5.31,3.6-6,7.94-6.15C268.13,219.82,270.21,222.87,269.6,228.45Z"/><path class="cls-2" d="M254,163.42c.06-5.33,3.6-6,7.94-6.16,6.16-.21,8.24,2.83,7.63,8.42.46,6.62-3.81,7.18-8.93,7.15C253.68,172.82,254,168.11,254,163.42Z"/><path class="cls-2" d="M254,289.19c.11-6.92,5.09-6.38,9.74-6.26,5.53.14,5.75,4,5.92,8.13.26,6.38-3.4,7.78-8.71,7.23C254,298.69,254,294,254,289.19Z"/><path class="cls-2" d="M254.1,131.76c.14-5.48,4-5.7,8.21-5.86,6.44-.26,7.85,3.36,7.31,8.63.4,6.93-4.32,7-9.2,6.89C253.43,141.3,254,136.37,254.1,131.76Z"/><path class="cls-2" d="M301.29,322.61c.47,6.6-3.8,7.16-8.92,7.14-7,0-6.7-4.73-6.65-9.41.07-5.33,3.61-6,7.95-6.15C299.83,314,301.91,317,301.29,322.61Z"/><path class="cls-2" d="M301.29,197.06c.47,6.61-3.8,7.18-8.92,7.16-7,0-6.7-4.73-6.65-9.42.07-5.33,3.61-6,7.95-6.15C299.83,188.44,301.91,191.49,301.29,197.06Z"/><path class="cls-2" d="M301.31,165.24c.56,6.13-2.84,7.66-8.42,7.63-6.58,0-7.26-3.87-7.21-9s3-6.46,7.53-6.65C299,157,301.91,159.25,301.31,165.24Z"/><path class="cls-2" d="M301.31,291.45c.41,6.94-4.32,7-9.19,6.88-7-.12-6.44-5-6.32-9.65.14-5.48,4-5.69,8.21-5.86C300.45,282.56,301.86,286.18,301.31,291.45Z"/><path class="cls-2" d="M301.31,260.06c.41,6.94-4.32,7-9.19,6.88-7-.11-6.44-5-6.32-9.65.14-5.47,4-5.68,8.21-5.86C300.45,251.18,301.86,254.8,301.31,260.06Z"/><path class="cls-2" d="M301.42,226.93c.12,5.31-.94,9.14-7.42,8.6-5.82.6-8.37-1.81-8.37-7.76s2.81-8,8.49-7.74C298.88,220.21,301.31,221.92,301.42,226.93Z"/><path class="cls-2" d="M285.65,134.11c-.21-5.68,1.86-8.71,8-8.12,6.15-.56,7.84,2.68,7.82,8.25,0,6.48-3.75,7.29-9,7.25S285.83,138.7,285.65,134.11Z"/><path class="cls-1" d="M151.3,329.25c-15,.55-7.72-12.59-7.72-19.12s-7.4-19.39,7.88-19.07c13.62.3,4.26,12.3,8.1,18.35C155.41,315.75,165.77,328.71,151.3,329.25Z"/><path class="cls-1" d="M64.27,310c-.65,5.93,0,12.27-2.27,17.25-2.13,4.6-8.1,3.2-12,.9-3.27-1.92-3.29-33.76-.05-35.86,4-2.54,9.93-3.55,12,.78C64.29,298,63.62,304.37,64.27,310Z"/><path class="cls-1" d="M150.48,274.66c-12.45-.58-6.82-10.53-7.15-16.39-.3-5.32-4.25-14.11,7-14.6,13.35-.58,6,10.12,9.06,14.62C157,264.83,163.41,275.24,150.48,274.66Z"/><path class="cls-1" d="M56.76,133.49c-12.87.88-7.52-9.1-9.08-15.24,2.21-5.45-4.63-15.81,8.17-15.7,12.63.08,7.35,10.16,7.52,16C63.51,123.84,67.93,132.74,56.76,133.49Z"/><path class="cls-1" d="M88.45,133.51c-13.11,1-7-9.43-9.35-14.57,2.49-6.14-4.35-16.5,8.45-16.39,12.63.08,7.35,10.16,7.51,16C95.21,123.84,99.62,132.68,88.45,133.51Z"/><path class="cls-1" d="M119.22,133.43c-12.65,0-7.43-10.11-7.59-15.94-.14-5.32-4.49-14.18,6.58-15,12.86-1,7.59,9,9.11,15.19C125.08,123.11,132,133.43,119.22,133.43Z"/><path class="cls-1" d="M150.77,133.43c-12.61-.19-7.23-10.24-7.44-16.07-.19-5.31-4.46-14.15,6.69-14.9,13.14-.88,6.78,9.57,9.3,14.59C156.85,123.27,163.59,133.62,150.77,133.43Z"/><path class="cls-1" d="M119.46,274.66c-12.78.33-7.73-9.84-7.85-15.67S107,243.14,119.9,243.7c11.28.5,5.59,9.46,7.47,14.88C125,264.07,132.12,274.33,119.46,274.66Z"/><path class="cls-1" d="M87.53,274.66c-12.66,0-7.44-10.11-7.59-15.94-.15-5.32-4.5-14.18,6.58-15,12.86-1,7.58,9,9.1,15.22C93.39,264.33,100.31,274.67,87.53,274.66Z"/><path class="cls-1" d="M55.83,274.66c-12.66,0-7.44-10.11-7.59-15.94-.14-5.32-4.5-14.14,6.58-15,13.1-1,7.07,9.33,9.38,14.55C61.69,264.33,68.61,274.67,55.83,274.66Z"/><path class="cls-1" d="M55.06,180.49c-12.3-.94-6.39-10.82-6.84-16.72-.41-5.37-3.93-14.22,7.36-14.24,12.92,0,6.21,10.11,8.37,15.66C62.17,171.15,68,181.49,55.06,180.49Z"/><path class="cls-1" d="M95.09,165.22c.07,5.87,4.69,15.8-8.23,15.39-11.59-.39-4.91-9.77-7.86-14.09,2.76-6.22-4.47-16.47,8.16-16.91C100,149.18,95,159.37,95.09,165.22Z"/><path class="cls-1" d="M119.54,180.5c-12.8.43-7.86-9.76-7.93-15.61s-4.69-15.84,8.23-15.36c11.33.43,5.67,9.39,7.53,14.81C124.94,169.83,132.17,180.07,119.54,180.5Z"/><path class="cls-1" d="M151.12,180.52c-12.78.26-7.67-9.88-7.82-15.72s-4.47-15.87,8.35-15.25c11.28.56,5.5,9.52,7.42,14.94C156.69,170,163.83,180.25,151.12,180.52Z"/><path class="cls-1" d="M151.66,227.64c-12.82.61-8.5-9.33-8.36-15.24s-5-16,7.83-15.73,5.55,10.54,7.94,16C157.15,218.13,162.93,227.09,151.66,227.64Z"/><path class="cls-1" d="M119.33,227.59c-12.83.19-6.09-10.15-8.26-15.66,1.64-6.06-3.86-16.07,9-15.3,11.14.69,6.89,9.57,6.69,14.89C126.55,217.34,132,227.4,119.33,227.59Z"/><path class="cls-1" d="M88.26,227.64c-12.82.61-8.5-9.33-8.35-15.24s-5-16,7.82-15.73,5.55,10.54,8,16C93.76,218.13,99.54,227.09,88.26,227.64Z"/><path class="cls-1" d="M54.94,227.64c-11.15-.69-6.89-9.58-6.7-14.9.21-5.82-5.19-15.79,7.43-16.07,13.27-.31,5.14,10.63,8.52,14.71C62.29,218.41,67.79,228.42,54.94,227.64Z"/><path class="cls-3" d="M158.74,71.37c.17,6.24-3.18,8-8,7.19C143,79,143,74.33,143.08,69.5c.12-6.92,5.1-6.38,9.75-6.26C158.36,63.38,158.63,67.24,158.74,71.37Z"/><path class="cls-3" d="M119.66,78.61c-5.81.59-8.37-1.81-8.37-7.75s2.82-8,8.49-7.75c4.76.17,7.19,1.89,7.3,6.9C127.2,75.32,126.14,79.15,119.66,78.61Z"/><path class="cls-3" d="M95.28,71.28c.56,6.33-3.16,7.56-8.59,7.42-5-.12-6.89-2.36-7.06-7.14-.2-5.56,1.56-8.48,7.74-8.49C93.31,63.06,95.89,65.44,95.28,71.28Z"/><path class="cls-3" d="M63.65,71.37c.17,6.24-3.18,8-8,7.19C47.94,79,47.91,74.33,48,69.5c.12-6.92,5.09-6.38,9.75-6.26C63.27,63.38,63.53,67.24,63.65,71.37Z"/><path class="cls-3" d="M269.54,195.86c.63,6.75-2.64,8.42-8.28,8.4-6.54,0-7.36-3.71-7.3-8.89s2.79-6.63,7.44-6.7C266.93,188.57,270.51,190.15,269.54,195.86Z"/><path class="cls-3" d="M301.29,197.06c.47,6.61-3.8,7.18-8.92,7.16-7,0-6.7-4.73-6.65-9.42.07-5.33,3.61-6,7.95-6.15C299.83,188.44,301.91,191.49,301.29,197.06Z"/><path class="cls-3" d="M238,197.75c-.08,6.92-5,6.47-9.66,6.39-5.47-.11-5.9-3.83-6-8-.16-6.15,3-8.18,7.94-7.31C237.75,188.34,238,192.82,238,197.75Z"/><path class="cls-3" d="M301.31,165.24c.56,6.13-2.84,7.66-8.42,7.63-6.58,0-7.26-3.87-7.21-9s3-6.46,7.53-6.65C299,157,301.91,159.25,301.31,165.24Z"/><path class="cls-3" d="M269.6,165.68c.46,6.62-3.81,7.18-8.93,7.15-7,0-6.7-4.72-6.64-9.41.06-5.33,3.6-6,7.94-6.16C268.13,157.05,270.21,160.09,269.6,165.68Z"/><path class="cls-3" d="M238,165c0,6-2.64,8.07-8.38,7.85-4.66-.19-7.35-1.62-7.4-6.78s.73-9.22,7.32-8.72C235.3,156.76,238,159,238,165Z"/><path class="cls-3" d="M237.92,228.2c.56,6.32-3.16,7.56-8.59,7.43-5-.13-6.89-2.37-7.06-7.14-.2-5.57,1.56-8.49,7.74-8.5C236,220,238.53,222.37,237.92,228.2Z"/><path class="cls-3" d="M269.6,228.45c.46,6.6-3.81,7.17-8.93,7.16-7,0-6.7-4.73-6.64-9.43.06-5.31,3.6-6,7.94-6.15C268.13,219.82,270.21,222.87,269.6,228.45Z"/><path class="cls-3" d="M294,235.53c-5.82.6-8.37-1.81-8.37-7.76s2.81-8,8.49-7.74c4.76.18,7.19,1.89,7.3,6.9C301.54,232.24,300.48,236.07,294,235.53Z"/><path class="cls-3" d="M301.43,134.24c0,6.48-3.75,7.29-9,7.25s-6.62-2.79-6.8-7.38c-.21-5.68,1.86-8.71,8-8.12C299.76,125.43,301.45,128.67,301.43,134.24Z"/><path class="cls-3" d="M269.62,134.53c.4,6.93-4.32,7-9.2,6.89-7-.12-6.44-5-6.32-9.66.14-5.48,4-5.7,8.21-5.86C268.75,125.64,270.16,129.26,269.62,134.53Z"/><path class="cls-3" d="M238,134.14c.17,6.23-3.17,8-8,7.19-7.74.44-7.76-4.24-7.68-9.06.11-6.91,5.09-6.38,9.75-6.26C237.61,126.15,237.87,130,238,134.14Z"/><path class="cls-3" d="M238,259.17c0,6-2.64,8.07-8.38,7.84-4.66-.18-7.35-1.62-7.4-6.77s.73-9.23,7.32-8.72C235.3,250.92,238,253.16,238,259.17Z"/><path class="cls-3" d="M269.6,261c-.1,5.42-3.85,5.86-8.1,6-6.2.17-8.25-2.93-7.39-7.85-.46-7.46,4.07-7.73,9.05-7.68C270.14,251.54,269.69,256.41,269.6,261Z"/><path class="cls-3" d="M301.31,260.06c.41,6.94-4.32,7-9.19,6.88-7-.11-6.44-5-6.32-9.65.14-5.47,4-5.68,8.21-5.86C300.45,251.18,301.86,254.8,301.31,260.06Z"/><path class="cls-3" d="M230.09,298.42c-6.11,0-8-2.78-7.82-8.4.18-4.72,1.91-7.11,7-7.23,5.37-.12,9.23.93,8.68,7.36C238.52,295.9,236.1,298.42,230.09,298.42Z"/><path class="cls-3" d="M261,298.29c-7,.4-7-4.27-7-9.1.11-6.92,5.09-6.38,9.74-6.26,5.53.14,5.75,4,5.92,8.13C270,297.44,266.29,298.84,261,298.29Z"/><path class="cls-3" d="M301.31,291.45c.41,6.94-4.32,7-9.19,6.88-7-.12-6.44-5-6.32-9.65.14-5.48,4-5.69,8.21-5.86C300.45,282.56,301.86,286.18,301.31,291.45Z"/><path class="cls-3" d="M238,323.29c-.08,6.91-5,6.47-9.66,6.38-5.47-.11-5.9-3.81-6-8-.16-6.15,3-8.18,7.94-7.32C237.75,313.88,238,318.36,238,323.29Z"/><path class="cls-3" d="M269.57,322.05c.45,7.46-4.07,7.73-9.05,7.67-7-.07-6.54-4.93-6.45-9.56.11-5.42,3.86-5.85,8.11-6C268.38,314,270.43,317.14,269.57,322.05Z"/><path class="cls-3" d="M301.29,322.61c.47,6.6-3.8,7.16-8.92,7.14-7,0-6.7-4.73-6.65-9.41.07-5.33,3.61-6,7.95-6.15C299.83,314,301.91,317,301.29,322.61Z"/></g></g></svg>