<svg xmlns="http://www.w3.org/2000/svg" viewBox="0 0 105.51 172.02"><defs><style>.cls-1{fill:#fefefe;}.cls-2{fill:#0d0d0d;}.cls-3{fill:#0f0f0f;}</style></defs><title>location</title><g id="Layer_2" data-name="Layer 2"><g id="Layer_1-2" data-name="Layer 1"><path class="cls-1" d="M104.92,44.38C98.88,11.48,66-8,35.17,3.16,22.47,7.77,12.79,15.93,6.53,28a5.28,5.28,0,0,0-1.46,2.65A44,44,0,0,0,.16,54.88c.76,9,4.23,17.27,7.49,25.54,11.81,30,26.16,58.79,39.85,87.91,1.1,2.33,2.79,3.74,5.43,3.69s4.2-1.41,5.3-3.81q10.07-21.86,20.31-43.62c8.35-17.8,16.49-35.7,23-54.27C104.57,61.92,106.57,53.38,104.92,44.38ZM71.34,63.53a21.72,21.72,0,0,1-24.68,10c-8.94-2.42-15.14-11-15.14-20.87A21,21,0,0,1,47.21,32.28c8.31-2,17.79-.31,24.53,10.65.67,1.72,1.33,3.43,2,5.14C74.06,53.4,74.21,58.63,71.34,63.53Z"/><path d="M104.92,44.38C98.88,11.48,66-8,35.17,3.16,22.47,7.77,12.79,15.93,6.53,28c-.39.94-.16,2.22-1.46,2.65A44,44,0,0,0,.16,54.88c.76,9,4.23,17.27,7.49,25.54,11.81,30,26.16,58.79,39.85,87.91,1.1,2.33,2.79,3.74,5.43,3.69s4.2-1.41,5.3-3.81q10.07-21.86,20.31-43.62c8.35-17.8,16.49-35.7,23-54.27C104.57,61.92,106.57,53.38,104.92,44.38ZM71.34,63.53a21.72,21.72,0,0,1-24.68,10c-8.94-2.42-15.14-11-15.14-20.87A21,21,0,0,1,47.21,32.28c8.31-2,17.79-.31,24.53,10.65.67,1.72,1.33,3.43,2,5.14C74.06,53.4,74.21,58.63,71.34,63.53Z"/><path class="cls-2" d="M5.07,30.64A5.28,5.28,0,0,1,6.53,28C6.48,29.12,7.15,30.64,5.07,30.64Z"/><path class="cls-1" d="M73.74,48.07c-.67-1.71-1.33-3.42-2-5.14A8.68,8.68,0,0,1,73.74,48.07Z"/><path class="cls-3" d="M73.74,48.07c-.67-1.71-1.33-3.42-2-5.14C73.72,44.14,74.18,45.93,73.74,48.07Z"/></g></g></svg>