<svg xmlns="http://www.w3.org/2000/svg" viewBox="0 0 463.37 682.02"><defs><style>.cls-1{fill:#26292b;}</style></defs><title>locationblack</title><g id="Layer_2" data-name="Layer 2"><g id="Layer_1-2" data-name="Layer 1"><path class="cls-1" d="M231.23,125.28C172,125.33,123.48,174,123.56,233.41c.08,59.68,49,108.41,108.56,108.22,59.19-.19,107.75-49.06,107.66-108.35A108.1,108.1,0,0,0,231.23,125.28Zm.58,185.83c-45.38-.51-78.47-37.92-77.45-77.83,0-42.73,35-77.72,77.56-77.67,42.43,0,77.24,35.36,77.07,78.15C308.83,276.08,273.88,311.59,231.81,311.11Z"/><path class="cls-1" d="M460.33,197.68c-10.68-65.61-43-118.49-97.83-155.57-70.9-47.94-148-55.41-225.61-20C47.55,62.83,4.58,136.64,0,218.41c0,49.26,6.85,81.68,21.53,112.28,12.93,26.95,29,52.17,43.79,78.09,29.46,51.64,59.41,103,89.11,154.52q31,53.79,61.94,107.64c2.25,3.9,4.55,7.81,9.11,9.65,8.68,3.51,15.44.69,21.5-9.68,8.86-15.16,17.41-30.5,26.17-45.71q45.27-78.6,90.6-157.16c20.95-36.29,41.53-72.8,63.05-108.75C456.78,309.19,469.8,255.8,460.33,197.68ZM417.63,310.3C410.29,329,399,345.81,389.05,363.2Q347.5,435.68,305.72,508c-24.42,42.35-48.89,84.67-74.06,128.25-14-24.31-27.36-47.51-40.75-70.69-35.74-61.91-71.78-123.64-107.1-185.78C69.71,355,53.05,331.4,43.48,304.27c-25.63-72.67-14.36-139.62,34-199.48C117.22,55.52,170.39,31.28,233,32.14c74.58,1,132.78,34.37,171.29,98.84C438.48,188.19,441.89,248.48,417.63,310.3Z"/><path class="cls-1" d="M231.23,125.28C172,125.33,123.48,174,123.56,233.41c.08,59.68,49,108.41,108.56,108.22,59.19-.19,107.75-49.06,107.66-108.35A108.1,108.1,0,0,0,231.23,125.28Zm.58,185.83c-45.38-.51-78.47-37.92-77.45-77.83,0-42.73,35-77.72,77.56-77.67,42.43,0,77.24,35.36,77.07,78.15C308.83,276.08,273.88,311.59,231.81,311.11Z"/><path class="cls-1" d="M460.33,197.68c-10.68-65.61-43-118.49-97.83-155.57-70.9-47.94-148-55.41-225.61-20C47.55,62.83,4.58,136.64,0,218.41c0,49.26,6.85,81.68,21.53,112.28,12.93,26.95,29,52.17,43.79,78.09,29.46,51.64,59.41,103,89.11,154.52q31,53.79,61.94,107.64c2.25,3.9,4.55,7.81,9.11,9.65,8.68,3.51,15.44.69,21.5-9.68,8.86-15.16,17.41-30.5,26.17-45.71q45.27-78.6,90.6-157.16c20.95-36.29,41.53-72.8,63.05-108.75C456.78,309.19,469.8,255.8,460.33,197.68ZM417.63,310.3C410.29,329,399,345.81,389.05,363.2Q347.5,435.68,305.72,508c-24.42,42.35-48.89,84.67-74.06,128.25-14-24.31-27.36-47.51-40.75-70.69-35.74-61.91-71.78-123.64-107.1-185.78C69.71,355,53.05,331.4,43.48,304.27c-25.63-72.67-14.36-139.62,34-199.48C117.22,55.52,170.39,31.28,233,32.14c74.58,1,132.78,34.37,171.29,98.84C438.48,188.19,441.89,248.48,417.63,310.3Z"/><path class="cls-1" d="M231.23,125.28C172,125.33,123.48,174,123.56,233.41c.08,59.68,49,108.41,108.56,108.22,59.19-.19,107.75-49.06,107.66-108.35A108.1,108.1,0,0,0,231.23,125.28Zm.58,185.83c-45.38-.51-78.47-37.92-77.45-77.83,0-42.73,35-77.72,77.56-77.67,42.43,0,77.24,35.36,77.07,78.15C308.83,276.08,273.88,311.59,231.81,311.11Z"/><path class="cls-1" d="M231.23,125.28C172,125.33,123.48,174,123.56,233.41c.08,59.68,49,108.41,108.56,108.22,59.19-.19,107.75-49.06,107.66-108.35A108.1,108.1,0,0,0,231.23,125.28Zm.58,185.83c-45.38-.51-78.47-37.92-77.45-77.83,0-42.73,35-77.72,77.56-77.67,42.43,0,77.24,35.36,77.07,78.15C308.83,276.08,273.88,311.59,231.81,311.11Z"/></g></g></svg>