<svg xmlns="http://www.w3.org/2000/svg" viewBox="0 0 169 101.08"><defs><style>.cls-1{fill:#26292b;}</style></defs><title>logo3</title><g id="Layer_2" data-name="Layer 2"><g id="Layer_1-2" data-name="Layer 1"><g id="Layer_2-2" data-name="Layer 2"><g id="Layer_1-2-2" data-name="Layer 1-2"><path class="cls-1" d="M42.79,18s-25-5-29,19c0,0-4,18,20,24,0,0,17-2,21-13C54.79,48,41.79,36,42.79,18Z"/><path class="cls-1" d="M126.59,16.56s25-5,29,19c0,0,4,18-20,24,0,0-17-2-21-13C114.59,46.56,127.59,34.56,126.59,16.56Z"/><circle class="cls-1" cx="84.79" cy="24" r="24"/><path class="cls-1" d="M31,70.08s-26,1-31,15v16H26v-19Z"/><path class="cls-1" d="M38,82.08v19h93v-19s-17-21-46-21C85,61.08,59,59.08,38,82.08Z"/><path class="cls-1" d="M138,69.08s10,8,7,32h24v-17S161,69.08,138,69.08Z"/></g></g></g></g></svg>