<svg xmlns="http://www.w3.org/2000/svg" viewBox="0 0 222.93 167.56"><defs><style>.cls-1{fill:#fefefe;}.cls-2{fill:#565656;}.cls-3{fill:#555;}</style></defs><title>mail</title><g id="Layer_2" data-name="Layer 2"><g id="Layer_1-2" data-name="Layer 1"><path class="cls-1" d="M222.93,148.41c-1.07,1.56-1.1,3.49-1.91,5.14-4.4,9-11.6,13.89-21.68,13.95-18.5.12-37,0-55.5,0H23.7c-11.86,0-21.87-8.4-23.32-19.48A1.22,1.22,0,0,1,0,148a.63.63,0,0,1,.32-.06H.39a.64.64,0,0,1,.31.23,6.79,6.79,0,0,1,.81,2.23,22.56,22.56,0,0,0,21.8,16.47q88.2,0,176.4,0a22.66,22.66,0,0,0,21.58-15.92C221.6,150,221.51,148.69,222.93,148.41Z"/><path d="M193.69,133.76a4.59,4.59,0,0,1-6.22,6.76c-3.71-3.23-7.31-6.59-10.95-9.91q-17.73-16.17-35.44-32.37c-1-.9-1.48-.87-2.33.14-4.21,5-9,9.12-15.26,11.5C110.22,115,96,111.44,86.14,100.57c-1-1.12-2-2.22-3.08-3.33L36.22,139.91c-2,1.84-4,2.26-5.91,1.24a4.42,4.42,0,0,1-2.45-4.67,5.62,5.62,0,0,1,2.26-3.58L65,101.16c3.48-3.17,6.91-6.39,10.48-9.46,1.27-1.1,1.13-1.66.06-2.82Q52.4,63.8,29.4,38.63c-1.85-2-2.11-4.18-.82-6.1a4.6,4.6,0,0,1,5.34-1.84,6.87,6.87,0,0,1,2.72,2.09C55.27,53.12,74,73.36,92.5,93.83c9.3,10.3,23.23,11.08,32.79,4.56,2.91-2,5.15-4.65,7.5-7.21q26.72-29.13,53.39-58.3c2-2.24,3.82-2.83,5.91-2,3.17,1.25,3.94,4.94,1.48,7.68-4.2,4.69-8.49,9.31-12.74,14Q164.09,70.76,147.34,89c-1,1.09-1,1.62.1,2.65q22.55,20.4,45,40.92C192.87,132.94,193.29,133.33,193.69,133.76Z"/><path d="M217.34,7.85A24.42,24.42,0,0,0,198.68,0H23.56A23.41,23.41,0,0,0,8.61,5.1C3.88,8.87.42,13.49.22,19.88c0,.1,0,.2,0,.3a1.21,1.21,0,0,0,0,.19A5.25,5.25,0,0,1,0,22.83V145.37c.51.8,0,1.73.32,2.55l.06.13c1.45,11.08,11.46,19.47,23.32,19.48H143.84c18.5,0,37,.09,55.5,0,10.08-.06,17.28-4.91,21.68-13.95.81-1.65.84-3.58,1.91-5.14V20.23A20.11,20.11,0,0,0,217.34,7.85ZM213.7,143c0,9.57-5.86,15.36-15.51,15.36H24.71c-7.62,0-13-3.69-14.87-10.22A18.26,18.26,0,0,1,9.22,143q0-58.86,0-117.73c0-9.47,5.84-15.35,15.29-15.35q87,0,173.91,0c9.45,0,15.28,5.88,15.29,15.36Q213.73,84.1,213.7,143Z"/><path class="cls-1" d="M222.93,20.23c-.89-1-.74-2.38-1.15-3.56-3.4-9.86-12-16-22.67-16h-98.8Q62,.67,23.71.68C11.84.69,1.84,9.07.38,20.16q-.07.21-.18.21c-.06,0-.12-.05-.2-.14a.54.54,0,0,1,.21-.05c0-.1,0-.2,0-.3.2-6.39,3.66-11,8.39-14.78A23.41,23.41,0,0,1,23.56,0H198.68a24.42,24.42,0,0,1,18.66,7.85A20.11,20.11,0,0,1,222.93,20.23Z"/><path class="cls-2" d="M0,22.83v-2.6a.54.54,0,0,1,.21-.05.47.47,0,0,1,.17,0A3.56,3.56,0,0,1,0,22.83Z"/><path class="cls-3" d="M.39,147.93s0,.08,0,.12A1.22,1.22,0,0,1,0,148v-2.61A3.47,3.47,0,0,1,.39,147.93Z"/><path class="cls-1" d="M193.91,140.18a4.48,4.48,0,0,1-6.44.34c-3.71-3.23-7.31-6.59-10.95-9.91q-17.73-16.17-35.44-32.37c-1-.9-1.48-.87-2.33.14-4.21,5-9,9.12-15.26,11.5C110.22,115,96,111.44,86.14,100.57c-1-1.12-2-2.22-3.08-3.33L36.22,139.91c-2,1.84-4,2.26-5.91,1.24a4.42,4.42,0,0,1-2.45-4.67,5.62,5.62,0,0,1,2.26-3.58L65,101.16c3.48-3.17,6.91-6.39,10.48-9.46,1.27-1.1,1.13-1.66.06-2.82Q52.4,63.8,29.4,38.63c-1.85-2-2.11-4.18-.82-6.1a4.6,4.6,0,0,1,5.34-1.84,6.87,6.87,0,0,1,2.72,2.09C55.27,53.12,74,73.36,92.5,93.83c9.3,10.3,23.23,11.08,32.79,4.56,2.91-2,5.15-4.65,7.5-7.21q26.72-29.13,53.39-58.3c2-2.24,3.82-2.83,5.91-2,3.17,1.25,3.94,4.94,1.48,7.68-4.2,4.69-8.49,9.31-12.74,14Q164.09,70.76,147.34,89c-1,1.09-1,1.62.1,2.65q22.55,20.4,45,40.92c.43.39.85.78,1.25,1.21A4.52,4.52,0,0,1,193.91,140.18Z"/><path d="M193.91,140.18a4.48,4.48,0,0,1-6.44.34c-3.71-3.23-7.31-6.59-10.95-9.91q-17.73-16.17-35.44-32.37c-1-.9-1.48-.87-2.33.14-4.21,5-9,9.12-15.26,11.5C110.22,115,96,111.44,86.14,100.57c-1-1.12-2-2.22-3.08-3.33L36.22,139.91c-2,1.84-4,2.26-5.91,1.24a4.42,4.42,0,0,1-2.45-4.67,5.62,5.62,0,0,1,2.26-3.58L65,101.16c3.48-3.17,6.91-6.39,10.48-9.46,1.27-1.1,1.13-1.66.06-2.82Q52.4,63.8,29.4,38.63c-1.85-2-2.11-4.18-.82-6.1a4.6,4.6,0,0,1,5.34-1.84,6.87,6.87,0,0,1,2.72,2.09C55.27,53.12,74,73.36,92.5,93.83c9.3,10.3,23.23,11.08,32.79,4.56,2.91-2,5.15-4.65,7.5-7.21q26.72-29.13,53.39-58.3c2-2.24,3.82-2.83,5.91-2,3.17,1.25,3.94,4.94,1.48,7.68-4.2,4.69-8.49,9.31-12.74,14Q164.09,70.76,147.34,89c-1,1.09-1,1.62.1,2.65q22.55,20.4,45,40.92c.43.39.85.78,1.25,1.21A4.52,4.52,0,0,1,193.91,140.18Z"/></g></g></svg>