<svg xmlns="http://www.w3.org/2000/svg" viewBox="0 0 83.11 83.06"><defs><style>.cls-1{fill:#fefefe;}</style></defs><title>phone</title><g id="Layer_2" data-name="Layer 2"><g id="Layer_1-2" data-name="Layer 1"><path class="cls-1" d="M83.1,65.75A24.51,24.51,0,0,1,81.15,74a8.61,8.61,0,0,1-3,3.36c-4.77,3.59-10,5.9-16.1,5.66a30.76,30.76,0,0,1-9.39-2.2c-5-1.83-10-3.49-14.54-6.24A86.4,86.4,0,0,1,21.78,61.45C16.53,56.2,11.65,50.64,8,44.12A82.23,82.23,0,0,1,.38,24,16.74,16.74,0,0,1,0,20,25.34,25.34,0,0,1,7,3.45c1.73-1.93,4.2-2.36,6.57-2.93A15.85,15.85,0,0,1,17.85,0a2.16,2.16,0,0,1,1.69.83,16.54,16.54,0,0,1,1.62,2.51c2.6,4.63,5,9.4,8,13.81,1.62,2.38,1.44,3.54-.5,5.67a48.63,48.63,0,0,1-5.38,4.65A30.85,30.85,0,0,0,20.62,30a3,3,0,0,0-.69,3.66,73.71,73.71,0,0,0,4.44,7.66A57.08,57.08,0,0,0,44.89,60.59a41.76,41.76,0,0,0,4.67,2.6A3,3,0,0,0,53,62.6a38,38,0,0,0,4.36-5A22.85,22.85,0,0,1,61,53.84c1.44-1.17,2.61-1.37,4.16-.35,4.2,2.75,8.61,5.13,13,7.56a40.24,40.24,0,0,1,3.66,2.1A2.73,2.73,0,0,1,83.1,65.75Z"/><path d="M83.1,65.75A24.51,24.51,0,0,1,81.15,74a8.61,8.61,0,0,1-3,3.36c-4.77,3.59-10,5.9-16.1,5.66a30.76,30.76,0,0,1-9.39-2.2c-5-1.83-10-3.49-14.54-6.24A86.4,86.4,0,0,1,21.78,61.45C16.53,56.2,11.65,50.64,8,44.12A82.23,82.23,0,0,1,.38,24,16.74,16.74,0,0,1,0,20,25.34,25.34,0,0,1,7,3.45c1.73-1.93,4.2-2.36,6.57-2.93A15.85,15.85,0,0,1,17.85,0a2.16,2.16,0,0,1,1.69.83,16.54,16.54,0,0,1,1.62,2.51c2.6,4.63,5,9.4,8,13.81,1.62,2.38,1.44,3.54-.5,5.67a48.63,48.63,0,0,1-5.38,4.65A30.85,30.85,0,0,0,20.62,30a3,3,0,0,0-.69,3.66,73.71,73.71,0,0,0,4.44,7.66A57.08,57.08,0,0,0,44.89,60.59a41.76,41.76,0,0,0,4.67,2.6A3,3,0,0,0,53,62.6a38,38,0,0,0,4.36-5A22.85,22.85,0,0,1,61,53.84c1.44-1.17,2.61-1.37,4.16-.35,4.2,2.75,8.61,5.13,13,7.56a40.24,40.24,0,0,1,3.66,2.1A2.73,2.73,0,0,1,83.1,65.75Z"/></g></g></svg>