<?xml version="1.0" encoding="utf-8"?>
<!-- Generator: Adobe Illustrator 24.0.1, SVG Export Plug-In . SVG Version: 6.00 Build 0)  -->
<svg version="1.1" id="Layer_1" xmlns="http://www.w3.org/2000/svg" xmlns:xlink="http://www.w3.org/1999/xlink" x="0px" y="0px"
	 viewBox="0 0 308.5 261.6" style="enable-background:new 0 0 308.5 261.6;" xml:space="preserve">
<style type="text/css">
	.st0{fill:none;stroke:#CACACA;stroke-width:9.62;stroke-miterlimit:10;}
	.st1{fill:none;stroke:#CACACA;stroke-width:8.13;stroke-miterlimit:10;}
	.st2{fill:none;stroke:#CACACA;stroke-width:8.13;stroke-linecap:round;stroke-miterlimit:10;}
</style>
<title>tips-volunteer</title>
<g id="Layer_2_1_">
	<g id="Layer_1-2">
		<path class="st0" d="M303.7,130.8c0,69.6-56.4,126-126,126c-35.3,0-68.9-14.8-92.8-40.8l-72.8,9l46.8-52.2
			c-23.1-65.6,11.4-137.6,77-160.7s137.6,11.4,160.7,77C301.3,102.5,303.7,116.6,303.7,130.8L303.7,130.8z"/>
		<path class="st1" d="M173.8,44.1c-6.7,0.4-27.7,2.6-42,19c-18,20.6-15.3,53.2-5,72c2.8,5.1,8,9.3,12,19c3.2,7.9,4.9,16.4,5,25
			l67-1c-0.5-5.4-0.2-10.8,1-16c3-13.4,10.5-20.3,15-27c10.9-16.1,11.9-41.1,4-58C221.7,57.5,199.1,45.4,173.8,44.1z"/>
		<polyline class="st2" points="196.8,82.1 166.8,112.1 187.8,115.1 166.8,140.1 		"/>
		<line class="st2" x1="146.8" y1="194.1" x2="210.8" y2="194.1"/>
		<line class="st2" x1="161.8" y1="210.1" x2="196.8" y2="210.1"/>
	</g>
</g>
</svg>
