<svg xmlns="http://www.w3.org/2000/svg" viewBox="0 0 308.53 261.62"><defs><style>.cls-1,.cls-2,.cls-3{fill:none;stroke:#000;stroke-miterlimit:10;}.cls-1{stroke-width:9.62px;}.cls-2{stroke-width:8.13px;}.cls-3{stroke-linecap:round;stroke-width:8.13px;}</style></defs><title>tips-volunteer</title><g id="Layer_2" data-name="Layer 2"><g id="Layer_1-2" data-name="Layer 1"><path class="cls-1" d="M303.72,130.81a126,126,0,0,1-218.8,85.24L12.12,225l46.75-52.2a126,126,0,1,1,244.85-41.95Z"/><path class="cls-2" d="M173.81,44.06c-6.73.41-27.7,2.58-42,19-18,20.65-15.34,53.23-5,72,2.8,5.08,8,9.26,12,19a67.73,67.73,0,0,1,5,25l67-1a51.51,51.51,0,0,1,1-16c3-13.38,10.47-20.33,15-27,10.94-16.1,11.92-41.07,4-58C221.66,57.49,199.12,45.41,173.81,44.06Z"/><polyline class="cls-3" points="196.81 82.06 166.81 112.06 187.81 115.06 166.81 140.06"/><line class="cls-3" x1="146.81" y1="194.06" x2="210.81" y2="194.06"/><line class="cls-3" x1="161.81" y1="210.06" x2="196.81" y2="210.06"/></g></g></svg>