<svg xmlns="http://www.w3.org/2000/svg" xmlns:xlink="http://www.w3.org/1999/xlink" viewBox="0,0,256,256" width="200px" height="200px"><g fill="#6b7280" fill-rule="nonzero" stroke="none" stroke-width="1" stroke-linecap="butt" stroke-linejoin="miter" stroke-miterlimit="10" stroke-dasharray="" stroke-dashoffset="0" font-family="none" font-weight="none" font-size="none" text-anchor="none" style="mix-blend-mode: normal"><g transform="scale(2.56,2.56)"><path d="M31,17c-7.2,0 -13,5.8 -13,13v39c0,7.2 5.8,13 13,13h39c7.2,0 13,-5.8 13,-13v-39c0,-7.2 -5.8,-13 -13,-13zM31,19h39c6.1,0 11,4.9 11,11v39c0,6.1 -4.9,11 -11,11h-39c-6.1,0 -11,-4.9 -11,-11v-39c0,-6.1 4.9,-11 11,-11zM33.80078,22c-6,0 -10.80078,4.80078 -10.80078,10.80078v33.39844c0,6 4.80078,10.80078 10.80078,10.80078h1.69922c0.3,0 0.5,-0.2 0.5,-0.5c0,-0.3 -0.2,-0.5 -0.5,-0.5h-1.69922c-5.4,0 -9.80078,-4.40078 -9.80078,-9.80078v-33.39844c0,-5.4 4.40078,-9.80078 9.80078,-9.80078c0.3,0 0.5,-0.2 0.5,-0.5c0,-0.3 -0.2,-0.5 -0.5,-0.5zM36.5,22c-0.3,0 -0.5,0.2 -0.5,0.5c0,0.3 0.2,0.5 0.5,0.5h6c0.3,0 0.5,-0.2 0.5,-0.5c0,-0.3 -0.2,-0.5 -0.5,-0.5zM49.19922,25c-7.6,0.4 -13.89922,6.70039 -14.19922,14.40039c-0.1,3.8 1.19961,7.39883 3.59961,10.29883c0.5,0.6 1.09961,1.30039 1.59961,1.90039c2.2,2.7 4.80078,5.70039 4.80078,7.90039v1c0,0.8 0.7,1.5 1.5,1.5h7c0.8,0 1.5,-0.7 1.5,-1.5v-1c0,-2 2.3,-4.80039 4.5,-7.40039c0.8,-1 1.60078,-1.90039 2.30078,-2.90039c2.1,-2.6 3.19922,-5.79922 3.19922,-9.19922c0,-4.1 -1.69922,-8.00039 -4.69922,-10.90039c-3,-2.8 -6.90156,-4.29961 -11.10156,-4.09961zM49.30078,26h0.69922c3.6,0 6.99922,1.40039 9.69922,3.90039c2.8,2.6 4.30078,6.19961 4.30078,10.09961c0,3.1 -1,6.09961 -3,8.59961c-0.7,1 -1.50078,2.00039 -2.30078,2.90039c-2.4,2.9 -4.69922,5.6 -4.69922,8v1c0,0.3 -0.2,0.5 -0.5,0.5h-7c-0.3,0 -0.5,-0.2 -0.5,-0.5v-1c0,-2.6 -2.69961,-5.79961 -5.09961,-8.59961c-0.6,-0.7 -1.09961,-1.30039 -1.59961,-1.90039c-2.3,-2.6 -3.40078,-6.09961 -3.30078,-9.59961c0.3,-7.2 6.10078,-13.10039 13.30078,-13.40039zM77.5,37c-0.3,0 -0.5,0.2 -0.5,0.5v16c0,0.3 0.2,0.5 0.5,0.5c0.3,0 0.5,-0.2 0.5,-0.5v-16c0,-0.3 -0.2,-0.5 -0.5,-0.5zM44.5,41c-0.8,0 -1.5,0.7 -1.5,1.5v1c0,0.8 0.7,1.5 1.5,1.5h3.5v12.5c0,0.8 0.7,1.5 1.5,1.5h1c0.8,0 1.5,-0.7 1.5,-1.5v-12.5h3.5c0.8,0 1.5,-0.7 1.5,-1.5v-1c0,-0.8 -0.7,-1.5 -1.5,-1.5zM44.5,42h11c0.3,0 0.5,0.2 0.5,0.5v1c0,0.3 -0.2,0.5 -0.5,0.5h-4.5v13.5c0,0.3 -0.2,0.5 -0.5,0.5h-1c-0.3,0 -0.5,-0.2 -0.5,-0.5v-13.5h-4.5c-0.3,0 -0.5,-0.2 -0.5,-0.5v-1c0,-0.3 0.2,-0.5 0.5,-0.5zM77.5,56c-0.3,0 -0.5,0.2 -0.5,0.5v3c0,0.3 0.2,0.5 0.5,0.5c0.3,0 0.5,-0.2 0.5,-0.5v-3c0,-0.3 -0.2,-0.5 -0.5,-0.5zM45.5,63c-0.8,0 -1.5,0.7 -1.5,1.5c0,0.8 0.7,1.5 1.5,1.5h9c0.8,0 1.5,-0.7 1.5,-1.5c0,-0.8 -0.7,-1.5 -1.5,-1.5zM45.5,64h9c0.3,0 0.5,0.2 0.5,0.5c0,0.3 -0.2,0.5 -0.5,0.5h-9c-0.3,0 -0.5,-0.2 -0.5,-0.5c0,-0.3 0.2,-0.5 0.5,-0.5zM77.5,64c-0.3,0 -0.5,0.2 -0.5,0.5v1.69922c0,5.4 -4.40078,9.80078 -9.80078,9.80078h-0.69922c-0.3,0 -0.5,0.2 -0.5,0.5c0,0.3 0.2,0.5 0.5,0.5h0.69922c6,0 10.80078,-4.80078 10.80078,-10.80078v-1.69922c0,-0.3 -0.2,-0.5 -0.5,-0.5zM47.5,67c-0.8,0 -1.5,0.7 -1.5,1.5c0,0.8 0.7,1.5 1.5,1.5h5c0.8,0 1.5,-0.7 1.5,-1.5c0,-0.8 -0.7,-1.5 -1.5,-1.5zM47.5,68h5c0.3,0 0.5,0.2 0.5,0.5c0,0.3 -0.2,0.5 -0.5,0.5h-5c-0.3,0 -0.5,-0.2 -0.5,-0.5c0,-0.3 0.2,-0.5 0.5,-0.5zM48.5,71c-0.8,0 -1.5,0.7 -1.5,1.5c0,0.8 0.7,1.5 1.5,1.5h3c0.8,0 1.5,-0.7 1.5,-1.5c0,-0.8 -0.7,-1.5 -1.5,-1.5zM48.5,72h3c0.3,0 0.5,0.2 0.5,0.5c0,0.3 -0.2,0.5 -0.5,0.5h-3c-0.3,0 -0.5,-0.2 -0.5,-0.5c0,-0.3 0.2,-0.5 0.5,-0.5zM38.5,76c-0.3,0 -0.5,0.2 -0.5,0.5c0,0.3 0.2,0.5 0.5,0.5h1c0.3,0 0.5,-0.2 0.5,-0.5c0,-0.3 -0.2,-0.5 -0.5,-0.5zM56.5,76c-0.3,0 -0.5,0.2 -0.5,0.5c0,0.3 0.2,0.5 0.5,0.5h1c0.3,0 0.5,-0.2 0.5,-0.5c0,-0.3 -0.2,-0.5 -0.5,-0.5zM60.5,76c-0.3,0 -0.5,0.2 -0.5,0.5c0,0.3 0.2,0.5 0.5,0.5h3c0.3,0 0.5,-0.2 0.5,-0.5c0,-0.3 -0.2,-0.5 -0.5,-0.5z"></path></g></g></svg>