<svg xmlns="http://www.w3.org/2000/svg" viewBox="0 0 283.54 386.47"><defs><style>.cls-1{fill:#fefefe;}.cls-2{fill:#6b7280;}</style></defs><title>volunteer</title><g id="Layer_2" data-name="Layer 2"><g id="Layer_1-2" data-name="Layer 1"><path class="cls-1" d="M137.56,386.47c-22.46-8-38.22-23.83-52.17-42.88-24.24-33.08-49.92-65.07-74.63-97.8-15.31-20.28-14.1-39.53,2.45-52.69,15.82-12.58,34.42-9.53,50.34,8.42C69,207.64,74.16,214,82,223.32c-10,3.43-15.06-11-21.88-17.83-15.68-15.62-30.49-18.35-43.66-7.26-13.56,11.42-14.89,27-1.83,44.49,28.28,38,57.6,75.17,86.48,112.69,8,10.4,19,16.86,30.59,22.45C135.05,379.46,138.67,381.5,137.56,386.47Z"/><path class="cls-1" d="M84,168.7c0-34.11-.23-68.21.08-102.31.22-25.31,12-36.19,37-34.53,4.54.31,8.58,2.89,9.06-4.53C131,14.47,141.13,8,149,0c-2.09,12.33-13.35,19.64-16.7,31.5-1.68,6-8.26,4.54-13.24,5-22.68,2.16-29.61,9.41-29.91,33.38-.51,41.11.13,82.22-.34,123.33-.11,10,4.38,24.1-4.85,29.23Z"/><path class="cls-1" d="M231.87,59.69c-4.51-33.77-4.79-33.51-37.16-37.82-12.4-1.65-20.44-9-22.71-21.87,9.65,11.7,19.4,18.84,37.13,16.65,16-2,26.08,11.39,27.63,28.29.74,8,.18,16.14.14,26.92C234.05,69.21,232.61,65.24,231.87,59.69Z"/><path class="cls-1" d="M229.38,386.47c-.2-8.59,7.28-9.77,12.51-12.46,23.41-12,34.81-32.15,35.19-57.56,1.05-70,.83-139.95.09-209.91-.22-21.12-7.69-29-28.61-30.6-4.84-.37-8.33-1.45-10.84-3.4,13.88-5.05,26.08-3.63,36.17,6.27C284.22,88.94,283,102.05,283,114.9c-.05,61-1.49,122,.48,183C284.85,340.94,270.08,371,229.38,386.47Z"/><path class="cls-2" d="M194.52,227.42c-6.51,2.51-11.58,5.06-19.43,1.46-18.74-8.59-35.16-3.71-45.59,11.16-11.06,15.77-9.69,33.64,4.73,49.12,13.1,14.06,27.12,27.25,40.34,41.21,5.84,6.17,10.29,8.18,17.06.86,13.93-15,28.72-29.26,42.93-44a35.62,35.62,0,0,0,10-24.38C245.18,236.13,219.46,217.79,194.52,227.42ZM221.8,279c-33.5,40.76-44.14,40.7-77.1-.65a34.78,34.78,0,0,1-5.15-8c-4.17-10.15-1.66-19,6.64-25.75,7.75-6.35,18-8.16,24.33-.87,10.28,11.81,17,9.19,26.44-.47,5.68-5.81,14.11-4.77,21.32-.43s10.52,10.78,10.95,15.45C229.28,268.67,226,274,221.8,279Z"/><path class="cls-2" d="M283.45,297.85c-2-60.93-.53-122-.48-183,0-12.85,1.25-26-9.08-36.09-10.09-9.9-22.29-11.32-36.17-6.27l-.82.3v-1c0-10.78.6-18.91-.14-26.92-1.55-16.9-11.65-30.27-27.63-28.29C191.4,18.84,181.65,11.7,172,0H149C141.13,8,131,14.47,130.15,27.33c-.48,7.42-4.52,4.84-9.06,4.53C96,30.2,84.3,41.08,84.08,66.39c-.31,34.1-.08,68.2-.08,102.31v57c-.68-.8-1.34-1.58-2-2.34C74.16,214,69,207.64,63.55,201.52c-15.92-18-34.52-21-50.34-8.42-16.55,13.16-17.76,32.41-2.45,52.69,24.71,32.73,50.39,64.72,74.63,97.8,14,19.05,29.71,34.87,52.17,42.88h91.82C270.08,371,284.85,340.94,283.45,297.85Zm-73.46,73c-92.07-.3-76.49,9.65-133.34-64-18-23.35-35.81-46.89-54-70.1-8.06-10.29-11.86-20.95-.84-30.62,11.94-10.48,22.13-4.71,30.88,6.19,9.22,11.51,18.73,22.78,28.34,34,3.19,3.71,5.92,9.45,12.09,7.68,7.32-2.09,6.14-8.81,6.15-14.46,0-53.44-.22-106.89.22-160.33.1-12.43-5.8-31.27,14.33-31.81,22-.58,15.57,19.21,15.89,32.14.66,27,.06,54.08.3,81.12.06,6.53-2.37,16.41,8.22,16,8.68-.36,6.9-9.31,6.92-15.44q.18-60.84,0-121.69c0-11.72.81-23.75,15.71-23.42s15,12.67,15,24.17q-.19,59.88,0,119.76c0,6.55-2.44,16.56,7.59,16.58,10.24,0,7.48-10.08,7.52-16.58q.33-52.16.06-104.31c-.05-11.49.09-23.84,15-24.16S221.84,43.24,221.79,55q-.24,53.11,0,106.24c0,6.11-1.83,15.06,6.89,15.46,10.66.49,8.15-9.37,8.25-15.91.28-18.67.16-37.34.09-56-.05-11.17,4-19.68,16.12-19.2,11,.42,14.53,8.66,14.51,18.93q-.11,54.09,0,108.18c0,33.48.29,67-.07,100.44C267.18,348.79,245.46,371,210,370.87Z"/><path class="cls-1" d="M194.52,227.42c-6.51,2.51-11.58,5.06-19.43,1.46-18.74-8.59-35.16-3.71-45.59,11.16-11.06,15.77-9.69,33.64,4.73,49.12,13.1,14.06,27.12,27.25,40.34,41.21,5.84,6.17,10.29,8.18,17.06.86,13.93-15,28.72-29.26,42.93-44a35.62,35.62,0,0,0,10-24.38C245.18,236.13,219.46,217.79,194.52,227.42ZM221.8,279c-33.5,40.76-44.14,40.7-77.1-.65a34.78,34.78,0,0,1-5.15-8c-4.17-10.15-1.66-19,6.64-25.75,7.75-6.35,18-8.16,24.33-.87,10.28,11.81,17,9.19,26.44-.47,5.68-5.81,14.11-4.77,21.32-.43s10.52,10.78,10.95,15.45C229.28,268.67,226,274,221.8,279Z"/><path class="cls-2" d="M194.52,227.42c-6.51,2.51-11.58,5.06-19.43,1.46-18.74-8.59-35.16-3.71-45.59,11.16-11.06,15.77-9.69,33.64,4.73,49.12,13.1,14.06,27.12,27.25,40.34,41.21,5.84,6.17,10.29,8.18,17.06.86,13.93-15,28.72-29.26,42.93-44a35.62,35.62,0,0,0,10-24.38C245.18,236.13,219.46,217.79,194.52,227.42ZM221.8,279c-33.5,40.76-44.14,40.7-77.1-.65a34.78,34.78,0,0,1-5.15-8c-4.17-10.15-1.66-19,6.64-25.75,7.75-6.35,18-8.16,24.33-.87,10.28,11.81,17,9.19,26.44-.47,5.68-5.81,14.11-4.77,21.32-.43s10.52,10.78,10.95,15.45C229.28,268.67,226,274,221.8,279Z"/></g></g></svg>