<svg xmlns="http://www.w3.org/2000/svg" viewBox="0 0 75.17 138.02"><defs><style>.cls-1 {
  fill: #fff;
}
</style></defs><title>arrow-white</title><g id="Layer_2" data-name="Layer 2"><g id="Layer_1-2" data-name="Layer 1"><g id="Layer_2-2" data-name="Layer 2"><g id="Layer_1-2-2" data-name="Layer 1-2"><path class="cls-1" d="M74.27,129a6.07,6.07,0,0,1-5.12,9c-2.65.22-4.33-1.43-6-3.11L2.84,74.6c-4-4-3.64-7.49.25-11.35Q33,33.46,62.83,3.51c3-3,6.32-5.27,10.12-1.65,4.16,3.95,1.79,7.44-1.44,10.67-17,17-33.78,34.09-51,50.77-4.49,4.34-5.17,6.61-.24,11.33,16.76,16.05,33,32.67,49.36,49.1C71.26,125.39,73.14,127,74.27,129Z"></path><path class="cls-1" d="M74.27,129a6.07,6.07,0,0,1-5.12,9c-2.65.22-4.33-1.43-6-3.11L2.84,74.6c-4-4-3.64-7.49.25-11.35Q33,33.46,62.83,3.51c3-3,6.32-5.27,10.12-1.65,4.16,3.95,1.79,7.44-1.44,10.67-17,17-33.78,34.09-51,50.77-4.49,4.34-5.17,6.61-.24,11.33,16.76,16.05,33,32.67,49.36,49.1C71.26,125.39,73.14,127,74.27,129Z"></path></g></g></g></g></svg>