<svg xmlns="http://www.w3.org/2000/svg" viewBox="0 0 155.31 129.45"><defs><style>.cls-1 {
  fill: #167bbe;
}

.cls-2 {
  fill: #7fc141;
}

.cls-3 {
  fill: #177bbf;
}

.cls-4 {
  fill: #67a241;
}

.cls-5 {
  fill: #80c242;
}

.cls-6 {
  fill: #619c40;
}

.cls-7 {
  fill: #5d9640;
}

.cls-8 {
  fill: #6ba942;
}

.cls-9 {
  fill: #558d40;
}

.cls-10 {
  fill: #4d843e;
}

.cls-11 {
  fill: #73b242;
}

.cls-12 {
  fill: #57903f;
}

.cls-13 {
  fill: #528940;
}

.cls-14 {
  fill: #3b703b;
}

.cls-15 {
  fill: #32673c;
}

.cls-16 {
  fill: #5b9441;
}

.cls-17 {
  fill: #72b242;
}

.cls-18 {
  fill: #41763c;
}

.cls-19 {
  fill: #78b842;
}

.cls-20 {
  fill: #4a813e;
}

.cls-21 {
  fill: #6eac42;
}

.cls-22 {
  fill: #346a3a;
}

.cls-23 {
  fill: #7bbd43;
}

.cls-24 {
  fill: #43793c;
}

.cls-25 {
  fill: #467c3d;
}

.cls-26 {
  fill: #0d7cc6;
}

.cls-27 {
  fill: #90c3e5;
}

.cls-28 {
  fill: #7bba46;
}

.cls-29 {
  fill: #0e79c0;
}

.cls-30 {
  fill: #0d78c0;
}

.cls-31 {
  fill: #1079c0;
}
</style></defs><title>Asset 5</title><g id="Layer_2" data-name="Layer 2"><g id="Layer_1-2" data-name="Layer 1"><path class="cls-1" d="M148.26,69.89l-24-.25c-1.75-.3-3.5-.59-5.22.15-12,1.18-24,2.38-35.86,5a269,269,0,0,0-31.14,9c-2.86,1-1.41,2.3-.8,3.55,2.51,5.21,6,9.83,9.2,14.62.33.49.94.85.61,1.85-1.55.19-2.18-1.2-3-2.06A79.12,79.12,0,0,1,42.66,79.15c-1.12-2.55-2.06-2.45-4.22-1.3a167.29,167.29,0,0,0-18.55,11c-1.95,1.37-2.83,1.72-3.56-1.19C10.7,64.91,16.2,45.32,33.58,29.49c4.06-3.7,3.76-8.35,5.25-12.61,2-5.8,4-11.57,7.29-16.88.49,3.44-1.44,6.39-2.31,9.47a109.85,109.85,0,0,0-4.18,36.71,103.44,103.44,0,0,0,6.11,29.64c.76,2.08,1.54,2,3.21,1.27C73.13,67.21,98.26,62.49,124.4,64c9.69.56,19.38,1.76,28.43,5.75A7.51,7.51,0,0,1,148.26,69.89Z"></path><path class="cls-1" d="M99.65,29.52c-1.21-3.35-1.91-7-4.81-9.56,11.28,4.48,19.79,12.15,26.47,22.72-10.33,2-20.39,3.4-31,2.71,5.21-2.61,7.82-7,9.32-12.15A4.23,4.23,0,0,0,99.65,29.52Z"></path><path class="cls-2" d="M107.19,105.59a65,65,0,0,0,15.35-26.8,10.56,10.56,0,0,1,1.47-3,2.84,2.84,0,0,1,3.2-1.36c1.51.42,1.63,1.6,1.63,2.93,0,5.54-1.67,10.7-3.73,15.73-3.49,8.57-8.3,16.24-15.77,22-2.07-1.39-1.63-3.59-1.75-5.58C107.51,108.21,107.29,106.91,107.19,105.59Z"></path><path class="cls-1" d="M68.88,33.24c.73,2.06,1.47,4.12,2.23,6.27-4.46-1.35-10.34-7.12-13.86-13.59-.76-1.41-1.12-3.06-2-4.35C52.72,18,54.81,16.93,58,16.35c7.46-1.36,14.92-2.79,23.31-.5-6.79,2.24-10.85,6.47-12.36,12.9A5.45,5.45,0,0,0,68.88,33.24Z"></path><path class="cls-1" d="M103.37,60.74a5.26,5.26,0,0,1-3.59-.27,115.17,115.17,0,0,1,25-16.81c-1.66,1.83-1.14,3.42-.29,5.25a40.56,40.56,0,0,1,3.87,12.39l-7.05-.56A109.65,109.65,0,0,0,103.37,60.74Z"></path><path class="cls-3" d="M43.29,87.34c-15.08,6.43-29.2,14.42-43,23.06-.8-1.28.32-1.9.91-2.5A138.16,138.16,0,0,1,38.47,81.69c1.12-.54,1.61-.69,2.16.66A55.09,55.09,0,0,0,43.29,87.34Z"></path><path class="cls-4" d="M91.37,125.64c-1.42.74-2.8,1.6-4.51,1.45a3.36,3.36,0,0,1-1.07-2.68c0-7-.42-14.11.19-21.15l5.4-5.14c2.06.4,1.8,2.14,1.83,3.49.18,6.75,0,13.5,0,20.25A3.93,3.93,0,0,1,91.37,125.64Z"></path><path class="cls-5" d="M99.36,108.59c5.34-6.56,8.58-13.68,12.34-20.5.92-1.65,2-4.53,4-3.6,2.33,1.07,1.51,3.94.42,6-3.32,6.13-7.17,11.89-12.78,16.27A7.7,7.7,0,0,1,99.36,108.59Z"></path><path class="cls-6" d="M86,103.26c1.36,1,.85,2.49.86,3.79,0,6.68,0,13.36,0,20a5.21,5.21,0,0,1-3.75.74,2.55,2.55,0,0,1-1-1.92c-.18-6.57-.6-13.15.16-19.72A9.89,9.89,0,0,1,86,103.26Z"></path><path class="cls-7" d="M82.31,106.19c1.52,3,.66,6.3.77,9.45.15,4.06,0,8.13,0,12.19a4.25,4.25,0,0,1-3.74.75,3.23,3.23,0,0,1-1-2.32c0-5.9-.52-11.81.31-17.69C79.91,107.81,80.66,106.33,82.31,106.19Z"></path><path class="cls-8" d="M91.37,125.64c.95-1.45.73-3.09.74-4.69,0-6.45,0-12.89,0-19.34,0-1.19.42-2.51-.71-3.49a5,5,0,0,1,2.22-2.25c2-.07,2.3,1.47,2.52,2.9a15.22,15.22,0,0,1-.91,7.84c-.29,1.14-.66,2.27-.86,3.43-.28,1.65.42,2.47,2.18,2.12l.24.53a12.91,12.91,0,0,0-1.24,8.24c.18,1.08.49,2.21-.43,3.15C93.93,124.78,92.91,125.83,91.37,125.64Z"></path><path class="cls-9" d="M68.14,113.77l5.9-2.52a3.45,3.45,0,0,1,1.18,3c-.12,4.74.86,9.53-.69,14.2-1.23,1.08-2.66.52-4,.5-1.66-1.55-1.14-3.6-1.2-5.48C69.19,120.18,69.59,116.87,68.14,113.77Z"></path><path class="cls-10" d="M62.87,115.2c.81-.86,1.87-.76,2.9-.75a1.15,1.15,0,0,1,1.42.86c.72,4.54,1.7,9.1-.68,13.49-2-.25-4.11.39-6-.83a45.55,45.55,0,0,0,.53-8.17C61.08,118.06,61.06,116.27,62.87,115.2Z"></path><path class="cls-11" d="M104.13,94.46c-1.76,2.89-3.45,5.84-6,8.14-2-3.36-1-7-.85-10.5,1.72-2.28,3.84-3.57,6.83-2.74A7.17,7.17,0,0,1,104.13,94.46Z"></path><path class="cls-12" d="M74.12,128.62q0-8.69-.08-17.37L76.36,110c1.4-.06,1.66,1.08,1.68,2,.15,5.56.63,11.14-.17,16.7l-.24.15-.27-.09A3.56,3.56,0,0,1,74.12,128.62Z"></path><path class="cls-13" d="M66.51,128.8c-.27-4.78,1.1-9.65-.74-14.35a3,3,0,0,1,2.37-.68c2,.16,2.25,1.51,2.24,3.13,0,3.91,0,7.82,0,11.74a5,5,0,0,1-3.85.13Z"></path><path class="cls-14" d="M44.12,114.66c1.87,0,3.33,1.62,5.27,1.4,1.82,3.76,1.58,6.26-.78,8.16a12.58,12.58,0,0,1-6-3C41.86,118.76,41.8,116.44,44.12,114.66Z"></path><path class="cls-15" d="M37.31,117.76c-5.24-3.2-9.13-7.69-12.44-12.81,4.5,2,8,5.68,12.53,7.46C38.59,114.21,38.91,116,37.31,117.76Z"></path><path class="cls-16" d="M77.87,128.7c-1.42-4.75-.45-9.62-.77-14.43-.09-1.43.57-3-.74-4.24l2.31-1.46c1.49,3,.5,6.23.66,9.35.18,3.54,0,7.1,0,10.66Z"></path><path class="cls-17" d="M96.53,112.16l5.24-2.42a11.71,11.71,0,0,1,.13,10.9c-1.16.85-2.18,2-3.8,2-1.65-1.88-.81-4.19-1.08-6.3-.17-1.32.2-2.69-.4-4Z"></path><path class="cls-18" d="M48.61,124.22c1.65-2.59.38-5.45.78-8.16,1.74-.6,3.5-.2,5.25,0,.86,2.5.38,5.07.16,7.58-.1,1.19-.27,2.94-2.41,2.11A5.68,5.68,0,0,1,48.61,124.22Z"></path><path class="cls-19" d="M101.9,120.64c0-3.63-.09-7.27-.13-10.9l3-2c1.8,0,1.77,1.46,1.85,2.58.18,2.41.49,4.85-.19,7.26A12.82,12.82,0,0,1,101.9,120.64Z"></path><path class="cls-20" d="M62.87,115.2c-1.41,3.1-.46,6.38-.74,9.56-.11,1.27.48,2.89-1.59,3.21-1.06-.07-2.18.13-3.06-.71a23.19,23.19,0,0,0,0-11.35C59.19,115.11,61,115.29,62.87,115.2Z"></path><path class="cls-21" d="M97.26,92.1c1.78,3.38.41,7,.85,10.5l-2.9,4c0-2.44-.09-4.88-.09-7.33,0-1.38,0-2.73-1.52-3.41Z"></path><path class="cls-21" d="M96.62,112.34c1.66.13,1.47,1.37,1.48,2.47,0,2.59,0,5.19,0,7.79-1,.41-1.55,1.88-3,1.48a41.33,41.33,0,0,1-.8-7A5.79,5.79,0,0,1,96.62,112.34Z"></path><path class="cls-22" d="M37.31,117.76l.09-5.35c2.34.45,4.14,2.5,6.72,2.25q-.73,3.28-1.48,6.57C40.39,120.79,38.85,119.28,37.31,117.76Z"></path><path class="cls-23" d="M106.39,117.58c-1.18-1.92-.66-4-.8-6.1-.09-1.28.47-2.73-.86-3.74l2.46-2.15c1.87.31,1.39,1.79,1.38,2.94a18.11,18.11,0,0,0,.77,6.59Z"></path><path class="cls-24" d="M52.39,125.7c2.06-.35,1.38-2,1.49-3.21.18-2.17-.46-4.43.76-6.48l2.25-.06a12.64,12.64,0,0,1,0,11.17C55.14,127.42,53.77,126.54,52.39,125.7Z"></path><path class="cls-25" d="M56.88,127.12q0-5.59,0-11.17a.39.39,0,0,1,.57,0c.73.18,1.55.4,1.56,1.28q.09,4.4,0,8.79c0,.89-.81,1.12-1.55,1.28l-.32,0Z"></path><path class="cls-26" d="M103.37,60.74a49.62,49.62,0,0,1,17.94,0Z"></path><path class="cls-16" d="M66.52,128.77l3.85-.13,3.75,0,3.24.14A22,22,0,0,1,66.52,128.77Z"></path><path class="cls-27" d="M148.26,69.89l4.57-.12c.82-.35,1.64-.64,2.48.54C152.83,70.62,150.53,70.83,148.26,69.89Z"></path><path class="cls-28" d="M104.13,94.46c0-1.7,0-3.4,0-5.1C105.92,91.05,105.37,92.75,104.13,94.46Z"></path><path class="cls-29" d="M119.08,69.79a4.61,4.61,0,0,1,5.22-.15Z"></path><path class="cls-30" d="M68.88,33.24a3.32,3.32,0,0,1,0-4.49Z"></path><path class="cls-31" d="M99.65,29.52a2.54,2.54,0,0,1-.05,3.72C99.61,32,99.63,30.76,99.65,29.52Z"></path></g></g></svg>