<svg xmlns="http://www.w3.org/2000/svg" viewBox="0 0 169 101"><defs><style>.cls-1 {
  fill: #5f7adb;
}
</style></defs><title>logo</title><g id="Layer_2" data-name="Layer 2"><g id="Layer_1-2" data-name="Layer 1"><path class="cls-1" d="M43,18S18,13,14,37c0,0-4,18,20,24,0,0,17-2,21-13C55,48,42,36,43,18Z"></path><path class="cls-1" d="M126.8,16.56s25-5,29,19c0,0,4,18-20,24,0,0-17-2-21-13C114.8,46.56,127.8,34.56,126.8,16.56Z"></path><circle class="cls-1" cx="85" cy="24" r="24"></circle><path class="cls-1" d="M31,70S5,71,0,85v16H26V82Z"></path><path class="cls-1" d="M38,82v19h93V82S114,61,85,61C85,61,59,59,38,82Z"></path><path class="cls-1" d="M138,69s10,8,7,32h24V84S161,69,138,69Z"></path></g></g></svg>